<?xml version="1.0" encoding="UTF-8" standalone="no"?>
<svg
   viewBox="0 0 330.63411 188.97638"
   version="1.1"
   id="svg168"
   sodipodi:docname="citi_color.svg"
   inkscape:version="1.2 (dc2aedaf03, 2022-05-15)"
   width="330.63409"
   height="188.97638"
   xmlns:inkscape="http://www.inkscape.org/namespaces/inkscape"
   xmlns:sodipodi="http://sodipodi.sourceforge.net/DTD/sodipodi-0.dtd"
   xmlns="http://www.w3.org/2000/svg"
   xmlns:svg="http://www.w3.org/2000/svg"
   xmlns:rdf="http://www.w3.org/1999/02/22-rdf-syntax-ns#"
   xmlns:cc="http://creativecommons.org/ns#"
   xmlns:dc="http://purl.org/dc/elements/1.1/">
  <sodipodi:namedview
     id="namedview170"
     pagecolor="#ffffff"
     bordercolor="#999999"
     borderopacity="1"
     inkscape:showpageshadow="0"
     inkscape:pageopacity="0"
     inkscape:pagecheckerboard="0"
     inkscape:deskcolor="#d1d1d1"
     showgrid="false"
     inkscape:zoom="2.1003557"
     inkscape:cx="137.11963"
     inkscape:cy="159.02068"
     inkscape:window-width="1920"
     inkscape:window-height="1057"
     inkscape:window-x="-8"
     inkscape:window-y="1072"
     inkscape:window-maximized="1"
     inkscape:current-layer="svg168" />
  <defs
     id="defs4">
    <style
       id="style2">.cls-1{fill:#53ba59;}.cls-2{fill:#3caac1;}.cls-3{fill:#fff;}</style>
  </defs>
  <title
     id="title6">citi_couleur</title>
  <g
     id="g691"
     inkscape:export-filename="..\png\citi_color.png"
     inkscape:export-xdpi="300"
     inkscape:export-ydpi="300"
     transform="matrix(0.07432699,0,0,0.07432699,0.00235655,0.00297308)"
     style="stroke-width:13.4541">
    <rect
       class="cls-1"
       x="1986.73"
       y="95.099998"
       width="2461.6101"
       height="2447.3601"
       id="rect8"
       style="stroke-width:13.4541" />
    <path
       class="cls-2"
       d="m 1261.09,0 c -0.32,0.67 -2,0.83 -0.71,2.12 1.89,1.81 4.33,1.43 6.59,1.68 q 208.83,22.92 361.17,167.58 c 54.28,51.43 97,111.36 129.18,178.78 5.08,10.63 6.79,9.12 -5.53,14.73 q -35.89,16.35 -71.83,32.65 c -8.89,4 -8.48,5.25 -13.14,-4.49 a 510.39,510.39 0 0 0 -88,-129.13 q -85.56,-91.5 -203.44,-133.69 c -57.6,-20.79 -117.21,-31.2 -178.35,-29.69 -133.32,3.29 -249.43,49.92 -347,141.34 -36.25,33.95 -66.21,72.9 -91.11,115.82 -4.26,7.33 -4.34,7.34 -11.95,3.12 Q 711.1,341 675.3,321.09 c -8.2,-4.56 -8.23,-4.66 -3.79,-12.39 A 603.1,603.1 0 0 1 754.89,195.5 Q 885.27,56.84 1071.05,15 a 551.77,551.77 0 0 1 69,-11.15 35.75,35.75 0 0 0 6.84,-1.2 c 1.51,-0.45 1.81,-1.64 0.24,-2.69 z"
       id="path10"
       style="stroke-width:13.4541" />
    <path
       class="cls-2"
       d="m 1791.06,590.9 c -0.3,12 -2.9,22.69 -4.59,33.47 q -16.58,105.57 -33.61,211.07 -7.24,45.38 -14.46,90.76 c -1.4,8.62 -1.4,8.8 7.6,8.8 q 83.49,0.07 167,0 c 18.33,0 36.66,-0.07 55,0 7.55,0 7.9,0.5 6.68,8.12 q -11.17,70.05 -22.49,140.09 c -1.56,9.68 -1.72,9.74 -10.9,9.74 -55.66,0 -111.32,0.3 -167,-0.16 -18.32,-0.15 -36.65,-0.16 -55,-0.59 -5.43,-0.13 -7.49,1.73 -8.29,7.15 q -12.87,87 -26.16,173.85 -14.51,95.28 -29.2,190.55 c -8.92,58.25 -17.68,116.52 -26.75,174.74 q -15.32,98.21 -31,196.33 c -0.67,4.25 -2.39,9.06 1.35,12.29 4.33,3.75 8.94,0.59 13,-1.52 12.51,-6.55 23.23,-15.62 33.48,-25.15 25.87,-24 51.66,-48.16 77.12,-72.61 32.45,-31.16 66.21,-60.87 99.43,-91.17 19,-17.31 36.51,-36.06 54.87,-54 1.9,-1.86 3.83,-3.71 5.68,-5.63 2.06,-2.13 3.93,-2 5.78,0.28 1.25,1.56 2.59,3 3.88,4.57 q 39.66,47 79.31,94 c 7.59,9 7.33,7.15 -1,15.63 -50.79,52 -104.55,100.83 -158,150 -81.36,74.85 -168.48,142.24 -263.88,198.54 -19,11.2 -38.26,21.69 -59,29.2 -12.59,4.56 -25.5,7.76 -39,7.72 -22.87,-0.07 -37.92,-10.6 -45.28,-32.18 -5.55,-16.25 -7.23,-33.15 -6.79,-50.24 1.19,-45.94 3.71,-91.84 6.81,-137.68 1.61,-23.89 5.24,-47.65 8.2,-71.44 10.89,-87.58 26.54,-174.44 39.78,-261.66 14.15,-93.16 29.14,-186.18 43.82,-279.25 8.34,-53 17,-105.85 25.07,-158.84 2.39,-15.6 3.75,-13.34 -11.41,-13.31 q -95,0.16 -189.94,0.62 c -2.33,0 -4.67,0 -7,0 -7.7,-0.23 -8.19,-0.65 -6.68,-8 9.72,-47.61 19.67,-95.19 29.13,-142.86 1.23,-6.16 4,-7.23 9.39,-7.2 32,0.17 64,0.08 96,0.08 q 49,0 98,0 c 9.27,0 9.33,-0.1 10.8,-9 q 19.31,-117.29 38.58,-234.58 5,-30.55 10.07,-61.1 c 0.73,-4.44 1.63,-7.66 7.48,-8.62 60.12,-9.94 120.16,-20.28 180.23,-30.49 0.92,-0.22 1.89,-0.22 3.89,-0.32 z"
       id="path12"
       style="stroke-width:13.4541" />
    <path
       class="cls-2"
       d="m 916.16,1012.88 c -1.16,3.52 -4,5.92 -6.35,8.66 Q 863.1,1077 816.29,1132.27 c -1.29,1.53 -2.69,3 -3.83,4.61 -2.4,3.4 -4.51,2.54 -7.31,0.25 -10,-8.24 -20.09,-16.51 -30.5,-24.26 -33.44,-24.92 -69.45,-44.66 -110.69,-53.4 -72.88,-15.44 -141,-3.68 -203.89,36.42 -38.13,24.3 -69.5,55.85 -96.94,91.44 -47.44,61.51 -82.37,129.73 -107.85,202.91 -21.43,61.57 -35,124.92 -42.52,189.64 -6.06,52.36 -8.95,104.88 -7.19,157.55 1.26,37.67 4.89,75.12 17.32,111.12 4.7,13.61 10.68,26.56 19.21,38.23 19.19,26.26 45.3,37 77.35,34.48 30.71,-2.44 59.17,-12.42 86.62,-25.74 38.56,-18.71 73.69,-42.8 107.42,-69 41.07,-32 79.49,-66.92 116.7,-103.26 34.81,-34 68.23,-69.31 101,-105.22 5.75,-6.29 5.81,-6.3 12.34,-0.81 q 48.2,40.55 96.33,81.15 c 2.25,1.91 4.92,3.49 6.19,6.37 -0.28,2.15 -1.87,3.47 -3.1,5 -61.54,74.27 -127.27,144.48 -201.23,206.64 -54,45.38 -111.44,85.6 -175,116.65 -51.24,25 -104.68,43 -161.33,50.38 -36.46,4.73 -73.06,6.11 -109.34,-2 -53.54,-12 -95,-42.08 -127.09,-85.86 C 40.71,1957.03 23.6,1913.63 13.09,1867.36 4.22,1828.12 0.55,1788.4 0.08,1748.33 A 1125.23,1125.23 0 0 1 9.3,1587.86 c 13.18,-99.73 40,-195.51 83.56,-286.4 39.61,-82.63 90.25,-157.79 153,-224.62 55.78,-59.44 119.52,-108 195.51,-139.17 51.36,-21.1 104.8,-32.36 160.22,-34.69 116.76,-4.9 219.4,31.82 309.79,104.81 1.76,1.46 3.78,2.72 4.78,5.09 z"
       id="path14"
       style="stroke-width:13.4541" />
    <path
       class="cls-2"
       d="m 1250.31,921.05 c 1.56,2.05 0.69,4.41 0.33,6.63 q -12.35,77.42 -24.77,154.83 -12.4,77.91 -24.7,155.84 -15.59,98.14 -31.24,196.27 -13.56,85.32 -27,170.65 -13.5,84.82 -27.1,169.63 -14.51,91.23 -28.86,182.49 -8,50.79 -16.17,101.58 c -1.25,7.83 -1.38,8 -9.5,8 q -85,0.06 -170,0 c -1.33,0 -2.66,-0.06 -4,0 -3.8,0.05 -5.42,-1.48 -4.75,-5.52 1.83,-11.17 3.36,-22.39 5.13,-33.57 q 13.77,-86.79 27.6,-173.58 16.53,-103.56 33.12,-207.1 14.51,-91.23 28.84,-182.5 c 9,-56.54 18.15,-113.06 27.15,-169.6 q 12.48,-78.42 24.81,-156.85 12.33,-78.43 25,-156.82 c 0.94,-5.91 1.94,-11.82 2.8,-17.75 1.61,-11.12 1.56,-11.21 12.17,-13 q 36.42,-6.24 72.87,-12.32 52.18,-8.8 104.38,-17.58 c 1.28,-0.24 2.58,-0.7 3.89,0.27 z"
       id="path16"
       style="stroke-width:13.4541" />
    <path
       class="cls-2"
       d="m 948.28,472.58 c -15.22,-8.42 -29.77,-16.45 -44.31,-24.5 Q 886.5,438.39 869,428.67 c -8.18,-4.58 -8.21,-4.65 -3.67,-12.41 a 383.77,383.77 0 0 1 67.85,-86 c 59.87,-56.52 130.64,-91.3 212,-103.68 77.79,-11.84 152.79,-1.11 224,32.38 83.13,39.08 145,100.29 186.11,182.48 0.59,1.19 1.22,2.36 1.77,3.58 3.09,6.83 3.15,7 -3.92,10.2 q -37.2,17.07 -74.49,34 c -9.29,4.23 -9.32,4.21 -13.84,-4.79 -19.88,-39.63 -47,-73.38 -82.14,-100.48 -57.08,-44.05 -121.92,-65.15 -193.81,-61.31 -74,3.94 -138,32.58 -191.12,84.59 A 274.63,274.63 0 0 0 954.16,463 c -1.7,2.8 -3.45,5.6 -5.88,9.58 z"
       id="path18"
       style="stroke-width:13.4541" />
    <path
       class="cls-2"
       d="m 1303.15,626.66 c -1.28,56.86 -24.64,103.26 -67.83,139.76 -18.07,15.27 -39.53,22.91 -63.4,23.64 -14.93,0.46 -27.31,-5 -38,-15 -15.19,-14.2 -24.8,-32.07 -32.41,-51.06 -9.53,-23.76 -13.2,-48.74 -14.12,-74.19 -0.15,-4.33 0.12,-8.67 0,-13 -1.75,-47.35 17.38,-86.73 47.07,-121.8 16.48,-19.47 36.63,-33.91 62,-39.78 a 139.41,139.41 0 0 1 17.72,-2.85 c 22.24,-2.21 38.38,8.52 51.43,25.09 18.14,23 28.25,49.63 33.39,78.22 a 272.74,272.74 0 0 1 4.15,50.97 z"
       id="path20"
       style="stroke-width:13.4541" />
    <path
       class="cls-3"
       d="m 2098.36,2069.79 q -39.51,0 -79,0 c -2.33,0 -4.68,0.1 -7,-0.07 -6.23,-0.44 -6.87,-1 -5.89,-7.38 q 6.46,-42.5 13.27,-84.92 15.59,-98.2 31.26,-196.41 15.67,-98.21 31.29,-196.4 19.38,-121.89 38.71,-243.79 15.7,-98.7 31.48,-197.38 14.22,-89.32 28.36,-178.66 c 1.49,-9.36 1.44,-9.47 10.86,-11.08 q 85.71,-14.6 171.45,-29.09 a 36.08,36.08 0 0 1 5,-0.59 c 5.5,-0.14 6.64,0.85 5.84,6.34 -2.37,16.15 -5,32.26 -7.54,48.38 q -16.57,104.13 -33.18,208.24 -15.64,98.2 -31.3,196.4 -18.36,115.48 -36.66,231 -15.7,98.7 -31.47,197.39 -15.45,97.21 -30.78,194.46 c -2.81,17.76 -5.54,35.54 -8.48,53.29 -1.64,9.93 -2.09,10.26 -12.19,10.29 q -42.04,0.05 -84.03,-0.02 z"
       id="path22"
       style="stroke-width:13.4541" />
    <path
       class="cls-3"
       d="m 3619.63,1726.63 q 0,-155.43 0,-310.86 c 0,-14.66 0,-14.74 14.08,-17.13 q 29.05,-5 58.14,-9.67 c 8.42,-1.37 9.42,-0.65 9.47,7.87 0.14,25 0.07,50 0.07,75 q 0,71 0,141.94 c 0,12.64 0,12.64 11.74,7.32 32,-14.58 65.33,-22.57 100.76,-20.94 q 101.59,4.68 152.39,92.63 c 17.56,30.47 26.71,63.75 30.92,98.5 4.67,38.63 4.13,77.09 -4.29,115.2 -9.55,43.26 -28.41,81.71 -60.53,112.83 -30.45,29.49 -67.37,45.92 -108.91,52.7 -31.84,5.19 -63.72,3.32 -95.61,0.65 -31.3,-2.63 -61.91,-9.07 -92.32,-16.65 -2.91,-0.72 -5.77,-1.66 -8.68,-2.34 -4.89,-1.15 -7.51,-3.91 -7.23,-9.16 0.16,-3 0,-6 0,-9 z m 81.76,122.37 q 0,66.48 0,133 c 0,11.66 0.12,11.45 11.79,14.25 a 242.21,242.21 0 0 0 79.44,5.67 c 50.42,-4.7 87.8,-29 108.53,-76.32 a 156.19,156.19 0 0 0 9.77,-31.45 c 7.43,-36.34 7,-72.76 1.08,-109.24 -3.24,-19.88 -8.72,-39 -18.61,-56.68 -17,-30.38 -42.23,-49.18 -76.93,-54.59 -39,-6.07 -73.73,5 -106.08,26.16 -6.88,4.5 -9.23,10.11 -9.17,18.29 0.36,43.6 0.18,87.25 0.18,130.91 z"
       id="path24"
       style="stroke-width:13.4541" />
    <path
       class="cls-3"
       d="m 3572.89,1902.87 q 0,69 0,138 c 0,2.67 0.08,5.34 0,8 -0.36,7 -0.92,7.83 -8,9 -15.11,2.54 -30.25,4.83 -45.38,7.26 -39.18,6.32 -78.61,10.58 -118.3,10.16 -33,-0.34 -65.91,-3.16 -97.68,-13.23 -33.8,-10.71 -62,-28.91 -80.16,-60.53 -9.81,-17.14 -14.36,-35.84 -15.86,-55.26 -0.95,-12.26 -1.16,-24.65 0.54,-36.92 6.2,-44.7 32.18,-74.92 70.69,-95.73 22.29,-12 46.56,-17.75 71.4,-21.55 43.32,-6.63 86.33,-4 129.18,4 2.62,0.49 5.23,1.06 7.86,1.48 3.8,0.61 5.65,-1.24 5.75,-4.94 0.68,-24.46 -0.14,-48.79 -10.29,-71.58 -10.86,-24.38 -30.06,-39.28 -55.44,-46.71 -17.88,-5.24 -36.21,-4.83 -54.54,-4.81 -33.54,0 -66.34,5.17 -98.59,14.14 -1.29,0.36 -2.63,0.55 -3.87,1 -4.69,1.73 -6.79,-0.21 -7.47,-4.84 -1.73,-11.86 -3.63,-23.69 -5.41,-35.55 -0.85,-5.59 -1.7,-11.19 -2.34,-16.82 -0.88,-7.74 -0.57,-8.48 6.68,-11 14.87,-5.06 30.26,-8 45.76,-10.34 33,-4.94 66.23,-7.23 99.59,-5.84 35.34,1.47 69.47,7.93 100.27,26.73 28.34,17.3 46.91,42 56,73.83 a 262.72,262.72 0 0 1 9.65,71.08 c 0.07,43.67 -0.04,87.32 -0.04,130.97 z m -79.89,29.49 c 0,-19.33 0.07,-38.65 0,-58 -0.05,-8.74 -0.7,-9.39 -9,-11.7 -1.6,-0.44 -3.24,-0.75 -4.87,-1.09 -34.5,-7.14 -69.27,-9.27 -104.3,-5.09 -21.07,2.51 -41.22,7.86 -58.66,20.81 -16.83,12.49 -26.36,28.86 -26.68,50.07 a 95.71,95.71 0 0 0 3.71,27.63 c 4.42,15.54 13.87,27.09 28,34.9 a 109.38,109.38 0 0 0 33.81,11.87 c 43.51,7.82 86.95,4.12 130.32,-1.4 7.52,-1 7.69,-1.64 7.74,-10.05 0.05,-19.31 -0.07,-38.63 -0.07,-57.95 z"
       id="path26"
       style="stroke-width:13.4541" />
    <path
       class="cls-3"
       d="m 3014.89,1656.73 q 0,121.49 0,243 c 0,20.07 1.61,39.93 7.9,59.18 10,30.56 27.7,41.44 57.85,43 30.85,1.61 60.28,-4.78 88.57,-16.87 1.23,-0.53 2.44,-1.08 3.65,-1.63 3.66,-1.66 5.72,-0.34 6.42,3.46 1,5.24 2,10.48 2.89,15.72 2.19,12.47 4.45,24.93 6.47,37.42 1.44,8.92 0.82,10 -7.56,13.74 -25.22,11.17 -51.83,17.06 -79.09,20.26 -23,2.7 -45.88,1.18 -68.56,-3.37 -43.77,-8.79 -72.49,-34.55 -86.62,-76.82 -6.82,-20.38 -9.73,-41.49 -11.52,-62.75 -1.9,-22.59 -2.07,-45.25 -2.06,-67.91 q 0.14,-223.47 0,-446.93 c 0,-17.48 0.15,-14.62 14.77,-17.59 19.26,-3.93 38.6,-7.44 57.95,-10.92 8.21,-1.47 8.68,-1 8.84,7.08 0.18,8.67 0,17.33 0,26 z"
       id="path28"
       style="stroke-width:13.4541" />
    <path
       class="cls-3"
       d="m 2212.69,636.26 c 0.54,-59.8 25.43,-107.74 71.91,-144.74 17.49,-13.92 38.24,-20.13 60.46,-20.71 14.37,-0.38 26.63,5.47 36.91,15.28 16,15.3 26.25,34.24 33.82,54.8 9.45,25.66 12.33,52.36 13.15,79.48 1.63,54.09 -20.18,98.36 -57.38,135.79 -19.4,19.51 -43,30.93 -71.09,32.44 -16,0.87 -29.41,-3.87 -40.87,-14.86 -18.35,-17.58 -29.13,-39.56 -36.67,-63.33 -7.63,-24.03 -10.49,-48.78 -10.24,-74.15 z"
       id="path30"
       style="stroke-width:13.4541" />
    <path
       class="cls-3"
       d="m 3329.06,792.74 c 0,-6.33 -0.11,-12.66 0,-19 0.19,-8.65 6.53,-12.62 13.81,-7.68 3.83,2.6 5.95,2.36 9.54,0.62 8,-3.87 16,-4.78 23,2.3 2.51,2.57 4.6,1.85 7,0.12 4.7,-3.45 9.84,-5.45 15.81,-5.13 8.23,0.45 12.86,3.69 13.72,11.65 1.45,13.25 0.66,26.6 0.41,39.91 -0.08,4.42 -3.27,5.33 -6.94,5.28 -3.67,-0.05 -7.75,-0.09 -7.9,-5.31 -0.21,-7.32 -0.15,-14.65 -0.2,-22 0,-2 0.12,-4 -0.05,-6 -0.31,-3.83 0.91,-8.72 -3.91,-10.33 -4,-1.33 -6.6,2.29 -9.4,4.56 -3.89,3.16 -5.54,7.21 -5.4,12.26 0.18,6.65 0.2,13.33 -0.12,20 -0.27,5.63 -1.89,6.85 -7.49,6.82 -5.6,-0.03 -7.32,-1.26 -7.5,-6.79 -0.28,-9 -0.05,-18 -0.22,-27 -0.06,-3.58 0.48,-8 -3.49,-9.72 -3.97,-1.72 -6.64,1.93 -9.45,4.13 -4.27,3.33 -5.93,7.7 -5.75,13.12 0.22,6.65 -0.05,13.32 -0.07,20 0,4.79 -2.77,6.26 -7.08,6.29 -5.87,0 -7.89,-1.11 -8.11,-6.16 -0.33,-7.31 -0.09,-14.65 -0.09,-22 z"
       id="path32"
       style="stroke-width:13.4541" />
    <path
       class="cls-3"
       d="m 3137.43,960 a 29,29 0 0 1 -15.35,-3.77 c -7,-4.16 -8.9,-9.74 -4.67,-16.75 2.47,-4.11 3.59,-7.09 0.45,-11.51 -2.69,-3.8 -0.44,-7.79 2.87,-10.51 3.58,-2.94 3.92,-5.63 0.86,-9.19 a 18.94,18.94 0 0 1 -3.18,-6.15 c -4.64,-13.4 3.12,-26.05 17.13,-27.87 a 31.89,31.89 0 0 1 8.94,-0.09 c 7.24,1.14 14.43,2.23 21.79,1.75 2.38,-0.15 4.8,0.24 5.58,3.07 0.78,2.83 0.73,5.73 -2.27,6.84 -3.95,1.47 -4.3,4.21 -4.56,7.78 -1,13.54 -7.67,20.38 -20.95,22.13 -3.41,0.44 -9.44,-0.94 -9.14,3.34 0.36,5 6.42,2.41 10,2.81 4.27,0.49 8.67,0 12.92,0.54 9.22,1.23 13.76,7.89 12.05,17.11 a 20.66,20.66 0 0 1 -8.13,13.26 c -6.15,4.62 -14.24,7.21 -24.34,7.21 z m 4.07,-25.69 a 42.92,42.92 0 0 0 -5.89,0.37 6.65,6.65 0 0 0 -5.76,6.06 c -0.51,3.66 2.07,5.48 5.08,6.39 a 17.39,17.39 0 0 0 14.44,-1.56 c 3.09,-1.84 7.15,-3.9 5.87,-8.19 -1.16,-3.9 -5.47,-2.82 -8.68,-3.06 -1,-0.08 -2,-0.02 -5.06,-0.02 z m -8.59,-39.71 c 0.08,5.26 3.59,9.21 8.2,9.23 4.61,0.02 8.14,-4 8.24,-9.2 0.11,-5.47 -4,-10.07 -8.77,-9.85 -4.34,0.22 -7.75,4.56 -7.67,9.81 z"
       id="path34"
       style="stroke-width:13.4541" />
    <path
       class="cls-3"
       d="m 3231.31,791.92 c 0,-6.32 -0.07,-12.65 0,-19 0.06,-2.89 -0.63,-6.51 3.11,-7.63 3.74,-1.12 8.52,-2.13 11,1.7 2.48,3.83 4.24,2.74 7.14,1 8.72,-5.28 17.47,-6.61 25.5,1.31 2.64,2.6 4.69,1.49 6.93,-0.26 a 22.32,22.32 0 0 1 15.8,-5 c 7.89,0.55 13,4.22 13.47,12 0.75,12.94 0.37,26 0.31,38.93 0,4.49 -3.32,5.18 -6.95,5.24 -3.92,0 -7.63,-0.33 -7.8,-5.42 -0.22,-7 -0.16,-14 -0.28,-21 a 91.06,91.06 0 0 0 -0.45,-11 c -0.91,-6.51 -4.07,-7.78 -9.58,-3.87 -5.33,3.79 -9.31,8.29 -8.77,15.68 a 152,152 0 0 1 -0.08,19 c -0.29,5.54 -1.81,6.59 -7.69,6.57 -5.88,-0.02 -7.37,-1.05 -7.59,-6.68 -0.32,-8.32 -0.1,-16.65 -0.19,-25 a 34.86,34.86 0 0 0 -0.58,-7.93 c -0.89,-3.64 -3.61,-4.91 -6.86,-3 -6.11,3.69 -11.56,7.91 -11.29,16.26 0.22,6.65 0.22,13.33 -0.18,20 -0.32,5.36 -2.13,6.4 -7.95,6.35 -4.36,0 -7,-1.59 -7,-6.34 0,-7.32 0,-14.65 0,-22 z"
       id="path36"
       style="stroke-width:13.4541" />
    <path
       class="cls-3"
       d="m 4124.55,777.56 c 0,11 0.09,22 0,33 -0.1,10.19 -4.1,13 -13.8,8.93 -2.81,-1.18 -4.45,-1.21 -7.13,-0.1 -14.69,6.13 -27.05,0.56 -31.22,-14.44 -2.54,-9.14 -2.41,-18.48 2.28,-27.2 5.84,-10.85 14.55,-15.31 27.3,-14.08 7,0.69 7.12,0.69 7.3,-6.32 0.15,-5.66 -0.11,-11.33 0.14,-17 0.27,-5.91 1.57,-7 7.14,-7.18 6.05,-0.17 7.45,1.13 8,7.43 0.05,0.67 0,1.33 0,2 q -0.02,17.48 -0.01,34.96 z m -15.49,14.3 h 0.17 c 0,-1.66 0,-3.32 0,-5 -0.11,-5 -1.22,-9.31 -6.9,-10.66 -4.93,-1.17 -9.72,0.85 -12.69,5.75 -3.89,6.42 -3.79,13.31 -1.31,20.13 1.93,5.3 6,7.9 10.56,7.36 4.56,-0.54 9.38,-4.86 10.11,-9.66 0.38,-2.56 0.06,-5.26 0.06,-7.92 z"
       id="path38"
       style="stroke-width:13.4541" />
    <path
       class="cls-3"
       d="m 3743,881.83 c 7.89,-12.32 19.58,-5 29.89,-5.43 2.48,-0.1 3.42,2.89 4.11,5.13 1.67,5.4 3.09,10.89 4.92,16.24 1.15,3.36 1.17,7.29 4.26,9.9 3.25,-1.58 3.14,-5 4.14,-7.64 2.22,-5.92 4,-12 6.22,-17.92 2.22,-5.92 7.95,-8.11 13.6,-5.87 2.51,1 2.51,2.86 1.88,4.87 -1,3.17 -2.14,6.3 -3.33,9.41 -4.39,11.5 -9,22.93 -13.17,34.51 -1.78,4.94 -4.93,6.48 -9.85,6.46 -4.92,-0.02 -8.06,-1.9 -9.63,-6.8 -3.24,-10.14 -6.73,-20.2 -10.24,-30.26 -1.06,-3 -1.31,-6.54 -4.84,-9.35 -2.33,4.11 -5.86,6.14 -10.48,7.45 -5.68,1.61 -7.67,7 -7.78,12.72 -0.13,6.32 0.09,12.66 -0.26,19 -0.32,5.87 -2.34,7.37 -8.33,7.15 -5.39,-0.19 -6.83,-1.39 -6.92,-7.38 -0.2,-13.32 -0.12,-26.63 0,-40 0,-3.21 -0.5,-7.11 4.1,-7.91 4,-0.69 8.14,-1.08 9.84,4.12 0.09,0.51 0.87,0.77 1.87,1.6 z"
       id="path40"
       style="stroke-width:13.4541" />
    <path
       class="cls-3"
       d="m 3634.73,932.37 c -8.23,0.48 -15.86,-1.7 -23,-5.45 -5,-2.63 -5.34,-4.55 -2.41,-10.61 2.67,-5.51 3.51,-6 9.12,-3.44 a 49.18,49.18 0 0 0 14.2,4.5 c 5.8,0.74 10.7,-1.39 12.1,-4.9 1.49,-3.77 -0.49,-7.39 -6.48,-10.94 -6.86,-4.08 -14,-7.67 -20.4,-12.51 -5,-3.77 -8.43,-8.38 -8.71,-15 -0.36,-8.45 2.78,-15 10.3,-19 13.11,-7 26.29,-5.59 39.44,0 4.51,1.91 4.51,5.13 2.7,9 -1.69,3.65 -2.83,7.89 -8.46,5.6 a 45.27,45.27 0 0 0 -12.44,-3.53 c -3,-0.31 -6,-0.35 -8.84,0.89 -5.25,2.31 -6,7.17 -1.62,11 2,1.73 4.47,2.85 6.73,4.25 5.37,3.32 10.93,6.38 16.07,10 8.22,5.84 11.41,14.55 9.16,23.47 -2.25,8.92 -9.44,14.85 -19.45,16.15 -2.67,0.41 -5.35,0.38 -8.01,0.52 z"
       id="path42"
       style="stroke-width:13.4541" />
    <path
       class="cls-3"
       d="m 2969.05,629.84 c 6.78,-0.2 13.58,0.8 19.91,4.32 4.16,2.31 4.28,5.33 2.45,9.2 -1.73,3.67 -3.4,6.24 -8.26,4 -7.5,-3.49 -15.33,-4.13 -23.21,-0.88 -11.13,4.58 -16.45,14.34 -14.92,27.46 1.38,11.88 9.43,20.54 20.86,22.2 a 44.81,44.81 0 0 0 17.82,-0.94 c 3.83,-1 6.46,-0.43 7.45,4 0.94,4.15 1.42,7.44 -3.72,9.69 -18.83,8.26 -43.93,1.41 -54.17,-15.18 -11,-17.87 -7.27,-41.93 8.55,-55.29 7.82,-6.67 17.02,-8.72 27.24,-8.58 z"
       id="path44"
       style="stroke-width:13.4541" />
    <path
       class="cls-3"
       d="m 3397.66,902.62 c 0,-6.34 -0.17,-12.67 0,-19 0.25,-7.91 8,-12.38 13.31,-6.85 4.26,4.43 6.29,2.64 9.7,0.68 a 21.88,21.88 0 0 1 12.41,-3.16 c 7.8,0.44 13,4.4 13.38,12.11 0.63,13 0.25,26 0.29,39 0,5 -3.2,6 -7.31,6 -5.69,0.05 -7.48,-1.14 -7.69,-6.61 -0.33,-8.32 0,-16.66 -0.23,-25 -0.11,-4.12 1.55,-9.64 -3.52,-11.48 -5.24,-1.9 -8.17,3.24 -11.57,6.24 -3,2.66 -3.57,6.22 -3.56,10 0,6.67 0.15,13.34 -0.14,20 -0.24,5.58 -1.83,6.8 -7.47,6.84 -5.64,0.04 -7.3,-1.16 -7.53,-6.79 -0.29,-7.31 -0.07,-14.65 -0.07,-22 z"
       id="path46"
       style="stroke-width:13.4541" />
    <path
       class="cls-3"
       d="m 2967.06,902.45 c 0,-6 -0.08,-12 0,-17.94 0.15,-8.88 5.89,-12.84 13.41,-8 4.33,2.79 6.84,2.34 10.49,0.2 a 19.36,19.36 0 0 1 10.55,-2.45 c 7.76,0.23 13,3.79 14.11,11.42 2,13.5 0.89,27.17 0.62,40.77 -0.08,4.48 -3.65,5 -7.19,4.94 -3.81,0 -7.68,-0.26 -7.84,-5.39 -0.2,-6.64 -0.13,-13.29 -0.18,-19.93 a 54.19,54.19 0 0 0 0,-6 c -0.51,-4.31 1.8,-9.92 -4.28,-12 -4.1,-1.39 -12.65,5.48 -13.62,11.1 -0.73,4.21 -0.45,8.6 -0.54,12.91 -0.08,4 0.14,8 -0.1,12 -0.36,6.14 -2,7.48 -8,7.31 -5.59,-0.16 -7.08,-1.35 -7.28,-7 -0.26,-7.3 -0.07,-14.61 -0.07,-21.92 z"
       id="path48"
       style="stroke-width:13.4541" />
    <path
       class="cls-3"
       d="m 2949,788 c 0,-7.64 0.13,-15.29 0,-22.92 -0.18,-8.8 -0.81,-9.31 -9.93,-9.62 -2.32,-0.08 -4.66,0.07 -7,-0.13 -5.84,-0.52 -6.92,-1.87 -7,-7.33 -0.06,-4.58 2,-6.82 6.51,-6.83 q 25.41,0 50.82,0 c 4.35,0 5.53,2.79 5.53,6.62 0,4.06 -0.81,7.36 -5.8,7.49 -2.32,0.06 -4.65,0.09 -7,0.17 -9.87,0.33 -10.52,0.89 -10.6,11.11 -0.12,13.28 0,26.57 0,39.86 0,2.33 0.08,4.66 -0.08,7 -0.46,6.29 -1.86,7.56 -7.93,7.42 -5.66,-0.13 -7.2,-1.28 -7.37,-6.9 -0.26,-8.63 -0.07,-17.28 -0.07,-25.91 z"
       id="path50"
       style="stroke-width:13.4541" />
    <path
       class="cls-3"
       d="m 3813.06,792.53 c 0,-6 -0.08,-12 0,-17.95 0.15,-9.44 6.33,-13.62 13.93,-8.42 3.93,2.7 6.19,2.33 9.52,0.39 a 19.82,19.82 0 0 1 9.53,-2.55 c 9.83,-0.3 15.45,3.79 16.06,13.65 0.75,12.25 0.26,24.58 0.32,36.87 0,4.74 -2.65,6.32 -7,6.35 -5.78,0 -7.78,-1.12 -8,-6.28 -0.33,-9 0,-17.94 -0.27,-26.91 -0.11,-3.83 0.84,-8.79 -3.85,-10.39 -4.38,-1.5 -7.09,2.61 -10.08,5.12 -3.59,3 -4.81,6.93 -4.73,11.53 0.12,6.64 0.19,13.3 -0.12,19.94 -0.26,5.72 -1.77,6.9 -7.33,7 -6.09,0.06 -7.72,-1.25 -7.93,-7.37 -0.24,-7 -0.06,-14 -0.06,-20.94 z"
       id="path52"
       style="stroke-width:13.4541" />
    <path
       class="cls-3"
       d="m 3297.61,711.76 c -16.27,-0.3 -27.6,-13 -27.16,-30.55 0.43,-16.72 12.47,-28.82 28.37,-28.49 16.31,0.34 28.39,13.33 28,30.13 -0.39,16.8 -12.94,29.22 -29.21,28.91 z m 13.36,-29.4 c 0,-9.44 -6.32,-17.79 -13,-17.31 -6.68,0.48 -12.85,9.73 -12.3,18.25 0.58,9.13 6.66,16.58 13.19,16.18 6.68,-0.42 12.14,-8.16 12.14,-17.12 z"
       id="path54"
       style="stroke-width:13.4541" />
    <path
       class="cls-3"
       d="m 3431.64,682.08 c 0,-6 -0.11,-12 0,-18 0.08,-3.19 -1,-7.35 2.69,-8.92 3.94,-1.65 8.79,-2.52 11.93,1.45 2.33,3 4.15,2.52 6.67,1 4.61,-2.87 9.52,-4.7 15.09,-4.12 7.29,0.77 12.19,4.56 12.57,11.83 0.66,12.93 0.35,25.91 0.35,38.86 0,5 -3.42,5.79 -7.47,5.81 -4.05,0.02 -7.55,-0.58 -7.66,-5.59 -0.18,-8.64 0,-17.28 -0.29,-25.92 -0.12,-4.1 1.56,-9.62 -3.51,-11.44 -4.67,-1.68 -7.6,3 -10.81,5.74 -3.21,2.74 -4.44,6.39 -4.36,10.64 0.13,6.32 0.18,12.64 -0.08,19 -0.25,6.47 -1.62,7.64 -7.69,7.59 -5.9,0 -7.15,-1.16 -7.39,-7.94 -0.24,-6.78 0,-13.3 0,-19.94 z"
       id="path56"
       style="stroke-width:13.4541" />
    <path
       class="cls-3"
       d="m 2994.94,684 c -0.06,-17 9.67,-29.44 24.82,-31.12 18.16,-2 27.1,12.67 26.63,26.29 -0.14,4.1 -2.34,6 -6.31,6.1 -7,0.09 -14,0 -21,0.24 -2.85,0.08 -6.65,-0.65 -7.5,3.21 -0.91,4.11 1.8,6.94 5.17,8.83 6.26,3.52 12.27,1.49 18.14,-1.24 3.22,-1.5 6,-2.62 8.42,1.54 3,5.29 2.66,7.44 -3,10 a 41.64,41.64 0 0 1 -24.38,3.45 C 3002.84,709.26 2995,698.9 2994.94,684 Z m 25.33,-8.39 c 1.55,0 2.86,0.06 4.17,0 2.27,-0.12 5,0.06 5.75,-2.65 0.92,-3.24 -1,-5.63 -3.52,-7.42 a 8.39,8.39 0 0 0 -5.62,-1.27 c -4.32,0.34 -9.37,4.16 -9,7.63 0.58,5.43 5.34,3.16 8.22,3.75 z"
       id="path58"
       style="stroke-width:13.4541" />
    <path
       class="cls-3"
       d="m 3609.88,681.71 c 0.24,17.24 -11.54,30 -27.79,30.06 -16.25,0.06 -28.58,-12.61 -28.71,-29.41 -0.13,-16.52 12.53,-29.67 28.53,-29.66 15.78,0.01 27.75,12.43 27.97,29.01 z m -15.2,0.56 c -0.49,-4.93 -1.68,-9 -4.58,-12.47 -5.61,-6.65 -12.28,-6.31 -17.3,0.88 a 20.41,20.41 0 0 0 -3.19,16.18 c 1.4,7.17 6.83,12.64 12.28,12.64 5.21,0 9.76,-4.54 11.77,-11.88 0.52,-1.91 0.75,-3.9 1.02,-5.35 z"
       id="path60"
       style="stroke-width:13.4541" />
    <path
       class="cls-3"
       d="m 3692,652.63 c 14.88,-0.19 21,5.22 22.24,18.72 0.43,4.62 0.15,9.31 0.31,14 0.16,4.92 -0.57,9.89 2.23,14.56 1.84,3.07 0.94,6.71 -1.19,9.37 -2.52,3.12 -6.28,2.28 -9.2,0.78 -4.58,-2.36 -8.7,-2.44 -13.16,0.11 a 15,15 0 0 1 -7.74,1.58 c -8.23,-0.11 -14.79,-5 -16.13,-12.18 -1.43,-7.58 2.18,-14.38 9.83,-17.54 4.59,-1.9 9.47,-3.12 14.21,-4.67 3,-1 5.49,-2.49 5.31,-6.23 -0.14,-2.83 -1.09,-5.31 -3.8,-6.51 -3,-1.32 -6.19,-1.06 -8.23,1.52 a 14.11,14.11 0 0 1 -10.2,5.44 c -3.87,0.41 -5.58,-1.46 -5.38,-5.21 0.27,-5.25 3.34,-8.51 7.83,-10.65 4.49,-2.14 9.62,-2.63 13.07,-3.09 z m -1.88,46.85 a 8.27,8.27 0 0 0 8.68,-7.69 c 0.07,-2.06 -0.2,-4.09 -2.82,-4.45 -4.26,-0.6 -10.63,3.53 -10.67,6.93 -0.01,3.2 1.77,4.84 4.84,5.21 z"
       id="path62"
       style="stroke-width:13.4541" />
    <path
       class="cls-3"
       d="m 3148.82,682.64 c 0.2,-15.47 8.47,-26.5 21.95,-29.26 16.69,-3.42 29.89,8.35 28.63,25.26 -0.35,4.56 -2.27,6.69 -6.73,6.72 -6.65,0 -13.31,0 -20,0.2 -2.88,0.08 -6.61,-0.41 -7.37,3.47 -0.81,4.17 1.8,7 5.43,8.53 6.28,2.62 12.43,1.33 18.34,-1.4 3.12,-1.45 5.56,-1.59 7.59,1.82 3,5 2.37,7.52 -3.2,10.12 a 40.29,40.29 0 0 1 -25.36,3 c -12.93,-2.49 -19.49,-12.45 -19.28,-28.46 z m 26.94,-7 c 2.57,-0.48 6.48,1.27 8.2,-2.69 0.8,-1.85 -0.33,-3.91 -1.53,-5.47 -2.5,-3.25 -5.95,-3.78 -9.72,-2.89 a 8.9,8.9 0 0 0 -2.7,1.13 c -2.6,1.62 -5,3.74 -4.22,7 0.78,3.26 4.05,2.63 6.57,2.85 0.97,0.18 1.96,0.11 3.4,0.11 z"
       id="path64"
       style="stroke-width:13.4541" />
    <path
       class="cls-3"
       d="m 3843.09,681.83 c 0.13,17.07 -11.77,29.84 -27.9,29.93 -16.36,0.08 -28.12,-12.28 -28.12,-29.58 0,-16.95 12.23,-29.72 28.3,-29.53 15.72,0.18 27.63,12.68 27.72,29.18 z m -15.82,-0.68 a 18.22,18.22 0 0 0 -2.19,-9.09 c -5,-9 -14.24,-9.31 -19.7,-0.65 -2.22,3.53 -2.75,7.44 -2.69,11.47 0.12,9 5.88,16.74 12.41,16.68 6.53,-0.06 12,-7.7 12.17,-18.41 z"
       id="path66"
       style="stroke-width:13.4541" />
    <path
       class="cls-3"
       d="m 3495.3,681.45 c 0,-6 -0.11,-12 0,-18 0.09,-3.17 -1,-7.29 3.2,-8.56 3.75,-1.14 8.52,-2.18 11.24,1.23 3.11,3.9 5.34,2.22 8.38,0.63 a 26.24,26.24 0 0 1 7.44,-2.69 c 12.07,-2.09 18.69,3 19.14,15.25 0.4,11 0.27,21.95 0,32.93 -0.13,6.58 -1.49,7.65 -7.6,7.69 -6.11,0.04 -7.61,-1.09 -7.79,-7.51 -0.27,-9 -0.05,-18 -0.17,-26.93 0,-3.24 0.58,-7.2 -3.31,-8.64 -3.64,-1.35 -6.11,1.71 -8.72,3.7 a 15.27,15.27 0 0 0 -6.37,13.8 187.17,187.17 0 0 1 -0.09,19 c -0.29,5.6 -1.75,6.62 -7.62,6.63 -5.87,0.01 -7.43,-1 -7.66,-6.58 -0.32,-7.3 -0.08,-14.63 -0.08,-21.94 z"
       id="path68"
       style="stroke-width:13.4541" />
    <path
       class="cls-3"
       d="m 3359.76,932.26 c -15.89,-0.16 -27.75,-12.43 -27.93,-28.89 -0.19,-17.07 12.41,-29.64 29.47,-29.39 15.65,0.24 27.53,13 27.32,29.4 -0.21,17.12 -12.12,29.04 -28.86,28.88 z M 3373,903.41 c 0.13,-9.33 -5.86,-17.45 -12.81,-17.37 -6.67,0.08 -12.9,8.85 -12.58,17.7 0.34,9 6.18,16.41 12.88,16.25 6.7,-0.16 12.34,-7.63 12.51,-16.58 z"
       id="path70"
       style="stroke-width:13.4541" />
    <path
       class="cls-3"
       d="m 3803.35,793.46 c -0.24,17.09 -11.58,28.63 -28,28.55 -16.31,-0.09 -28.3,-12.92 -28,-30 0.3,-17.08 12.23,-28.65 29.36,-28.31 16.2,0.36 26.89,12.3 26.64,29.76 z m -15.77,-1.27 a 38.7,38.7 0 0 0 -0.49,-5 c -1.31,-6.48 -5.6,-10.92 -10.78,-11.36 -5.48,-0.47 -10.7,3.8 -12.54,10.58 a 24.35,24.35 0 0 0 -0.73,6.86 c 0.18,9 6,16.55 12.55,16.49 6.87,-0.02 11.89,-6.99 11.99,-17.57 z"
       id="path72"
       style="stroke-width:13.4541" />
    <path
       class="cls-3"
       d="m 3089.09,932.27 c -19.49,0.07 -29,-10.24 -28.24,-29.85 0.69,-18 13.08,-29.68 30.22,-28.38 13,1 23.16,13.82 21.29,26.65 -0.54,3.73 -2.73,5 -6.17,5 -7,0 -14,-0.07 -21,0.16 -3.09,0.1 -7.3,-1 -8,3.81 -0.57,4.13 2.12,6.94 5.47,8.76 5.85,3.16 11.65,1.52 17.3,-0.86 3.6,-1.51 6.93,-2.61 9.33,1.95 2.25,4.29 1.76,6.61 -2.64,8.88 a 35.51,35.51 0 0 1 -17.56,3.88 z m -2.54,-36.09 a 29.21,29.21 0 0 0 3,0 c 2.52,-0.24 6,0.52 6.48,-2.94 0.53,-3.7 -1.91,-6.11 -5.49,-7.12 a 11.38,11.38 0 0 0 -6.81,0.14 c -3.41,1.14 -6.12,3.43 -5.62,7.12 0.46,3.48 4,2.47 6.51,2.8 a 14.36,14.36 0 0 0 1.93,0 z"
       id="path74"
       style="stroke-width:13.4541" />
    <path
       class="cls-3"
       d="m 3512.68,874 c 16.4,0 28.38,12.49 28.17,29.44 -0.22,17.26 -11.87,29 -28.75,28.84 -16.34,-0.11 -27.21,-11.62 -27.27,-28.9 -0.07,-17.77 10.92,-29.38 27.85,-29.38 z m -12.78,29.5 c 0.22,9.08 5.85,16.49 12.54,16.52 7.2,0 12.9,-7.69 12.72,-17.24 -0.17,-8.84 -5.95,-16.56 -12.49,-16.69 -6.85,-0.15 -13.01,8.24 -12.77,17.39 z"
       id="path76"
       style="stroke-width:13.4541" />
    <path
       class="cls-3"
       d="m 3088.05,822 c -16.58,-0.11 -25.78,-8 -28.19,-22.79 -2.36,-14.56 5.82,-30.11 18.24,-34.24 a 28.52,28.52 0 0 1 17.71,-0.28 c 8.35,2.65 13,9 14.78,17.39 2.31,10.71 0.26,13.19 -10.57,13.34 -6.32,0.09 -12.66,-0.17 -19,0.21 -5.51,0.34 -6.92,3.48 -3.83,8 a 13.42,13.42 0 0 0 13.87,5.95 46.2,46.2 0 0 0 8.53,-2.65 c 6,-2.17 7.19,-1.79 9.25,3.13 2,4.73 1.27,6.15 -4.77,8.76 -5.54,2.39 -11.38,3.57 -16.02,3.18 z m -3.13,-36.4 c 1.68,0 3,0.09 4.34,0 2.31,-0.2 4.91,-0.19 5.43,-3.21 0.52,-3.02 -1.11,-5.06 -3.54,-6.57 a 8.38,8.38 0 0 0 -5.73,-1.14 c -4.55,0.61 -9.55,5 -8.63,8.17 1.32,4.58 5.52,2.22 8.13,2.78 z"
       id="path78"
       style="stroke-width:13.4541" />
    <path
       class="cls-3"
       d="m 3006.08,822 c -10.87,0.47 -19.88,-3 -24.89,-13.16 -5.81,-11.71 -4.61,-23.33 2.6,-34.1 6.76,-10.08 16.82,-12.51 28.14,-10.59 11,1.87 19.72,15.79 17.23,26.75 -0.76,3.32 -2.94,4.28 -5.76,4.37 -6,0.17 -12,0.13 -18,0.2 a 54,54 0 0 0 -7,0.23 c -4.42,0.63 -5.49,3 -3.41,7 a 13.37,13.37 0 0 0 14.3,6.88 34.33,34.33 0 0 0 9.4,-3.18 c 4.43,-2.22 6.66,-0.54 8.56,3.45 2.16,4.56 0.09,6.84 -3.79,8.52 a 39.71,39.71 0 0 1 -17.38,3.63 z m -1.92,-36.3 a 27.28,27.28 0 0 0 3,0 c 2.2,-0.24 5.17,0.69 6.07,-2.14 1.05,-3.27 -0.87,-5.77 -3.55,-7.5 a 8.79,8.79 0 0 0 -9.48,-0.26 c -3,1.65 -6,4 -5,7.72 0.88,3.33 4.49,1.8 7,2.19 a 11,11 0 0 0 1.96,-0.01 z"
       id="path80"
       style="stroke-width:13.4541" />
    <path
       class="cls-3"
       d="m 3923.87,932.25 c -19.16,1.54 -29.16,-13.43 -28.62,-28.48 0.67,-18.22 13.12,-30.7 30.31,-29.76 13.07,0.71 23.17,13.4 21.25,26.36 -0.65,4.36 -3.26,5.35 -7,5.36 -7,0 -14,0 -21,0.14 -2.52,0.06 -5.76,-0.69 -7,2.51 -1.24,3.2 0.7,5.8 2.88,8 3.95,3.94 8.89,4.36 14,3.32 a 25.85,25.85 0 0 0 7.43,-2.82 c 4.41,-2.48 6.61,-0.66 8.53,3.32 2.17,4.49 0.32,6.68 -3.63,8.54 a 37.2,37.2 0 0 1 -17.15,3.51 z m -2.82,-36.06 v -0.06 c 1.3,0 2.62,0.09 3.91,0 2.57,-0.23 5.53,-0.06 5.76,-3.78 0.18,-3 -1.47,-4.92 -4,-6.16 a 9.84,9.84 0 0 0 -7.64,-0.36 c -3.7,1.23 -6.88,3.64 -6.36,7.62 0.52,3.98 4.68,2.26 7.34,2.75 a 5.33,5.33 0 0 0 0.99,-0.01 z"
       id="path82"
       style="stroke-width:13.4541" />
    <path
       class="cls-3"
       d="m 3194.42,822 c -16.31,0.18 -28.83,-12.29 -29,-28.91 -0.17,-16.62 12,-29.32 28.38,-29.36 16.38,-0.04 27.79,11.38 28.28,28.2 0.49,17.07 -11.34,29.89 -27.66,30.07 z m 12.22,-29.63 c -0.19,-9 -5.94,-16.49 -12.68,-16.53 -6.91,-0.05 -12.44,7.07 -12.7,16.37 -0.26,9.3 5.64,17.58 12.55,17.66 6.75,0.13 13.01,-8.45 12.83,-17.49 z"
       id="path84"
       style="stroke-width:13.4541" />
    <path
       class="cls-3"
       d="m 3654.06,763.72 c 15,0 20.4,5.18 20.8,20.2 0.12,4.31 -0.05,8.63 0.06,13 0.11,4.58 -0.48,9.19 2.36,13.46 2,3.08 0.78,6.64 -1.18,9.33 -2.11,2.88 -5.8,2.29 -8.24,1 -5.59,-3 -10.39,-1.8 -16,0.24 -9.38,3.44 -18.39,-0.81 -21.44,-9 -3.05,-8.19 1.32,-16.47 11,-20.31 2.15,-0.86 4.44,-1.36 6.65,-2.06 a 56.9,56.9 0 0 0 6.61,-2.2 c 4.17,-1.9 5.49,-5.89 3.45,-9.79 -1.95,-3.73 -6.45,-4.7 -10.11,-1.37 -3,2.77 -5.84,5.27 -10.1,5.64 -5.7,0.5 -8,-2.46 -5.89,-7.9 1.67,-4.29 5,-6.88 9.22,-8.51 4.22,-1.63 8.5,-1.64 12.81,-1.73 z m 4.94,38.95 c -0.12,-2.63 -1,-4.41 -4.1,-4.42 -5.05,0 -9.65,3.31 -9.26,6.92 0.34,3.17 2.37,4.56 5.42,4.61 4.4,0.07 7.94,-3.08 7.94,-7.11 z"
       id="path86"
       style="stroke-width:13.4541" />
    <path
       class="cls-3"
       d="m 3697,932.26 c -20.31,0.09 -29.43,-10.55 -28.08,-31.81 1.1,-17.32 15,-28.72 32,-26.28 11.94,1.71 20.75,14.67 18.38,26.68 -0.75,3.8 -3.11,4.8 -6.38,4.83 -7,0.08 -14,0 -21,0.17 -2.53,0.06 -5.93,-1 -7.16,2 -1.45,3.5 0.93,6.33 3.36,8.69 4.33,4.18 9.62,4.14 15,2.88 a 61.3,61.3 0 0 0 7.47,-2.8 c 3.67,-1.38 5.55,0.67 7,3.64 1.63,3.25 1,5.69 -2.22,7.52 a 34.53,34.53 0 0 1 -18.37,4.48 z m -2.28,-36.09 a 24.83,24.83 0 0 0 3,0 c 2.48,-0.31 5.91,0.6 6.27,-3.22 0.31,-3.33 -1.82,-5.56 -4.81,-6.87 a 9.32,9.32 0 0 0 -8.65,0.42 c -2.7,1.52 -5.34,3.69 -4.57,7 0.77,3.31 4.26,2.34 6.77,2.66 a 14.83,14.83 0 0 0 1.95,0.01 z"
       id="path88"
       style="stroke-width:13.4541" />
    <path
       class="cls-3"
       d="m 3352.69,647.22 c -0.19,3.66 1,6.75 5.83,7 3.68,0.19 5.25,2.26 5.24,5.86 -0.01,3.6 -1.84,5.52 -5.43,5.72 -5,0.29 -5.69,3.75 -5.71,7.7 0,9.65 0.1,19.31 -0.19,29 -0.19,6.4 -1.77,7.63 -7.81,7.5 -5.62,-0.12 -7,-1.18 -7.2,-7.07 -0.28,-8.32 -0.08,-16.64 -0.14,-25 0,-5.51 1.09,-11.15 -7,-13.09 -3.89,-0.93 -3.42,-7.24 1.1,-9.18 5,-2.15 5.77,-5.49 6,-10.15 1,-23.66 21,-27.56 37.31,-21.92 2.69,0.93 5.07,2.53 3.78,5.84 -1.29,3.31 -2,7.49 -7.12,6.7 -1.3,-0.2 -2.51,-0.92 -3.8,-1.2 -9.55,-2.11 -14.89,2.16 -14.86,12.29 z"
       id="path90"
       style="stroke-width:13.4541" />
    <path
       class="cls-3"
       d="m 3576.57,842.23 a 30.08,30.08 0 0 1 11.31,1.93 c 2.64,0.94 6.73,1.46 5,5.69 -1.37,3.43 -2.56,8.07 -8.2,6.78 a 37.61,37.61 0 0 0 -4.89,-0.93 c -8.76,-0.78 -13.19,3.41 -13.06,12.07 0,3.78 1.21,6.52 5.33,7.12 3.23,0.47 5.77,1.48 5.67,5.49 -0.09,3.69 -1.88,5.47 -5.46,5.69 -5,0.31 -5.67,3.79 -5.69,7.73 0,10 0.11,20 -0.15,29.94 -0.17,6.52 -2.27,8 -8.69,7.66 -4.61,-0.22 -6.48,-2.47 -6.45,-6.94 0.06,-9.64 0,-19.29 -0.05,-28.94 0,-4.32 0.32,-8.34 -5.63,-10 -4,-1.15 -4.54,-7.24 -0.92,-8.4 7.11,-2.27 6.17,-7.57 6.86,-12.74 2.03,-15.02 10.04,-22.13 25.02,-22.15 z"
       id="path92"
       style="stroke-width:13.4541" />
    <path
       class="cls-3"
       d="m 3973.07,681.81 c 0,-6.33 -0.15,-12.66 0,-19 0.25,-8.35 6.79,-12 13.14,-6.6 3.4,2.88 5.16,2.78 8.36,0.84 a 23.22,23.22 0 0 1 7.39,-2.86 c 12,-2.39 19.08,2.25 20,14.37 0.88,11.59 0.58,23.3 0.35,34.94 -0.11,5.45 -2,6.57 -7.8,6.46 -5.8,-0.11 -7.14,-1.16 -7.36,-7 -0.3,-8 -0.07,-16 -0.17,-24 a 35,35 0 0 0 -0.63,-7.94 c -1.15,-4.68 -4.25,-6 -8.19,-3.24 -6.42,4.51 -11.77,9.69 -10.91,18.76 0.53,5.61 0,11.32 0,17 0,4.73 -2.57,6.37 -7,6.37 -4.43,0 -7.15,-1.33 -7.15,-6.17 q 0,-11 0,-22 z"
       id="path94"
       style="stroke-width:13.4541" />
    <path
       class="cls-3"
       d="m 3055.07,682.05 c 0,-6.33 -0.14,-12.67 0,-19 0.23,-8.37 6.84,-12.32 13,-7 3.77,3.28 5.86,3 9.21,0.74 a 17.69,17.69 0 0 1 4.51,-2.11 c 12.29,-3.91 20.32,1 22,13.71 1.56,11.6 0.77,23.29 0.54,34.94 -0.11,5.59 -1.84,6.66 -7.65,6.61 -5.81,-0.05 -7.27,-1.06 -7.5,-6.77 -0.32,-7.65 -0.08,-15.32 -0.19,-23 a 43.51,43.51 0 0 0 -0.63,-8.93 c -1.08,-4.78 -4,-6.11 -8.09,-3.52 -6.36,4.07 -11.52,9 -11,17.62 0.38,6 0,12 0,18 0,4.57 -2.19,6.61 -6.76,6.59 -5.43,0 -7.13,-1.21 -7.36,-6.91 -0.28,-7 -0.06,-14 -0.06,-21 z"
       id="path96"
       style="stroke-width:13.4541" />
    <path
       class="cls-3"
       d="m 3238.35,873.89 a 67,67 0 0 1 7,0.38 c 8.3,1.29 13.06,6.24 13.65,14.64 0.37,5.29 0.07,10.63 0.19,15.94 0.13,5.58 -0.71,11.22 2.88,16.36 1.81,2.6 0.92,5.89 -1,8.4 a 6.15,6.15 0 0 1 -8.17,1.48 c -6,-3.92 -11.16,-1.14 -16.9,0.41 -13,3.51 -22.74,-4.67 -21,-17 0.91,-6.37 4.89,-10 10.54,-12.06 4.69,-1.7 9.57,-2.83 14.25,-4.54 4.68,-1.71 5.62,-4.89 3.4,-9.46 -2,-4.15 -6.23,-5.54 -9.84,-2.34 -3.61,3.2 -6.79,6.18 -11.85,6.42 -4.51,0.22 -6,-1.32 -5.26,-5.85 a 13,13 0 0 1 7.57,-9.88 30.09,30.09 0 0 1 14.54,-2.9 z m -3.55,46.63 c 4.7,0.29 9.38,-3.22 9.68,-7.06 0.19,-2.41 -0.16,-4.68 -3.28,-5.06 -4.27,-0.53 -10.89,3.07 -11.12,6.28 -0.24,3.53 1.69,5.46 4.72,5.84 z"
       id="path98"
       style="stroke-width:13.4541" />
    <path
       class="cls-3"
       d="m 3977,763.9 a 54.2,54.2 0 0 1 6,0 c 9.27,1 13.72,5.5 14.27,14.81 0.33,5.64 0.1,11.31 0.16,17 0,5 -0.2,9.91 2.68,14.48 a 8.05,8.05 0 0 1 -0.48,9.42 c -2.51,3.18 -6.52,2.24 -9.18,0.64 -5.07,-3 -9.25,-1.31 -14.1,0.39 -12.71,4.46 -23.65,-2.73 -23.16,-14.71 0.27,-6.81 3.89,-11.23 10,-13.6 4.64,-1.81 9.49,-3.08 14.24,-4.6 3,-1 5.5,-2.48 5.34,-6.22 -0.12,-2.86 -1.26,-5.27 -3.85,-6.55 -2.95,-1.45 -6.14,-1.19 -8.25,1.35 a 14,14 0 0 1 -10.19,5.45 c -3.91,0.31 -5.52,-1.6 -5.24,-5.34 0.35,-4.82 3.15,-7.88 7.25,-10 4.51,-2.35 9.45,-2.79 14.51,-2.52 z m 2,33.74 c -4.61,-0.08 -10,3.67 -9.89,7.28 0.09,3.16 1.9,4.78 5,4.94 a 8.1,8.1 0 0 0 8.72,-7.47 c 0.17,-2.39 0.01,-4.8 -3.83,-4.75 z"
       id="path100"
       style="stroke-width:13.4541" />
    <path
       class="cls-3"
       d="m 3475.36,792.8 c 0,6.31 0.1,12.63 -0.05,18.94 -0.07,2.86 0.69,6.56 -3,7.7 -3.69,1.14 -8.22,2.21 -11,-1.59 -2.32,-3.2 -4.07,-2.45 -6.52,-0.72 a 28.68,28.68 0 0 1 -4.33,2.44 c -10.34,4.86 -24.29,2.08 -23.77,-14.68 0.32,-10.29 0,-20.6 0.08,-30.9 0.09,-7.79 1.3,-9.22 7,-9.33 6.11,-0.11 7.4,1.49 7.52,9.83 0.1,7.31 0,14.62 0.07,21.93 a 30.27,30.27 0 0 0 0.55,6.94 c 1.11,4.54 4.35,6.23 8.19,3.81 6,-3.78 11.15,-8.29 10.69,-16.6 -0.37,-6.62 0,-13.29 0,-19.93 0,-5 3.21,-6 7.31,-6 4.1,0 7.12,1.37 7.09,6.22 0,7.31 0,14.62 0,21.93 z"
       id="path102"
       style="stroke-width:13.4541" />
    <path
       class="cls-3"
       d="m 4012.83,791.71 c 0,-6.32 -0.08,-12.64 0,-19 0,-2.89 -0.51,-6.41 3.31,-7.49 3.52,-1 8.16,-2 10.15,1.4 2.72,4.68 4.88,2.88 7.87,1.07 a 27.32,27.32 0 0 1 6.29,-3 c 12.36,-3.6 20.48,2.11 20.81,14.91 0.29,11 0,21.95 0.06,32.93 0,4.66 -1.41,7.63 -6.79,7.59 -5.87,0 -7.44,-1.19 -7.66,-7.67 -0.26,-7.64 -0.07,-15.3 -0.12,-22.94 a 42.52,42.52 0 0 0 -0.29,-7 c -1,-5.92 -4.21,-7.45 -9,-4.12 -6.19,4.34 -11,9.43 -10.23,18 0.52,5.94 0.05,12 -0.07,18 -0.1,5 -3.5,5.74 -7.54,5.69 -3.8,0 -6.53,-1.18 -6.71,-5.53 0,-0.66 -0.11,-1.32 -0.11,-2 q 0,-10.47 0,-20.95 z"
       id="path104"
       style="stroke-width:13.4541" />
    <path
       class="cls-3"
       d="m 3490.82,792.08 c 0,-6.31 -0.09,-12.64 0,-19 0.06,-2.87 -0.72,-6.52 3,-7.7 3.72,-1.18 8.32,-2.31 10.75,1.94 2.06,3.63 3.85,2.73 6.26,1.07 a 23.36,23.36 0 0 1 16,-4.36 c 6.93,0.71 11.39,4.24 12,11.15 1.17,13.25 0.66,26.58 0.27,39.87 -0.13,4.54 -3.51,5.07 -7.06,5.07 -3.55,0 -6.9,-0.61 -7,-5.14 -0.19,-8.31 -0.07,-16.63 -0.31,-24.93 -0.13,-4.51 1.57,-10.48 -3.42,-12.66 -5.64,-2.47 -8.46,3.67 -12.13,6.7 -3.38,2.8 -4.11,6.61 -4.07,10.78 0.07,6.32 -0.09,12.64 -0.09,19 0,4.73 -2.62,6.34 -7,6.33 -4.38,-0.01 -7.14,-1.35 -7.14,-6.18 q 0,-11 0,-21.95 z"
       id="path106"
       style="stroke-width:13.4541" />
    <path
       class="cls-3"
       d="m 3852.83,682.17 c 0,-6.64 -0.07,-13.29 0,-19.93 0,-2.92 -0.4,-6.49 3.42,-7.41 3.47,-0.83 8.15,-2.08 10.07,1.54 2.63,5 4.88,2.94 7.71,1 a 21.78,21.78 0 0 1 15.21,-3.47 c 6.88,0.79 11.35,4.47 11.66,11.42 0.58,12.93 0.3,25.9 0.29,38.85 0,5 -3.39,5.75 -7.47,5.78 -4.45,0 -6.87,-1.79 -6.87,-6.44 0,-8.31 0,-16.61 -0.14,-24.92 -0.09,-4.18 1.16,-9.59 -3.64,-11.54 -5.19,-2.11 -8.21,2.94 -11.64,5.87 a 11.57,11.57 0 0 0 -4.06,9.74 c 0.09,3 0,6 0,9 0,17.38 -0.32,18.18 -7,18.29 -7.15,0.11 -7.54,-0.86 -7.54,-18.79 v -9 z"
       id="path108"
       style="stroke-width:13.4541" />
    <path
       class="cls-3"
       d="m 3894.52,822.2 a 45.92,45.92 0 0 1 -17.5,-3.6 c -4.37,-1.72 -5.28,-4.38 -3.51,-8.62 1.77,-4.24 3.9,-5.91 8.31,-3.37 4.41,2.54 9.09,4.14 14.29,3.47 2,-0.26 4.11,-0.78 4.76,-3 0.77,-2.67 -0.75,-4.56 -3,-5.61 -4.21,-2 -8.58,-3.62 -12.8,-5.57 -4.63,-2.14 -8.6,-5 -10.56,-10 a 15.48,15.48 0 0 1 6.55,-19.1 c 10.74,-6.41 21.75,-4.85 32.52,0 4.8,2.15 2.89,6 1.47,9.39 -1.64,3.94 -4.35,3.27 -7.34,1.77 a 27.18,27.18 0 0 0 -10.4,-3.25 c -3.09,-0.2 -6.38,0.17 -7.57,3.47 -1.39,3.83 1.85,5.23 4.57,6.49 3.92,1.8 8,3.23 11.89,5.14 8.36,4.14 11.59,9.48 10.74,17.2 -0.82,7.39 -5.82,12.45 -14.5,14.37 a 69.08,69.08 0 0 1 -7.92,0.82 z"
       id="path110"
       style="stroke-width:13.4541" />
    <path
       class="cls-3"
       d="m 3973.83,932.21 a 40.79,40.79 0 0 1 -18.57,-3.6 c -4,-1.8 -4.16,-4.58 -2.69,-8.19 1.55,-3.83 4,-5.16 7.81,-3.32 4.87,2.34 9.89,4 15.4,3.17 2,-0.29 4.07,-0.87 4.56,-3.17 0.49,-2.3 -0.94,-3.89 -2.8,-4.8 -3,-1.45 -6.08,-2.68 -9.18,-3.88 -3.75,-1.45 -7.42,-3 -10.41,-5.78 -9,-8.28 -6.59,-22.42 5.11,-26.94 9.65,-3.72 19.62,-2.79 29.2,1.17 4.16,1.72 3.85,4.81 2.4,8.26 -1.54,3.64 -3.7,5.39 -7.72,3.3 a 22.51,22.51 0 0 0 -14.48,-2.55 c -2.05,0.35 -4,1.14 -4.43,3.39 -0.43,2.25 1,3.81 2.92,4.67 4.22,2 8.61,3.56 12.79,5.58 10.23,4.93 13.71,10.79 11.76,19.33 -1.82,8 -8.51,12.75 -18.81,13.35 -1.33,0.08 -2.69,0.01 -2.86,0.01 z"
       id="path112"
       style="stroke-width:13.4541" />
    <path
       class="cls-3"
       d="m 3639.17,687.37 c 3.07,-8.69 6,-17.44 9.26,-26.06 2.49,-6.58 4.64,-7.72 11.21,-7 4.74,0.53 5.86,1.88 4.27,6.59 -2.33,6.93 -5.12,13.7 -7.73,20.52 -2.73,7.14 -5.37,14.32 -8.27,21.39 -2.76,6.73 -4.14,7.14 -11.25,7.29 -6,0.12 -8,-3.48 -9.51,-8.23 -4.21,-13 -8.64,-25.84 -12.81,-38.81 -0.91,-2.82 -3.82,-6.43 1,-8.45 4.82,-2.02 11.41,0 12.88,4 2.26,6.24 4,12.68 5.92,19 1,3.13 2,6.25 3,9.37 z"
       id="path114"
       style="stroke-width:13.4541" />
    <path
       class="cls-3"
       d="m 3280.78,858.31 c 4.17,-0.26 7.64,0.69 7.58,5.62 -0.07,6.29 1.16,11.1 8.74,11.77 2.84,0.25 3.25,3 3.14,5.43 -0.13,2.61 -1.37,4.63 -4.16,4.67 -7.13,0.11 -7.65,4.81 -7.53,10.2 0.1,4.32 0,8.63 0,13 0,5.1 0.31,9.44 7.7,7.67 3.79,-0.91 4.54,3 5.58,5.76 1.04,2.76 -0.21,4.58 -2.45,5.78 a 43.48,43.48 0 0 1 -8.13,3.66 c -10.79,3.06 -16.79,-1 -17.47,-12.26 -0.46,-7.6 -0.13,-15.26 -0.2,-22.89 0,-4.61 0.36,-9 -5.4,-11.51 A 4.51,4.51 0 0 1 3268,877 c 5.87,-2.9 5.57,-7.66 5.72,-12.6 0.14,-4.71 2.75,-6.4 7.06,-6.09 z"
       id="path116"
       style="stroke-width:13.4541" />
    <path
       class="cls-3"
       d="m 3875,932.25 c -20.09,0.12 -30.95,-10.21 -31.23,-27.92 -0.29,-18.12 11.54,-30.39 29.49,-30.57 5,0 10,0.32 14.66,2.46 2.46,1.13 5.31,2.43 3.7,5.83 -1.48,3.14 -2.56,7.24 -7.41,6.74 -1.29,-0.14 -2.48,-1 -3.76,-1.33 -8.15,-2.28 -14.83,0.38 -18.59,7.37 -3.76,6.99 -2.09,17.25 3.75,22 5.08,4.11 10.52,3.23 16.07,1.15 3.15,-1.18 6.22,-2.52 8.67,1.53 3.34,5.51 2.57,8.32 -3.48,10.67 a 22.54,22.54 0 0 1 -4.79,1.37 c -2.99,0.45 -5.99,0.6 -7.08,0.7 z"
       id="path118"
       style="stroke-width:13.4541" />
    <path
       class="cls-3"
       d="m 3607,763.73 c 4.68,-0.05 9.32,0.13 13.64,2.25 2.52,1.24 5,2.84 3.47,6 -1.53,3.16 -2.41,7.42 -7.51,6.26 -1.61,-0.36 -3.09,-1.29 -4.69,-1.66 -7.87,-1.83 -14.85,1.73 -17.86,9 -3.23,7.81 -0.73,17.58 5.49,21.5 5.06,3.17 10.16,2.29 15.3,0.25 2.89,-1.15 5.56,-2 7.94,1.25 4.07,5.53 3.27,8.89 -3.23,11.21 A 41.51,41.51 0 0 1 3596,821 a 22.94,22.94 0 0 1 -11.12,-6.34 c -8.08,-8 -10.62,-22.81 -5.81,-34.44 4.69,-11.33 13.56,-16.57 27.93,-16.49 z"
       id="path120"
       style="stroke-width:13.4541" />
    <path
       class="cls-3"
       d="m 3144.32,822 c -15.31,-0.11 -24.86,-6.42 -28.47,-17.82 -4.4,-13.9 -0.44,-28.44 10.22,-35.8 9.88,-6.83 20.75,-5.65 31.56,-2.68 2.45,0.68 5.45,2.09 4.23,5.57 -1.22,3.48 -2.69,7.11 -7.45,6.58 -2,-0.21 -3.82,-1.12 -5.78,-1.46 -7,-1.22 -13,1.25 -16,7.24 -3.37,6.62 -3.57,13.57 0.78,19.85 3.86,5.56 9.39,6.61 15.9,4.84 9,-2.45 10.66,-1.67 12.56,3.92 1.07,3.12 0.15,5.1 -2.63,6.51 a 30.15,30.15 0 0 1 -14.92,3.25 z"
       id="path122"
       style="stroke-width:13.4541" />
    <path
       class="cls-3"
       d="m 3701.55,822 c -7.89,0.09 -11.59,-3 -12.05,-11.28 -0.46,-8.28 -0.15,-16.58 -0.23,-24.88 0,-4.28 0.33,-8.29 -5.18,-10.51 a 4.86,4.86 0 0 1 -0.64,-8.75 c 5,-2.71 6.11,-6.44 5.9,-11.4 -0.18,-4.33 1.56,-6.87 6.34,-6.9 5.4,0 7.26,1 7.52,6.64 0.26,5.64 1.07,9.83 8,10.07 2.68,0.1 3.73,2.37 3.75,5 0,3 -0.75,5.57 -4.1,5.74 -7.05,0.36 -7.57,5 -7.44,10.4 0.1,4 -0.09,8 0.06,12 0.25,6.66 0.3,6.92 7.83,7.53 3.53,0.29 4.34,2.5 5.28,5 1,2.78 0.6,5.2 -2,7 a 24.13,24.13 0 0 1 -13.04,4.34 z"
       id="path124"
       style="stroke-width:13.4541" />
    <path
       class="cls-3"
       d="m 3736.14,638.12 c 5.16,-0.48 7.19,2.32 6.94,7.16 -0.28,5.38 1.13,9.06 7.45,9.2 3.26,0.08 4.39,2.45 4.39,5.51 0,3.06 -1.11,5.47 -4.37,5.52 -7.24,0.11 -7.58,4.85 -7.43,10.21 0.11,4 -0.07,8 0.06,11.95 0.23,6.93 0.27,7.24 7.57,7.69 3.62,0.22 4.28,2.51 5.3,4.89 1.21,2.83 0.58,5.18 -2.07,6.88 -4.25,2.73 -8.75,4.75 -14,4.55 -6.82,-0.27 -10.47,-3.43 -10.78,-10.4 -0.4,-8.95 -0.14,-17.92 -0.22,-26.88 0,-3.65 -0.13,-6.8 -4.4,-9 -4.44,-2.31 -4.93,-7.11 -1,-9.38 5,-2.9 5.62,-6.85 5.56,-11.63 -0.06,-4.78 2.45,-6.58 7,-6.27 z"
       id="path126"
       style="stroke-width:13.4541" />
    <path
       class="cls-3"
       d="m 3130.32,711.72 c -7.35,0 -10.93,-3.12 -11.31,-10.9 -0.43,-8.62 -0.17,-17.27 -0.23,-25.91 0,-4 -0.09,-7.47 -4.85,-9.77 -4.2,-2 -4.33,-7 -0.19,-9.43 4.75,-2.74 4.82,-6.48 5.18,-10.86 0.48,-5.79 2,-6.81 7.41,-6.81 4.72,0 6.68,2.36 6.49,6.78 -0.26,5.71 1.12,9.75 8,9.76 2.77,0 3.77,2.35 3.85,4.94 0.09,2.88 -0.54,5.84 -3.88,5.89 -7.77,0.12 -8.17,5.07 -7.91,10.84 0.13,3 0,6 0,9 0.11,8.12 0.09,8.2 8.37,10.73 3,0.92 4.07,3.19 4.91,5.74 0.92,2.75 -0.75,4.42 -2.81,5.72 -3.95,2.48 -8.21,4.28 -13.03,4.28 z"
       id="path128"
       style="stroke-width:13.4541" />
    <path
       class="cls-3"
       d="m 2934.14,891 c 0,-10.32 -0.18,-20.65 0.05,-31 0.16,-7.16 1.41,-8.11 8.24,-8 6.83,0.11 8,1.08 8,8.36 q 0.27,31.47 0,62.94 c 0,7 -1.63,8.2 -8.26,8.11 -6.63,-0.09 -7.86,-1.22 -8,-8.44 -0.17,-10.65 -0.03,-21.31 -0.03,-31.97 z"
       id="path130"
       style="stroke-width:13.4541" />
    <path
       class="cls-3"
       d="m 3043.47,932.21 c -8.45,0 -11.85,-2.84 -12.24,-10.63 -0.42,-8.31 -0.13,-16.65 -0.19,-25 0,-4.61 0.57,-9.1 -5.48,-11.39 -3.46,-1.32 -3.77,-6.64 -0.54,-8.09 5.94,-2.66 5.87,-7.19 6.18,-12.29 0.33,-5.46 2.31,-6.78 7.67,-6.52 3.52,0.17 5.68,1.59 5.88,5.31 0.1,2 0.21,4 0.24,6 0.05,3.48 1.49,5.7 5.2,6 3.51,0.29 6.78,0.84 6.62,5.56 -0.14,4.12 -3.08,4.71 -6.21,4.91 -4.29,0.27 -5.63,2.85 -5.63,6.68 0,5.33 -0.17,10.67 0,16 0.21,6.9 0.3,7.15 7.66,7.69 3.47,0.25 4.43,2.38 5.49,4.84 1.25,2.91 0.39,5.17 -2.2,6.86 -4.01,2.61 -8.33,4.19 -12.45,4.07 z"
       id="path132"
       style="stroke-width:13.4541" />
    <path
       class="cls-3"
       d="m 3415.11,670.77 c 0,10.32 0.14,20.63 -0.06,30.94 -0.14,7.17 -1.51,8.33 -8.07,8.26 -6.14,-0.07 -7.53,-1.12 -7.59,-7.72 q -0.26,-31.92 0,-63.86 c 0,-6.47 1.56,-7.69 7.55,-7.78 6.51,-0.09 8,1.2 8.13,8.23 0.18,10.64 0.04,21.29 0.04,31.93 z"
       id="path134"
       style="stroke-width:13.4541" />
    <path
       class="cls-3"
       d="m 3051.35,777.05 c 0,11.65 0.15,23.3 0,34.94 -0.13,7.14 -3.67,9.67 -10.11,7.93 a 4.65,4.65 0 0 1 -3.8,-4 19.77,19.77 0 0 1 -0.27,-3 c 0,-24 -0.11,-47.92 0.07,-71.89 0,-5.91 1.73,-7.19 7.07,-7.17 5.34,0.02 6.87,1.22 7,7.26 0.24,12 0.07,24 0.07,35.95 z"
       id="path136"
       style="stroke-width:13.4541" />
    <path
       class="cls-3"
       d="m 3222.6,660.69 a 70.91,70.91 0 0 1 5.94,-4.87 c 4.41,-2.84 9.52,-2.21 11.44,1.2 1.82,3.24 -0.81,12.18 -4.6,12.81 -12.09,2 -12.92,10.54 -12.83,20 0,4.64 0.19,9.3 -0.18,13.91 -0.43,5.26 -2.2,6.32 -8,6.25 -4.32,0 -7,-1.57 -7,-6.31 0,-13.91 -0.07,-27.83 0,-41.74 0,-2.93 -0.27,-6.41 3.61,-7.24 3.88,-0.83 8.08,-1.3 9.89,3.84 0.19,0.58 0.79,1.02 1.73,2.15 z"
       id="path138"
       style="stroke-width:13.4541" />
    <path
       class="cls-3"
       d="m 3192.49,882.89 c 4,-3.3 6.42,-5.65 9.18,-7.41 2.76,-1.76 5.77,-1.26 8.43,0.67 2.66,1.93 2,4.6 1.25,7.24 -1.24,4.21 -2.34,7.79 -8.06,8.6 -7,1 -9.15,7.21 -9.85,13.39 -0.56,4.93 -0.24,10 -0.31,15 -0.12,9.48 -1.22,11.11 -7.39,11 -5.79,-0.12 -6.86,-1.6 -6.92,-10.46 -0.08,-11.66 -0.15,-23.32 0.07,-35 0.06,-3.66 -1.49,-8.42 4.22,-9.82 5.07,-1.26 8.22,0.9 9.38,6.79 z"
       id="path140"
       style="stroke-width:13.4541" />
    <path
       class="cls-3"
       d="m 3568.45,793.38 c 0,7 0.25,14 -0.08,21 -0.25,5.41 -1.95,6.54 -7.78,6.53 -5.83,-0.01 -7.35,-1.13 -7.43,-6.73 -0.19,-14.31 -0.2,-28.63 0.05,-42.95 0.09,-5.37 1.93,-6.57 7.7,-6.58 5.77,-0.01 7.28,1.13 7.5,6.78 0.3,7.32 0.08,14.65 0.08,22 z"
       id="path142"
       style="stroke-width:13.4541" />
    <path
       class="cls-3"
       d="m 3738.84,793.85 c 0,6.63 0.19,13.26 -0.06,19.88 -0.22,5.83 -1.59,6.95 -7.14,7.11 -5.72,0.16 -7.71,-1.06 -7.81,-6.38 -0.27,-14.57 -0.1,-29.15 -0.09,-43.73 0,-4.8 2.93,-6.14 7.17,-6.14 5.72,0 7.61,1.16 7.82,6.4 0.31,7.61 0.08,15.24 0.08,22.86 z"
       id="path144"
       style="stroke-width:13.4541" />
    <path
       class="cls-3"
       d="m 3763.36,682 c 0,-7 -0.22,-13.92 0.07,-20.87 0.23,-5.71 1.67,-6.78 7.37,-6.83 5.7,-0.05 7.46,1 7.58,6.61 q 0.4,20.86 0,41.73 c -0.11,6.25 -1.86,7.35 -7.9,7.39 -5,0 -7.27,-2.17 -7.19,-7.17 0.14,-6.97 0.06,-13.93 0.07,-20.86 z"
       id="path146"
       style="stroke-width:13.4541" />
    <path
       class="cls-3"
       d="m 3958.83,682.12 c 0,7 0.21,13.92 -0.07,20.86 -0.24,5.83 -1.6,6.88 -7.23,7 -5.63,0.12 -7.6,-1 -7.7,-6.49 q -0.42,-21.36 0,-42.72 c 0.1,-5.44 2,-6.58 7.71,-6.47 5.71,0.11 7,1.19 7.24,7 0.22,6.9 0.05,13.86 0.05,20.82 z"
       id="path148"
       style="stroke-width:13.4541" />
    <path
       class="cls-3"
       d="m 3323.29,903.24 c 0,7.28 0,14.57 0,21.84 0,4.8 -2.75,6.26 -7,6.27 -4.25,0.01 -7.17,-1.2 -7.16,-6.08 0,-14.56 0,-29.12 0.07,-43.68 0,-4.93 3.31,-5.83 7.41,-5.77 3.83,0 6.53,1.31 6.58,5.59 0.07,7.28 0,14.56 0,21.83 z"
       id="path150"
       style="stroke-width:13.4541" />
    <path
       class="cls-3"
       d="m 3835.1,903.09 c 0,6.94 0.17,13.9 -0.06,20.84 -0.19,6 -1.66,7.32 -6.81,7.41 -5.33,0.09 -7.22,-1.33 -7.3,-6.91 q -0.32,-20.83 0,-41.69 c 0.1,-5.71 1.86,-7 7.25,-6.9 5.39,0.1 6.58,1.28 6.81,7.39 0.25,6.61 0.06,13.24 0.06,19.86 z"
       id="path152"
       style="stroke-width:13.4541" />
    <path
       class="cls-3"
       d="m 3307.86,855.39 c 0.08,-5.34 3.64,-9.23 8.4,-9.17 4.76,0.06 8.29,4.2 8.26,9.4 -0.03,5.2 -3.64,9.62 -8,9.84 -4.83,0.24 -8.75,-4.31 -8.66,-10.07 z"
       id="path154"
       style="stroke-width:13.4541" />
    <path
       class="cls-3"
       d="m 3836.23,856.17 c -0.16,5.16 -4,9.42 -8.43,9.31 -4.6,-0.12 -8.61,-5.25 -8.28,-10.6 0.31,-5.06 4.39,-9 9,-8.63 4.61,0.37 7.87,4.63 7.71,9.92 z"
       id="path156"
       style="stroke-width:13.4541" />
    <path
       class="cls-3"
       d="m 3779,634.6 c 0,5.66 -3.09,9.35 -7.95,9.42 -4.86,0.07 -8.09,-3.52 -8.07,-9.2 0,-5.52 3.31,-9.5 7.93,-9.58 4.62,-0.08 8.03,3.84 8.09,9.36 z"
       id="path158"
       style="stroke-width:13.4541" />
    <path
       class="cls-3"
       d="m 3739.25,744.84 c 0.17,5.75 -2.8,9.82 -7.35,10.06 -4.55,0.24 -8.31,-3.76 -8.61,-9.07 -0.3,-5.31 2.88,-9.54 7.57,-9.85 4.99,-0.32 8.22,3.08 8.39,8.86 z"
       id="path160"
       style="stroke-width:13.4541" />
    <path
       class="cls-3"
       d="m 3552.92,745.25 c 0,-5.89 3,-9.39 7.91,-9.23 4.69,0.15 8.14,4.2 8.05,9.46 -0.09,5.26 -3.81,9.41 -8.25,9.4 -4.63,0 -7.7,-3.88 -7.71,-9.63 z"
       id="path162"
       style="stroke-width:13.4541" />
    <path
       class="cls-3"
       d="m 3959.23,634.43 c 0.2,5.79 -2.69,9.45 -7.58,9.6 -4.89,0.15 -8.31,-3.48 -8.4,-8.95 -0.08,-5.26 3.36,-9.62 7.75,-9.83 4.64,-0.25 8,3.57 8.23,9.18 z"
       id="path164"
       style="stroke-width:13.4541" />
  </g>
  <metadata
     id="metadata993">
    <rdf:RDF>
      <cc:Work
         rdf:about="">
        <dc:title>citi_couleur</dc:title>
      </cc:Work>
    </rdf:RDF>
  </metadata>
</svg>
