<?xml version="1.0" encoding="UTF-8" standalone="no"?>
<svg
   viewBox="0 0 87.480247 50.000008"
   version="1.1"
   id="svg1723"
   sodipodi:docname="citi_full_white.svg"
   width="87.480247mm"
   height="50.000008mm"
   inkscape:version="1.2 (dc2aedaf03, 2022-05-15)"
   xmlns:inkscape="http://www.inkscape.org/namespaces/inkscape"
   xmlns:sodipodi="http://sodipodi.sourceforge.net/DTD/sodipodi-0.dtd"
   xmlns="http://www.w3.org/2000/svg"
   xmlns:svg="http://www.w3.org/2000/svg"
   xmlns:rdf="http://www.w3.org/1999/02/22-rdf-syntax-ns#"
   xmlns:cc="http://creativecommons.org/ns#"
   xmlns:dc="http://purl.org/dc/elements/1.1/">
  <sodipodi:namedview
     id="namedview1725"
     pagecolor="#303030"
     bordercolor="#a2a2a2"
     borderopacity="1"
     inkscape:showpageshadow="0"
     inkscape:pageopacity="0"
     inkscape:pagecheckerboard="0"
     inkscape:deskcolor="#5e5e5e"
     showgrid="true"
     showborder="true"
     inkscape:document-units="cm"
     inkscape:zoom="0.54428571"
     inkscape:cx="672.44094"
     inkscape:cy="538.32021"
     inkscape:window-width="1920"
     inkscape:window-height="1057"
     inkscape:window-x="-8"
     inkscape:window-y="-8"
     inkscape:window-maximized="1"
     inkscape:current-layer="svg1723">
    <inkscape:grid
       type="xygrid"
       id="grid701"
       units="mm"
       spacingx="188.97638"
       spacingy="188.97638"
       originx="0"
       originy="0" />
  </sodipodi:namedview>
  <defs
     id="defs1559">
    <style
       id="style1557">.cls-1{fill:#53ba59;}.cls-2{fill:#3caac1;}.cls-3{fill:#fff;}</style>
  </defs>
  <title
     id="title1561">citi_couleur</title>
  <metadata
     id="metadata1886">
    <rdf:RDF>
      <cc:Work
         rdf:about="">
        <dc:title>citi_couleur</dc:title>
      </cc:Work>
    </rdf:RDF>
  </metadata>
  <g
     id="g1985"
     transform="matrix(0.01966568,0,0,0.01966568,6.2207086e-4,7.8875001e-4)"
     style="stroke-width:50.85">
    <path
       id="rect1563"
       style="fill:#ffffff;stroke-width:50.85"
       class="cls-1"
       d="M 1986.7305,95.099609 V 2542.4609 H 4448.3398 V 95.099609 Z m 358.33,375.710941 c 14.37,-0.38 26.6302,5.46944 36.9102,15.27929 16,15.29985 26.2484,34.24123 33.8184,54.80078 9.45,25.6597 12.3304,52.35897 13.1504,79.47852 1.63,54.08925 -20.179,98.36147 -57.379,135.79102 -19.3985,19.5097 -42.9998,30.92945 -71.0898,32.43945 -16,0.87 -29.4111,-3.86953 -40.8711,-14.85938 -18.35,-17.5797 -29.1299,-39.56052 -36.6699,-63.33007 -7.63,-24.0297 -10.4902,-48.78084 -10.2402,-74.15039 0.54,-59.7991 25.4316,-107.74084 71.9101,-144.74024 17.49,-13.9197 38.2424,-20.12898 60.4609,-20.70898 z m 1017.0606,150.49804 c 4.1842,0.0578 8.4909,0.87129 12.5684,2.28125 2.69,0.93 5.0712,2.52985 3.7812,5.83985 -1.29,3.30996 -2.0011,7.49117 -7.1211,6.70117 -1.3,-0.2 -2.5088,-0.92117 -3.7988,-1.20117 -9.55,-2.11 -14.8913,2.16105 -14.8613,12.29101 -0.19,3.66 1,6.75 5.83,7 3.68,0.19 5.2503,2.25938 5.2403,5.85938 -0.01,3.59996 -1.8397,5.5207 -5.4297,5.7207 -5,0.29 -5.691,3.74922 -5.711,7.69922 0,9.64996 0.1006,19.31004 -0.1894,29 -0.19,6.39996 -1.7706,7.63 -7.8106,7.5 -5.62,-0.12 -6.9992,-1.18035 -7.1992,-7.07031 -0.28,-8.31996 -0.081,-16.64004 -0.1406,-25 0,-5.51 1.09,-11.14985 -7,-13.08985 -3.89,-0.93 -3.4184,-7.23972 1.1016,-9.17968 5,-2.15 5.77,-5.49043 6,-10.15039 0.75,-17.74496 12.1876,-24.37461 24.7402,-24.20118 z m 589.3105,3.92969 c 4.4158,0.002 7.5761,3.75673 7.7989,9.19141 0.2,5.78998 -2.6901,9.44961 -7.5801,9.59961 -4.89,0.15 -8.3104,-3.47924 -8.4004,-8.94922 -0.08,-5.26 3.36,-9.62008 7.75,-9.83008 0.145,-0.008 0.2892,-0.0118 0.4316,-0.0117 z m -180.5214,0.002 c 4.62,-0.08 8.0298,3.83938 8.0898,9.35938 0,5.65998 -3.0892,9.34992 -7.9492,9.41992 -4.86,0.07 -8.0903,-3.51922 -8.0703,-9.19922 0,-5.51998 3.3097,-9.50008 7.9297,-9.58008 z m -799.3184,4.58399 c 5.9302,0.10555 11.8304,1.25594 17.3691,4.33594 4.16,2.30989 4.2793,5.32922 2.4493,9.19922 -1.73,3.66989 -3.3998,6.23989 -8.2598,4 -7.5,-3.49 -15.332,-4.12891 -23.2109,-0.87891 -11.13,4.57989 -16.45,14.3392 -14.92,27.45898 1.38,11.87989 9.4314,20.54128 20.8614,22.20117 a 44.81,44.81 0 0 0 17.8183,-0.9414 c 3.83,-1 6.4612,-0.43 7.4512,4 0.94,4.14989 1.4193,7.44151 -3.7207,9.6914 -18.83,8.26 -43.9299,1.4101 -54.1699,-15.17968 -11,-17.86978 -7.2682,-41.93113 8.5507,-55.29102 7.82,-6.66989 17.0203,-8.72008 27.2403,-8.58008 0.8475,-0.025 1.6938,-0.0307 2.541,-0.0156 z m 435.3477,0.78516 c 6.5097,-0.09 8.0008,1.20049 8.1308,8.23046 0.18,10.63997 0.039,21.28972 0.039,31.92969 0,10.31997 0.1414,20.63144 -0.059,30.94141 -0.14,7.16997 -1.5103,8.32976 -8.0703,8.25976 -6.14,-0.07 -7.5299,-1.12073 -7.5899,-7.7207 -0.1733,-21.27994 -0.1733,-42.5661 0,-63.85938 0,-6.46997 1.5589,-7.69127 7.5489,-7.78124 z m -280.6094,7.42968 c 4.72,0 6.6802,2.36133 6.4902,6.78125 -0.26,5.71 1.12,9.74977 8,9.75977 2.77,0 3.7696,2.34945 3.8496,4.93945 0.09,2.88 -0.5408,5.84063 -3.8808,5.89063 -7.77,0.12 -8.1682,5.06992 -7.9082,10.83984 0.13,3 0,6 0,9 0.11,8.11992 0.089,8.20047 8.3691,10.73047 3,0.92 4.0702,3.19031 4.9102,5.74023 0.92,2.75 -0.7506,4.41875 -2.8106,5.71875 -3.95,2.48 -8.2093,4.28125 -13.0293,4.28125 -7.35,0 -10.9305,-3.12047 -11.3105,-10.90039 -0.43,-8.61992 -0.1705,-17.27023 -0.2305,-25.91015 0,-4 -0.09,-7.46954 -4.8496,-9.76954 -4.2,-1.99992 -4.3295,-6.99968 -0.1895,-9.42968 4.75,-2.74 4.8197,-6.48141 5.1797,-10.86133 0.48,-5.78992 2.0002,-6.81055 7.4102,-6.81055 z m 610.7402,0.0293 c 4.4738,-0.0702 6.2442,2.67344 6.0098,7.21094 -0.28,5.37998 1.1292,9.06117 7.4492,9.20117 3.26,0.08 4.3906,2.44978 4.3906,5.50976 0,3.06 -1.1091,5.46954 -4.3691,5.51954 -7.24,0.11 -7.5817,4.85095 -7.4317,10.21093 0.11,4 -0.069,7.99924 0.061,11.94922 0.23,6.92998 0.2703,7.23946 7.5703,7.68946 3.62,0.21998 4.2808,2.51062 5.3008,4.89062 1.21,2.83 0.5797,5.18086 -2.0703,6.88086 -4.25,2.73 -8.75,4.74883 -14,4.54883 -6.82,-0.27 -10.4713,-3.43041 -10.7813,-10.40039 -0.4,-8.94998 -0.1387,-17.91893 -0.2187,-26.87891 0,-3.65 -0.1304,-6.8 -4.4004,-9 -4.44,-2.31 -4.93,-7.11086 -1,-9.38086 5,-2.9 5.6205,-6.84891 5.5605,-11.62891 -0.06,-4.77998 2.45,-6.58148 7,-6.27148 0.3225,-0.03 0.6315,-0.0461 0.9297,-0.0508 z M 3692,652.63086 c 14.88,-0.19 21.0002,5.21877 22.2402,18.71875 0.43,4.61998 0.1506,9.31 0.3106,14 0.16,4.91998 -0.5715,9.89055 2.2285,14.56055 1.84,3.06998 0.9405,6.70914 -1.1895,9.36914 -2.52,3.11998 -6.2792,2.28125 -9.1992,0.78125 -4.58,-2.36 -8.7001,-2.44063 -13.1601,0.10937 a 15,15 0 0 1 -7.7403,1.58008 c -8.23,-0.11 -14.7908,-4.99969 -16.1308,-12.17969 -1.43,-7.57998 2.1801,-14.38103 9.8301,-17.54101 4.5898,-1.9 9.4709,-3.11994 14.2109,-4.66992 3,-1 5.4905,-2.48852 5.3105,-6.22852 -0.14,-2.83 -1.0907,-5.31172 -3.8007,-6.51172 -3,-1.32 -6.1905,-1.0585 -8.2305,1.52148 a 14.11,14.11 0 0 1 -10.1992,5.43946 c -3.87,0.41 -5.5809,-1.46094 -5.3809,-5.21094 0.27,-5.24998 3.3401,-8.50844 7.8301,-10.64844 4.49,-2.13998 9.6203,-2.62984 13.0703,-3.08984 z m 123.3691,0.0195 c 15.72,0.18 27.6307,12.67971 27.7207,29.17969 0.13,17.06996 -11.7705,29.83969 -27.9003,29.92969 -16.36,0.08 -28.1192,-12.28012 -28.1192,-29.58008 0,-16.94998 12.229,-29.7193 28.2988,-29.5293 z m -792.3125,0.0449 c 15.9439,0.0136 23.7746,13.70596 23.334,26.47461 -0.14,4.1 -2.3405,5.99961 -6.3105,6.09961 -7,0.09 -14,2.4e-4 -21,0.24024 -2.85,0.08 -6.65,-0.64897 -7.5,3.21093 -0.91,4.11 1.7999,6.94008 5.1699,8.83008 6.26,3.52 12.2706,1.48967 18.1406,-1.24023 3.22,-1.5 5.9999,-2.62094 8.4199,1.53906 3,5.2899 2.66,7.44 -3,10 a 41.64,41.64 0 0 1 -24.3808,3.45117 c -13.09,-2.04 -20.9302,-12.40088 -20.9902,-27.30078 -0.06,-16.9998 9.6703,-29.43914 24.8203,-31.11914 1.135,-0.125 2.2339,-0.18646 3.2968,-0.18555 z m 558.8536,0.004 c 15.7798,0.01 27.7507,12.43174 27.9707,29.01172 0.24,17.23996 -11.5411,29.99859 -27.7911,30.05859 -16.2498,0.06 -28.5789,-12.61019 -28.7089,-29.41015 -0.13,-16.51998 12.5293,-29.67016 28.5293,-29.66016 z m -283.0899,0.0215 c 16.31,0.34 28.39,13.32901 28,30.12891 -0.39,16.7999 -12.9409,29.22016 -29.2109,28.91016 -16.27,-0.3 -27.6002,-12.99893 -27.1602,-30.54883 0.43,-16.71995 12.4711,-28.82024 28.3711,-28.49024 z m -121.9765,0.0684 c 13.6897,0.19291 23.6591,11.05545 22.5566,25.85156 -0.35,4.56 -2.2705,6.68876 -6.7305,6.71876 -6.65,0 -13.31,0.001 -20,0.20117 -2.88,0.08 -6.6091,-0.41125 -7.3691,3.46875 -0.81,4.16993 1.7997,7.00125 5.4297,8.53125 6.28,2.61993 12.4298,1.32954 18.3398,-1.40039 3.12,-1.45 5.5599,-1.58969 7.5899,1.82031 3,4.99993 2.3707,7.51914 -3.1993,10.11914 a 40.29,40.29 0 0 1 -25.3613,3 c -12.93,-2.49 -19.4893,-12.44906 -19.2793,-28.45899 0.2,-15.46986 8.4692,-26.49976 21.9492,-29.25976 2.0863,-0.4275 4.1185,-0.61936 6.0743,-0.5918 z m -87.6211,0.58008 c 8.0665,-0.0782 13.2539,5.09189 14.5664,15.02148 1.56,11.59991 0.771,23.28955 0.541,34.93946 -0.11,5.58991 -1.8404,6.65937 -7.6504,6.60937 -5.81,-0.05 -7.27,-1.05953 -7.5,-6.76953 -0.32,-7.64991 -0.08,-15.32009 -0.1895,-23 a 43.51,43.51 0 0 0 -0.6308,-8.92969 c -1.08,-4.77991 -3.9999,-6.10944 -8.0899,-3.51953 -6.36,4.07 -11.52,8.99923 -11,17.61914 0.38,6 0,12.00009 0,18 0,4.57 -2.1897,6.60985 -6.7597,6.58985 -5.43,0 -7.1294,-1.21016 -7.3594,-6.91016 -0.28,-6.99991 -0.061,-14.00009 -0.061,-21 l -0.02,0.0312 c 0,-6.32991 -0.14,-12.67009 0,-19 0.23,-8.36991 6.84,-12.31991 13,-7 3.77,3.28 5.859,2.99828 9.209,0.73828 a 17.69,17.69 0 0 1 4.5098,-2.10937 c 2.6884,-0.85531 5.1747,-1.28866 7.4336,-1.31055 z m 376.7382,0.0137 c 0.6764,-1.3e-4 1.3624,0.0349 2.0586,0.10742 7.29,0.77 12.1903,4.5601 12.5703,11.83008 0.66,12.92998 0.3497,25.9094 0.3497,38.85938 0,4.99998 -3.4188,5.79054 -7.4688,5.81054 -4.05,0.02 -7.5502,-0.57984 -7.6602,-5.58984 -0.18,-8.63998 0,-17.27994 -0.291,-25.91992 -0.12,-4.1 1.5603,-9.62141 -3.5097,-11.44141 -4.67,-1.68 -7.6006,3.00024 -10.8106,5.74024 -3.21,2.73998 -4.4394,6.39064 -4.3594,10.64062 0.13,6.32 0.18,12.64002 -0.08,19 -0.25,6.47 -1.6195,7.63985 -7.6895,7.58985 -5.9,0 -7.1506,-1.15946 -7.3906,-7.93946 -0.24,-6.77998 0,-13.29947 0,-19.93945 l -0.039,-0.0508 c 0,-6 -0.11,-12.00002 0,-18 0.08,-3.19 -1.0005,-7.34994 2.6895,-8.91992 3.94,-1.65 8.7897,-2.52078 11.9297,1.44922 2.33,2.99998 4.1499,2.51998 6.6699,1 4.0337,-2.51125 8.2969,-4.22561 13.0312,-4.22657 z m 541.2598,0.20313 c 8.8022,-0.15368 13.964,4.74838 14.7402,14.97461 0.88,11.58998 0.5796,23.29947 0.3496,34.93945 -0.11,5.44998 -2.0007,6.57094 -7.8007,6.46094 -5.8,-0.11 -7.1394,-1.16002 -7.3594,-7 -0.3,-7.99998 -0.07,-16.00002 -0.1699,-24 a 35,35 0 0 0 -0.6309,-7.94141 c -1.15,-4.67998 -4.2494,-6.00023 -8.1894,-3.24023 -6.42,4.50998 -11.7702,9.68978 -10.9102,18.75976 0.53,5.61 0,11.32002 0,17 0,4.73 -2.57,6.3711 -7,6.3711 -4.43,0 -7.1504,-1.32993 -7.1504,-6.16993 v -22 l -0.029,0.0703 c 0,-6.33 -0.15,-12.66002 0,-19 0.25,-8.34998 6.7906,-11.99961 13.1406,-6.59961 3.4,2.87998 5.1594,2.77984 8.3594,0.83984 a 23.22,23.22 0 0 1 7.3906,-2.86133 c 1.875,-0.37343 3.6298,-0.57505 5.2598,-0.60351 z m -476.4043,0.0195 c 8.7322,0.12931 13.5031,5.36916 13.8828,15.70508 0.4,10.99998 0.27,21.94972 0,32.92968 -0.13,6.58 -1.4896,7.64946 -7.5996,7.68946 -6.11,0.04 -7.6091,-1.08977 -7.7891,-7.50977 -0.27,-8.99998 -0.05,-17.99969 -0.1699,-26.92969 0,-3.23998 0.5795,-7.20062 -3.3105,-8.64062 -3.64,-1.35 -6.1107,1.71117 -8.7207,3.70117 a 15.27,15.27 0 0 0 -6.3692,13.79883 187.17,187.17 0 0 1 -0.09,19 c -0.29,5.59998 -1.7511,6.62086 -7.6211,6.63086 -5.87,0.01 -7.4302,-1.00008 -7.6602,-6.58008 -0.32,-7.29998 -0.08,-14.62947 -0.08,-21.93945 l 0.012,-0.0117 c 0,-6 -0.11,-12.00002 0,-18 0.09,-3.17 -1.0008,-7.2886 3.1992,-8.5586 3.75,-1.13998 8.5202,-2.18148 11.2402,1.22852 3.11,3.9 5.3389,2.22086 8.3789,0.63086 a 26.24,26.24 0 0 1 7.4414,-2.68945 c 1.886,-0.32657 3.6388,-0.47903 5.2559,-0.45508 z m 355.2422,0.0762 a 21.78,21.78 0 0 1 3.1816,0.21875 c 6.88,0.79 11.3502,4.46994 11.6602,11.41992 0.58,12.92998 0.2991,25.89963 0.2891,38.84961 0,5 -3.3888,5.7493 -7.4688,5.7793 -4.45,0 -6.8711,-1.78947 -6.8711,-6.43945 0,-8.31 0,-16.60993 -0.1387,-24.91993 -0.09,-4.17998 1.1594,-9.58906 -3.6406,-11.53906 -5.19,-2.11 -8.2106,2.93914 -11.6406,5.86914 a 11.57,11.57 0 0 0 -4.0606,9.74024 c 0.09,2.99998 0,6 0,9 0,17.37996 -0.32,18.17906 -7,18.28906 -7.15,0.11 -7.539,-0.8591 -7.539,-18.78906 v -8.99024 c 0,-6.63998 -0.07,-13.28969 0,-19.92969 0,-2.91998 -0.4001,-6.49015 3.4199,-7.41015 3.47,-0.83 8.1503,-2.08094 10.0703,1.53906 2.63,5 4.879,2.94 7.709,1 a 21.78,21.78 0 0 1 12.0293,-3.6875 z m -266.8789,0.13867 c 3.9558,-0.0966 7.9385,1.78907 9.041,4.78907 2.26,6.23998 3.9999,12.68 5.9199,19 1,3.12998 2,6.25109 3,9.37109 l 2.0293,0.38867 c 3.07,-8.68998 5.9998,-17.43861 9.2598,-26.05859 2.49,-6.58 4.6409,-7.72 11.2109,-7 4.74,0.53 5.8596,1.87986 4.2696,6.58984 -2.33,6.92998 -5.1205,13.69955 -7.7305,20.51953 -2.73,7.13998 -5.3695,14.32063 -8.2695,21.39063 -2.76,6.72998 -4.1402,7.13906 -11.25,7.28906 -6,0.12 -7.9998,-3.48047 -9.5098,-8.23047 -4.21,-12.99998 -8.6406,-25.83863 -12.8106,-38.80859 -0.91,-2.82 -3.82,-6.43119 1,-8.45117 1.205,-0.505 2.5213,-0.75688 3.8399,-0.78907 z m -384.7754,0.20703 c 2.4063,0.0361 4.4962,1.07407 5.5762,2.99219 1.82,3.24 -0.8096,12.18055 -4.5996,12.81055 -12.09,2 -12.9201,10.54006 -12.8301,20 0,4.63994 0.1883,9.30021 -0.1817,13.91015 -0.43,5.26 -2.2,6.32 -8,6.25 -4.32,0 -7,-1.5706 -7,-6.31054 0,-13.90994 -0.07,-27.8303 0,-41.74024 0,-2.92994 -0.2686,-6.41023 3.6114,-7.24023 3.88,-0.83 8.0786,-1.3001 9.8886,3.83984 0.19,0.58 0.7905,1.02039 1.7305,2.15039 a 70.91,70.91 0 0 1 5.9395,-4.86914 c 1.9293,-1.2425 3.9936,-1.82104 5.8652,-1.79297 z m 716.1094,0.26758 c 0.3276,-0.004 0.6685,-10e-4 1.0254,0.006 5.71,0.11 7.0002,1.19002 7.2402,7 0.22,6.89998 0.051,13.85838 0.051,20.81836 0,6.99998 0.2097,13.92135 -0.07,20.86133 -0.24,5.82998 -1.6005,6.88 -7.2305,7 -5.63,0.12 -7.5992,-1.00024 -7.6992,-6.49024 -0.28,-14.23996 -0.28,-28.48072 0,-42.7207 0.094,-5.09998 1.7696,-6.42008 6.6836,-6.47461 z m -179.7129,0.006 c 5.7,-0.05 7.4601,0.99938 7.5801,6.60938 0.2666,13.90663 0.2666,27.81717 0,41.73046 -0.11,6.25 -1.8604,7.34868 -7.9004,7.38868 -5,0 -7.2714,-2.16994 -7.1914,-7.16992 0.14,-6.97 0.06,-13.9294 0.07,-20.85938 0,-6.99998 -0.2197,-13.91916 0.07,-20.86914 0.23,-5.70998 1.6711,-6.78008 7.3711,-6.83008 z m -595.334,9.9082 c -0.8927,0.0247 -1.8134,0.15836 -2.7559,0.38086 a 8.9,8.9 0 0 0 -2.7011,1.13086 c -2.6,1.62 -5.0007,3.74007 -4.2207,7 0.78,3.26 4.0503,2.62961 6.5703,2.84961 0.97,0.18 1.9604,0.10938 3.4004,0.10938 v -0.0391 c 2.57,-0.47993 6.4811,1.26853 8.2011,-2.6914 0.8,-1.85 -0.3312,-3.90875 -1.5312,-5.46875 -1.875,-2.4375 -4.2849,-3.34555 -6.9629,-3.27149 z m -152.4609,0.0391 a 8.39,8.39 0 0 0 -1.9551,0.0215 c -4.32,0.34 -9.37,4.16086 -9,7.63086 0.58,5.43 5.3387,3.16 8.2187,3.75 v -0.041 c 1.55,0 2.86,0.0599 4.17,0 2.27,-0.12 5,0.0615 5.75,-2.64844 0.92,-3.24 -0.9996,-5.63188 -3.5196,-7.42188 a 8.39,8.39 0 0 0 -3.664,-1.29101 z m 275.5898,0.7832 c -0.2079,-0.002 -0.4162,0.005 -0.625,0.0195 -6.68,0.48 -12.8508,9.73005 -12.3008,18.25 0.58,9.12995 6.6595,16.57969 13.1895,16.17969 6.68,-0.42 12.1406,-8.16114 12.1406,-17.12109 h -0.029 c 0,-9.145 -5.9312,-17.26582 -12.375,-17.32813 z m 282.6328,0.0195 c -2.9962,0.1525 -5.9177,2.03391 -8.4277,5.62891 a 20.41,20.41 0 0 0 -3.1914,16.17969 c 1.4,7.16998 6.8312,12.64062 12.2812,12.64062 5.21,0 9.7596,-4.54088 11.7696,-11.88086 0.52,-1.91 0.7495,-3.89961 1.0195,-5.34961 -0.49,-4.92998 -1.6801,-8.99875 -4.5801,-12.46875 -2.805,-3.325 -5.8748,-4.9025 -8.8711,-4.75 z m 234.1738,0.0625 c -3.6175,-0.12 -7.2914,1.96688 -10.0214,6.29688 -2.22,3.52998 -2.7514,7.4407 -2.6914,11.4707 0.12,8.99998 5.8801,16.73969 12.4101,16.67969 6.53,-0.06 11.9999,-7.70018 12.1699,-18.41016 a 18.22,18.22 0 0 0 -2.1894,-9.08984 c -2.5,-4.5 -6.0603,-6.82727 -9.6778,-6.94727 z m -120.2441,22.16797 c -4.2101,-0.0282 -9.8102,3.80078 -9.8477,6.98828 -0.01,3.1964 1.7665,4.83655 4.8301,5.20899 a 8.27,8.27 0 0 0 8.6602,-7.68946 c 0.07,-2.06 -0.2003,-4.08922 -2.8203,-4.44922 -0.2663,-0.0375 -0.5416,-0.0567 -0.8223,-0.0586 z m 421.4023,45.88867 c 6.05,-0.17 7.45,1.12971 8,7.42969 0.05,0.67 0,1.33 0,2 -0.013,11.65331 -0.016,23.30763 -0.01,34.96094 0,10.99998 0.09,22.00002 0,33 -0.1,10.18998 -4.1008,12.99968 -13.8008,8.92968 -2.81,-1.17998 -4.4509,-1.20959 -7.1309,-0.0996 -14.6898,6.13 -27.0487,0.55856 -31.2187,-14.4414 -2.54,-9.13998 -2.4107,-18.47924 2.2793,-27.19922 5.84,-10.84998 14.5508,-15.31008 27.3008,-14.08008 7,0.69 7.1188,0.68967 7.2988,-6.32031 0.15,-5.65998 -0.1094,-11.33002 0.1406,-17 0.27,-5.90998 1.5708,-6.99969 7.1406,-7.17969 z m -1072.25,0.68946 c 5.34,0.02 6.87,1.21978 7,7.25976 0.24,11.99998 0.07,24.00119 0.07,35.95117 l -0.031,-0.0195 c 0,11.64998 0.15,23.29949 0,34.93945 -0.13,7.14 -3.6694,9.66969 -10.1094,7.92969 a 4.65,4.65 0 0 1 -3.8007,-4 19.77,19.77 0 0 1 -0.2696,-3 c 0,-23.99994 -0.1097,-47.92068 0.07,-71.89062 0,-5.91 1.7305,-7.18992 7.0703,-7.16992 z m 687.0118,2.10156 c 4.7262,-0.086 7.763,3.27954 7.9277,8.8789 0.17,5.75 -2.7996,9.82055 -7.3496,10.06055 -4.55,0.24 -8.3113,-3.76033 -8.6113,-9.07031 -0.3,-5.31 2.8803,-9.53961 7.5703,-9.84961 0.1559,-0.01 0.3104,-0.0168 0.4629,-0.0195 z m -170.9473,0.0547 c 0.1497,-0.002 0.3016,-10e-4 0.4551,0.004 4.69,0.15 8.1408,4.20094 8.0508,9.46094 -0.09,5.25998 -3.81,9.41039 -8.25,9.40039 -4.63,0 -7.701,-3.88088 -7.711,-9.63086 0,-5.70592 2.8152,-9.16897 7.4551,-9.23438 z m -628.7949,5.1543 h 50.8203 c 4.35,0 5.5293,2.78916 5.5293,6.61914 0,4.06 -0.8088,7.36024 -5.7988,7.49024 -2.32,0.06 -4.65,0.0899 -7,0.16992 -9.87,0.33 -10.5216,0.89135 -10.6016,11.11133 -0.12,13.27996 0,26.56941 0,39.85937 0,2.33 0.08,4.66 -0.08,7 -0.46,6.29 -1.8597,7.55992 -7.9297,7.41992 -5.66,-0.13 -7.1991,-1.28039 -7.3691,-6.90039 -0.26,-8.62998 -0.07,-17.28017 -0.07,-25.91015 L 2949,788 c 0,-7.63998 0.13,-15.28994 0,-22.91992 -0.18,-8.79998 -0.8097,-9.30914 -9.9297,-9.61914 -2.32,-0.08 -4.66,0.0691 -7,-0.13086 -5.84,-0.52 -6.92,-1.8701 -7,-7.33008 -0.06,-4.58 1.9998,-6.82008 6.5098,-6.83008 z m 764.1094,7.10938 c 5.3998,0 7.2614,1.00064 7.5214,6.64062 0.26,5.64 1.07,9.83031 8,10.07031 2.68,0.1 3.73,2.37002 3.75,5 0,3 -0.7515,5.57024 -4.1015,5.74024 -7.05,0.36 -7.5695,5.00039 -7.4395,10.40039 0.1,4 -0.089,8 0.061,12 0.25,6.65998 0.3002,6.9193 7.83,7.5293 3.53,0.29 4.3393,2.5 5.2793,5 1,2.77998 0.6,5.2 -2,7 A 24.13,24.13 0 0 1 3701.5508,822 c -7.89,0.09 -11.5908,-2.99932 -12.0508,-11.2793 -0.46,-8.27998 -0.1505,-16.58086 -0.2305,-24.88086 0,-4.27998 0.3303,-8.28976 -5.1797,-10.50976 a 4.86,4.86 0 0 1 -0.6406,-8.75 c 5,-2.71 6.1104,-6.44041 5.9004,-11.40039 -0.18,-4.33 1.5599,-6.87039 6.3399,-6.90039 z m 199.58,14.29297 c 6.1193,-0.18677 12.2525,1.50039 18.3106,4.22851 4.8,2.15 2.8907,5.99869 1.4707,9.38867 -1.64,3.94 -4.3499,3.27149 -7.3399,1.77149 a 27.18,27.18 0 0 0 -10.4004,-3.25 c -3.09,-0.2 -6.3803,0.16875 -7.5703,3.46875 -1.39,3.82998 1.8503,5.23023 4.5703,6.49023 3.92,1.8 7.9987,3.23063 11.8887,5.14063 8.36,4.13998 11.5903,9.47922 10.7403,17.19922 -0.82,7.38998 -5.8202,12.45109 -14.5,14.37109 a 69.08,69.08 0 0 1 -7.92,0.81836 45.92,45.92 0 0 1 -17.5,-3.59961 c -4.37,-1.72 -5.2797,-4.37916 -3.5097,-8.61914 1.77,-4.24 3.9005,-5.91109 8.3105,-3.37109 4.41,2.53998 9.0891,4.1407 14.2891,3.4707 2,-0.26 4.1097,-0.78 4.7597,-3 0.77,-2.67 -0.75,-4.55938 -3,-5.60938 -4.21,-1.99998 -8.5788,-3.62031 -12.7988,-5.57031 -4.63,-2.14 -8.6005,-5 -10.5605,-10 a 15.48,15.48 0 0 1 6.5507,-19.09961 c 4.6988,-2.80437 9.4496,-4.08325 14.209,-4.22851 z m -751.7734,0.77929 c 4.6644,0.0933 9.4054,1.04829 14.1348,2.34766 2.45,0.68 5.4485,2.09031 4.2285,5.57031 -1.22,3.48 -2.6892,7.11008 -7.4492,6.58008 -2,-0.21 -3.8193,-1.11899 -5.7793,-1.45899 -7,-1.21998 -13,1.25026 -16,7.24024 -3.37,6.61998 -3.5707,13.56963 0.7793,19.84961 3.86,5.55998 9.3905,6.60984 15.9003,4.83984 9,-2.45 10.6586,-1.67006 12.5586,3.91992 1.07,3.12 0.1511,5.09977 -2.6289,6.50977 a 30.15,30.15 0 0 1 -14.9199,3.25 c -15.31,-0.11 -24.8607,-6.42033 -28.4707,-17.82031 -4.4,-13.89998 -0.4393,-28.43885 10.2207,-35.79883 5.5575,-3.84187 11.4287,-5.14922 17.4258,-5.0293 z m -54.7637,0.0977 a 28.52,28.52 0 0 1 7.0781,1.24023 c 8.35,2.65 12.9993,9.00065 14.7793,17.39063 2.31,10.70998 0.2597,13.18984 -10.5703,13.33984 -6.32,0.09 -12.66,-0.16906 -19,0.21094 -5.51,0.34 -6.92,3.48 -3.83,8 a 13.42,13.42 0 0 0 13.871,5.94922 46.2,46.2 0 0 0 8.5293,-2.65039 c 6,-2.17 7.19,-1.78914 9.25,3.13086 2,4.72998 1.2705,6.14978 -4.7695,8.75976 -5.54,2.39 -11.3795,3.56969 -16.0195,3.17969 -16.58,-0.11 -25.7814,-7.9991 -28.1914,-22.78906 -2.36,-14.55998 5.8202,-30.11024 18.2402,-34.24024 a 28.52,28.52 0 0 1 10.6328,-1.52148 z m -83.0234,0.10156 c 2.0204,0.0324 4.0982,0.23961 6.2207,0.59961 11,1.87 19.7205,15.79002 17.2305,26.75 -0.76,3.32 -2.9398,4.27914 -5.7598,4.36914 -6,0.17 -12,0.13117 -18,0.20117 a 54,54 0 0 0 -7,0.22852 c -4.42,0.63 -5.4902,3 -3.4102,7 a 13.37,13.37 0 0 0 14.2989,6.88086 34.33,34.33 0 0 0 9.4004,-3.17969 c 4.4298,-2.22 6.6605,-0.54078 8.5605,3.44922 2.16,4.55998 0.091,6.83953 -3.7891,8.51953 A 39.71,39.71 0 0 1 3006.0801,822 c -10.87,0.47 -19.8808,-3.00018 -24.8906,-13.16016 -5.81,-11.70996 -4.6104,-23.32963 2.5996,-34.09961 5.4925,-8.18998 13.1646,-11.3298 21.9199,-11.18945 z m 1041.2226,0.082 c 8.6493,-0.15177 14.06,5.56682 14.3282,15.9668 0.29,10.99998 5e-4,21.94971 0.061,32.92969 0,4.65998 -1.411,7.62984 -6.791,7.58984 -5.87,0 -7.4402,-1.18994 -7.6602,-7.66992 -0.26,-7.63998 -0.069,-15.29947 -0.1191,-22.93945 a 42.52,42.52 0 0 0 -0.2891,-7 c -1,-5.92 -4.21,-7.44913 -9,-4.11915 -6.19,4.34 -11.0004,9.43002 -10.2304,18 0.52,5.94 0.05,12.00002 -0.07,18 -0.1,5 -3.5011,5.73946 -7.5411,5.68946 -3.8,0 -6.5289,-1.1793 -6.7089,-5.5293 0,-0.66 -0.1094,-1.32 -0.1094,-2 v -20.95117 l 0.029,0.11133 c 0,-6.32 -0.08,-12.64002 0,-19 0,-2.89 -0.5095,-6.41024 3.3105,-7.49024 3.52,-1 8.1585,-2.00156 10.1485,1.39844 2.72,4.68 4.8811,2.88031 7.8711,1.07031 a 27.32,27.32 0 0 1 6.289,-3 c 2.3175,-0.675 4.4865,-1.02161 6.4824,-1.05664 z m -781.3632,0.0625 c 4.2812,-0.002 8.4773,1.64549 12.4921,5.60547 2.64,2.6 4.6897,1.48828 6.9297,-0.26172 a 22.32,22.32 0 0 1 15.7989,-5 c 7.89,0.55 13.0007,4.22002 13.4707,12 0.75,12.93998 0.3705,26.00168 0.3105,38.93164 0,4.49 -3.3212,5.18024 -6.9512,5.24024 -3.92,0 -7.6288,-0.33188 -7.7988,-5.42188 -0.22,-6.99998 -0.1612,-14 -0.2812,-21 a 91.06,91.06 0 0 0 -0.4493,-11 c -0.91,-6.50998 -4.07,-7.77912 -9.58,-3.86914 -5.33,3.79 -9.3096,8.28971 -8.7696,15.67969 a 152,152 0 0 1 -0.08,19 c -0.29,5.53998 -1.8095,6.59031 -7.6895,6.57031 -5.88,-0.02 -7.3698,-1.04969 -7.5898,-6.67969 -0.32,-8.31998 -0.1014,-16.65 -0.1914,-25 a 34.86,34.86 0 0 0 -0.5801,-7.92968 c -0.89,-3.64 -3.6094,-4.91 -6.8594,-3 -6.11,3.68998 -11.5591,7.90978 -11.2891,16.25976 0.22,6.65 0.2184,13.33002 -0.1816,20 -0.32,5.36 -2.1292,6.39961 -7.9492,6.34961 -4.36,0 -7,-1.58986 -7,-6.33984 v -22 l -0.02,0.0898 c 0,-6.31998 -0.07,-12.65 0,-19 0.06,-2.89 -0.6306,-6.51086 3.1094,-7.63086 3.74,-1.12 8.52,-2.12881 11,1.70117 2.48,3.83 4.2406,2.74 7.1406,1 4.36,-2.63998 8.7266,-4.29242 13.0079,-4.29492 z m 511.1425,0.004 c 16.2,0.36 26.8887,12.30174 26.6387,29.76172 -0.24,17.08996 -11.58,28.62883 -28,28.54883 -16.31,-0.09 -28.3,-12.92004 -28,-30 0.3,-17.07998 12.2315,-28.65055 29.3613,-28.31055 z m -413.8847,0.0215 c 4.3923,-0.17844 8.6465,1.27727 12.584,5.25977 2.51,2.57 4.6,1.84914 7,0.11914 4.7,-3.45 9.8405,-5.44891 15.8105,-5.12891 8.23,0.45 12.8588,3.68846 13.7188,11.64844 1.45,13.24998 0.6601,26.60018 0.4101,39.91016 -0.08,4.41998 -3.2694,5.33125 -6.9394,5.28125 -3.67,-0.05 -7.7504,-0.0906 -7.9004,-5.31055 -0.21,-7.31998 -0.1493,-14.65002 -0.1993,-22 0,-2 0.1193,-4 -0.051,-6 -0.31,-3.83 0.9098,-8.72008 -3.9102,-10.33008 -4,-1.33 -6.6004,2.29055 -9.4004,4.56055 -3.89,3.16 -5.5384,7.20978 -5.3984,12.25976 0.18,6.65 0.1989,13.33002 -0.1211,20 -0.27,5.63 -1.8904,6.85032 -7.4902,6.82032 -5.6,-0.03 -7.32,-1.26102 -7.5,-6.79102 -0.28,-8.99998 -0.049,-18.00002 -0.2188,-27 -0.06,-3.58 0.4798,-7.99875 -3.4902,-9.71875 -3.97,-1.72 -6.6412,1.92891 -9.4512,4.12891 -4.27,3.32998 -5.93,7.70111 -5.75,13.12109 0.22,6.64998 -0.048,13.32002 -0.068,20 0,4.79 -2.77,6.25906 -7.08,6.28906 -5.87,0 -7.8914,-1.11017 -8.1114,-6.16015 -0.33,-7.31 -0.09,-14.65002 -0.09,-22 l -0.1192,0.0605 c 0,-6.32998 -0.11,-12.66 0,-19 0.19,-8.64998 6.5286,-12.61968 13.8086,-7.67968 3.83,2.59998 5.9511,2.35914 9.5411,0.61914 3.5,-1.69313 6.9997,-2.8202 10.416,-2.95899 z m 291.2343,0 c 15,0 20.3989,5.17926 20.7989,20.19922 0.12,4.31 -0.049,8.63002 0.061,13 0.11,4.58 -0.4806,9.19094 2.3594,13.46094 2,3.08 0.7803,6.64008 -1.1797,9.33008 -2.11,2.87998 -5.8002,2.29 -8.2402,1 -5.59,-3 -10.39,-1.80172 -16,0.23828 -9.38,3.44 -18.3895,-0.81002 -21.4395,-9 -3.05,-8.18998 1.32,-16.4686 11,-20.3086 2.15,-0.85998 4.4404,-1.36054 6.6504,-2.06054 a 56.9,56.9 0 0 0 6.6094,-2.19922 c 4.17,-1.9 5.4912,-5.89102 3.4512,-9.79102 -1.95,-3.72998 -6.4514,-4.69912 -10.1114,-1.36914 -3,2.77 -5.8396,5.26868 -10.0996,5.63868 -5.7,0.49998 -8.0006,-2.45846 -5.8906,-7.89844 1.67,-4.29 5.0007,-6.88172 9.2207,-8.51172 4.22,-1.63 8.5007,-1.63852 12.8105,-1.72852 z m -45.3085,0.004 c 4.0823,0.0299 8.1086,0.40086 11.8886,2.25586 2.52,1.24 4.9988,2.84 3.4688,6 -1.53,3.16 -2.4098,7.41976 -7.5098,6.25976 -1.61,-0.36 -3.0894,-1.29015 -4.6894,-1.66015 -7.87,-1.83 -14.8494,1.73002 -17.8594,9 -3.23,7.80998 -0.7317,17.58 5.4883,21.5 5.06,3.16998 10.1607,2.29 15.3007,0.25 2.89,-1.15 5.5595,-2 7.9395,1.25 4.07,5.52998 3.2715,8.88898 -3.2285,11.20898 A 41.51,41.51 0 0 1 3596,821 a 22.94,22.94 0 0 1 -11.1191,-6.33984 c -8.08,-8 -10.6206,-22.80948 -5.8106,-34.43946 4.69,-11.32998 13.5597,-16.57023 27.9297,-16.49023 0.585,-0.006 1.1688,-0.0101 1.752,-0.006 z m -414.9512,0.006 c 16.38,-0.04 27.7893,11.37924 28.2793,28.19922 0.49,17.06996 -11.3402,29.89031 -27.6602,30.07031 -16.31,0.18 -28.83,-12.29018 -29,-28.91016 -0.17,-16.61996 12.0009,-29.31937 28.3809,-29.35937 z M 3980,763.81641 a 54.2,54.2 0 0 1 3,0.084 c 9.27,1 13.7195,5.50057 14.2695,14.81055 0.33,5.63998 0.1002,11.31 0.1602,17 0,4.99998 -0.2003,9.90853 2.6797,14.47851 a 8.05,8.05 0 0 1 -0.4785,9.41993 c -2.51,3.17998 -6.5217,2.24062 -9.1817,0.64062 -5.07,-3 -9.2496,-1.30936 -14.0996,0.39062 -12.71,4.46 -23.6501,-2.73095 -23.1601,-14.71093 0.27,-6.81 3.89,-11.22961 10,-13.59961 4.6398,-1.81 9.4902,-3.07961 14.2402,-4.59961 3,-1 5.4998,-2.48072 5.3398,-6.2207 -0.12,-2.86 -1.2596,-5.26883 -3.8496,-6.54883 -2.95,-1.45 -6.14,-1.19039 -8.25,1.34961 a 14,14 0 0 1 -10.1894,5.44922 c -3.91,0.31 -5.5203,-1.59985 -5.2403,-5.33985 0.35,-4.81998 3.15,-7.88 7.25,-10 4.51,-2.35 9.4498,-2.78953 14.5098,-2.51953 a 54.2,54.2 0 0 1 3,-0.084 z m -158.9824,0.0898 c 1.8103,0.0702 3.8351,0.79141 5.9726,2.25391 3.93,2.69998 6.1896,2.33062 9.5196,0.39062 A 19.82,19.82 0 0 1 3846.0391,764 c 9.83,-0.3 15.4505,3.79041 16.0605,13.65039 0.75,12.24998 0.2603,24.57916 0.3203,36.86914 0,4.74 -2.65,6.31961 -7,6.34961 -5.78,0 -7.78,-1.1193 -8,-6.2793 -0.33,-8.99998 5e-4,-17.94017 -0.2695,-26.91015 -0.11,-3.83 0.8404,-8.79063 -3.8496,-10.39063 -4.38,-1.5 -7.0901,2.6111 -10.0801,5.1211 -3.59,2.99998 -4.8105,6.92931 -4.7305,11.52929 0.12,6.64 0.1889,13.30143 -0.1211,19.94141 -0.26,5.71998 -1.77,6.9 -7.33,7 -6.09,0.06 -7.7197,-1.25111 -7.9297,-7.37109 -0.24,-7 -0.059,-13.99946 -0.059,-20.93946 l 0.01,-0.041 c 0,-6 -0.08,-11.99924 0,-17.94922 0.1079,-6.785 3.3308,-10.85326 7.9571,-10.67383 z m -297.5742,0.041 a 23.36,23.36 0 0 1 3.3867,0.082 c 6.93,0.71 11.39,4.24039 12,11.15039 1.17,13.24996 0.6595,26.58111 0.2695,39.87109 -0.13,4.54 -3.5105,5.06836 -7.0605,5.06836 -3.55,0 -6.9,-0.60869 -7,-5.13867 -0.19,-8.30998 -0.069,-16.62971 -0.3086,-24.92969 -0.13,-4.50998 1.57,-10.48016 -3.42,-12.66016 -5.6398,-2.46998 -8.4608,3.66924 -12.1308,6.69922 -3.38,2.8 -4.1103,6.6093 -4.0703,10.7793 0.07,6.31998 -0.09,12.64002 -0.09,19 0,4.73 -2.62,6.34008 -7,6.33008 -4.38,-0.01 -7.1386,-1.34969 -7.1386,-6.17969 v -21.94922 l -0.061,0.01 c 0,-6.31 -0.09,-12.64002 0,-19 0.06,-2.87 -0.72,-6.51922 3,-7.69922 3.72,-1.18 8.32,-2.31053 10.75,1.93945 2.06,3.63 3.8498,2.73031 6.2598,1.07031 a 23.36,23.36 0 0 1 12.6133,-4.44335 z m 207.4668,0.64257 c 5.72,0 7.6103,1.16041 7.8203,6.40039 0.31,7.61 0.08,15.2394 0.08,22.85938 h 0.029 c 0,6.62998 0.1895,13.26088 -0.061,19.88086 -0.22,5.82998 -1.5887,6.94937 -7.1387,7.10937 -5.72,0.16 -7.7105,-1.05892 -7.8105,-6.3789 -0.27,-14.56998 -0.1,-29.15051 -0.09,-43.73047 0,-4.8 2.93,-6.14063 7.17,-6.14063 z m -262.8106,0.0508 c 4.1,10e-6 7.1199,1.36876 7.0899,6.21876 v 21.92968 l 0.1699,0.0117 c 0,6.30998 0.1011,12.62947 -0.049,18.93945 -0.07,2.86 0.69,6.55922 -3,7.69922 -3.6898,1.14 -8.22,2.21016 -11,-1.58984 -2.32,-3.2 -4.0714,-2.44875 -6.5214,-0.71875 a 28.68,28.68 0 0 1 -4.3282,2.43945 c -10.34,4.86 -24.2914,2.08029 -23.7714,-14.67969 0.32,-10.28996 0,-20.60041 0.08,-30.90039 0.09,-7.78998 1.3,-9.22007 7,-9.33007 6.11,-0.11 7.3996,1.49009 7.5196,9.83007 0.1,7.31 3e-4,14.61971 0.07,21.92969 a 30.27,30.27 0 0 0 0.5508,6.93946 c 1.11,4.53998 4.3494,6.23054 8.1894,3.81054 6,-3.77998 11.1495,-8.28963 10.6895,-16.59961 -0.37,-6.61998 0,-13.28969 0,-19.92969 0,-4.99998 3.2105,-6 7.3105,-6 z m 92.8106,0.01 c 5.77,-0.01 7.28,1.1293 7.5,6.7793 0.3,7.31998 0.08,14.65 0.08,22 l -0.041,-0.0488 c 0,6.99998 0.2499,14.00002 -0.08,21 -0.25,5.40998 -1.9493,6.5393 -7.7793,6.5293 -5.83,-0.01 -7.3496,-1.13049 -7.4296,-6.73047 -0.19,-14.30998 -0.1993,-28.62926 0.051,-42.94922 0.09,-5.37 1.9293,-6.57008 7.6993,-6.58008 z m -556.9336,9.92188 a 8.79,8.79 0 0 0 -3.7774,1.22851 c -3,1.65 -6,3.99875 -5,7.71875 0.88,3.33 4.49,1.80141 7,2.19141 a 11,11 0 0 0 1.961,-0.0117 27.28,27.28 0 0 0 3,0 c 2.2,-0.24 5.1703,0.69131 6.0703,-2.13867 1.05,-3.27 -0.8708,-5.77 -3.5508,-7.5 a 8.79,8.79 0 0 0 -5.7031,-1.48828 z m 83.4257,0.0273 a 8.38,8.38 0 0 0 -1.9824,0.0801 c -4.55,0.61 -9.5508,4.99992 -8.6308,8.16992 1.32,4.57998 5.5208,2.22125 8.1308,2.78125 v -0.0312 c 1.68,0 2.9999,0.09 4.3399,0 2.31,-0.2 4.9097,-0.18899 5.4297,-3.20899 0.52,-3.01998 -1.1091,-5.06031 -3.5391,-6.57031 a 8.38,8.38 0 0 0 -3.7481,-1.2207 z m 687.8848,1.19727 c -5.0956,0.10666 -9.7926,4.25703 -11.5176,10.61328 a 24.35,24.35 0 0 0 -0.7304,6.85937 c 0.18,8.99998 6.0009,16.55024 12.5507,16.49024 6.87,-0.02 11.8903,-6.99034 11.9903,-17.57032 a 38.7,38.7 0 0 0 -0.4903,-5 c -1.31,-6.47998 -5.5993,-10.91937 -10.7793,-11.35937 -0.3425,-0.0294 -0.6837,-0.0403 -1.0234,-0.0332 z m -581.3262,0.043 c -6.91,-0.05 -12.4411,7.07112 -12.7011,16.3711 -0.26,9.29998 5.6409,17.5782 12.5507,17.6582 6.75,0.13 13.0101,-8.4483 12.8301,-17.48828 v -0.0117 c -0.19,-8.99998 -5.9397,-16.4893 -12.6797,-16.5293 z m 905.6211,0.0371 c -3.9149,0.0125 -7.5283,2.09102 -9.9414,6.07227 -3.89,6.41998 -3.7905,13.31086 -1.3105,20.13086 1.93,5.29998 6.0005,7.89937 10.5605,7.35937 4.56,-0.54 9.3794,-4.86017 10.1094,-9.66015 0.38,-2.56 0.06,-5.25994 0.06,-7.91992 h 0.17 v -5 c -0.11,-5 -1.2204,-9.31016 -6.9004,-10.66016 -0.9244,-0.21938 -1.8446,-0.32515 -2.7481,-0.32227 z M 3979,797.64062 c -4.61,-0.08 -10.0006,3.66932 -9.8906,7.2793 0.09,3.16 1.9,4.77946 5,4.93946 a 8.1,8.1 0 0 0 8.7207,-7.46876 c 0.17,-2.38998 0.01,-4.79998 -3.8301,-4.75 z M 3654.9004,798.25 c -5.05,0 -9.6498,3.30994 -9.2598,6.91992 0.34,3.17 2.3699,4.55938 5.4199,4.60938 4.4,0.07 7.9395,-3.07938 7.9395,-7.10938 -0.12,-2.63 -0.9996,-4.40992 -4.0996,-4.41992 z m -78.3301,43.98047 a 30.08,30.08 0 0 1 11.3106,1.92969 c 2.64,0.94 6.73,1.45945 5,5.68945 -1.37,3.43 -2.5612,8.07125 -8.2012,6.78125 a 37.61,37.61 0 0 0 -4.8906,-0.93164 c -8.76,-0.78 -13.1886,3.41033 -13.0586,12.07031 0,3.78 1.2102,6.52111 5.33,7.12109 3.23,0.47 5.77,1.48024 5.67,5.49024 -0.09,3.69 -1.881,5.46945 -5.461,5.68945 -5,0.31 -5.6694,3.79049 -5.6894,7.73047 0,9.99998 0.1096,19.99947 -0.1504,29.93945 -0.17,6.52 -2.2695,8.00016 -8.6895,7.66016 -4.61,-0.22 -6.4811,-2.46947 -6.4511,-6.93945 0.06,-9.63998 0,-19.29143 -0.049,-28.94141 0,-4.31998 0.3192,-8.34 -5.6308,-10 -4,-1.15 -4.5399,-7.24039 -0.9199,-8.40039 7.1098,-2.27 6.1713,-7.5683 6.8613,-12.73828 2.03,-15.01998 10.0395,-22.13039 25.0195,-22.15039 z m -260.3105,3.99023 c 4.76,0.06 8.2897,4.19846 8.2597,9.39844 -0.03,5.2 -3.64,9.6218 -8,9.8418 -4.83,0.24 -8.7501,-4.31032 -8.6601,-10.07032 0.08,-5.33998 3.6404,-9.22992 8.4004,-9.16992 z m 511.83,0.008 c 0.143,0.003 0.2857,0.01 0.4297,0.0215 4.61,0.37 7.871,4.62994 7.711,9.91992 -0.16,5.16 -3.9997,9.42055 -8.4297,9.31055 -4.6,-0.12 -8.6113,-5.24963 -8.2813,-10.59961 0.3003,-4.90187 4.1396,-8.75284 8.5703,-8.65234 z m -188.9355,4.07031 c 6.5775,0.17625 13.1613,1.9257 19.7363,4.7207 4.51,1.91 4.5092,5.13002 2.6992,9 -1.69,3.65 -2.8289,7.88961 -8.4589,5.59961 a 45.27,45.27 0 0 0 -12.4414,-3.5293 c -3,-0.31 -5.9999,-0.34937 -8.8399,0.89063 -5.25,2.31 -5.9991,7.17 -1.6191,11 2,1.73 4.4704,2.85 6.7304,4.25 5.37,3.32 10.9284,6.38 16.0684,10 8.22,5.83998 11.4102,14.54877 9.1602,23.46875 -2.25,8.91998 -9.4393,14.85039 -19.4493,16.15039 -2.67,0.41 -5.3497,0.37953 -8.0097,0.51953 -8.23,0.48 -15.86,-1.69922 -23,-5.44922 -5,-2.63 -5.3402,-4.54939 -2.4102,-10.60937 2.67,-5.51 3.5092,-6.00141 9.1192,-3.44141 a 49.18,49.18 0 0 0 14.2011,4.5 c 5.8,0.74 10.6996,-1.38844 12.0996,-4.89844 1.49,-3.76998 -0.4904,-7.39142 -6.4804,-10.9414 -6.86,-4.08 -14.0004,-7.66977 -20.4004,-12.50977 -5,-3.76998 -8.429,-8.38002 -8.709,-15 -0.36,-8.44998 2.7788,-15 10.2988,-19 6.555,-3.5 13.1276,-4.89695 19.7051,-4.7207 z M 2942.4297,852 c 6.83,0.11 8,1.07938 8,8.35938 0.18,20.97994 0.18,41.96144 0,62.9414 0,6.99998 -1.6298,8.19938 -8.2598,8.10938 -6.63,-0.09 -7.86,-1.21946 -8,-8.43946 -0.17,-10.64998 -0.029,-21.31072 -0.029,-31.9707 0,-10.31998 -0.1811,-20.65002 0.049,-31 0.16,-7.15998 1.4102,-8.11 8.2402,-8 z m 94.5859,6.27148 c 0.5678,-0.0219 1.1835,-0.0149 1.8535,0.0176 3.52,0.17 5.6809,1.59055 5.8809,5.31055 0.1,2 0.2102,4 0.2402,6 0.05,3.48 1.4893,5.7 5.1993,6 3.5098,0.29 6.781,0.84055 6.621,5.56055 -0.14,4.11998 -3.0809,4.71015 -6.2109,4.91015 -4.29,0.27 -5.6289,2.84969 -5.6289,6.67969 0,5.32998 -0.17,10.67002 0,16 0.21,6.89998 0.3002,7.14945 7.6602,7.68945 3.47,0.25 4.4282,2.37985 5.4882,4.83985 1.25,2.90998 0.3908,5.17134 -2.1992,6.86132 -4.01,2.61 -8.3292,4.19032 -12.4492,4.07032 -8.45,0 -11.8502,-2.84088 -12.2402,-10.63086 -0.42,-8.30998 -0.1314,-16.65002 -0.1914,-25 0,-4.61 0.5714,-9.10063 -5.4786,-11.39063 -3.4598,-1.32 -3.771,-6.63984 -0.541,-8.08984 5.94,-2.66 5.8697,-7.18908 6.1797,-12.28906 0.2888,-4.7775 1.8422,-6.38594 5.8164,-6.53907 z m 242.9766,0.004 c 0.2559,0.004 0.5177,0.0158 0.7871,0.0352 4.17,-0.26 7.6401,0.68914 7.5801,5.61914 -0.07,6.28998 1.1602,11.09953 8.7402,11.76953 2.84,0.25 3.2506,3.00164 3.1406,5.43164 -0.13,2.61 -1.3701,4.62992 -4.1601,4.66992 -7.13,0.11 -7.6493,4.80924 -7.5293,10.19922 0.1,4.32 0,8.63 0,13 0,5.09998 0.3092,9.43992 7.6992,7.66992 3.79,-0.91 4.5401,2.99977 5.5801,5.75977 1.04,2.75998 -0.2092,4.58125 -2.4492,5.78125 a 43.48,43.48 0 0 1 -8.1309,3.6582 c -10.79,3.06 -16.7907,-0.9998 -17.4707,-12.25976 -0.46,-7.6 -0.1292,-15.25868 -0.1992,-22.88868 0,-4.60998 0.3596,-8.99978 -5.4004,-11.50976 A 4.51,4.51 0 0 1 3268,877 c 5.87,-2.9 5.5707,-7.65961 5.7207,-12.59961 0.1313,-4.41561 2.4329,-6.17751 6.2715,-6.125 z m 695.8574,15.07617 c 5.5092,0.0218 11.0214,1.29008 16.4102,3.51758 4.16,1.72 3.8504,4.81172 2.4004,8.26172 -1.54,3.64 -3.7009,5.38883 -7.7207,3.29883 a 22.51,22.51 0 0 0 -14.4786,-2.54883 c -2.05,0.35 -4.0016,1.13867 -4.4316,3.38867 -0.43,2.25 0.9999,3.80992 2.9199,4.66992 4.22,2 8.611,3.56008 12.791,5.58008 10.23,4.93 13.7098,10.7901 11.7598,19.33008 -1.82,7.99998 -8.5107,12.74961 -18.8105,13.34961 -1.33,0.08 -2.6894,0.0117 -2.8594,0.0117 a 40.79,40.79 0 0 1 -18.5703,-3.60156 c -4,-1.8 -4.1595,-4.57946 -2.6895,-8.18946 1.55,-3.82998 4.0006,-5.16031 7.8106,-3.32031 4.87,2.34 9.8884,3.99992 15.3984,3.16992 2,-0.29 4.0705,-0.86992 4.5605,-3.16992 0.49,-2.3 -0.9407,-3.88883 -2.8007,-4.79883 -3,-1.45 -6.0797,-2.68086 -9.1797,-3.88086 -3.75,-1.45 -7.4202,-2.9993 -10.4102,-5.7793 -9,-8.27998 -6.5885,-22.42142 5.1113,-26.9414 4.2219,-1.6275 8.5042,-2.36458 12.7891,-2.34766 z m -102.5898,0.40821 c 5,0 10.0001,0.32095 14.6601,2.46093 2.46,1.13 5.3092,2.43008 3.6992,5.83008 -1.48,3.14 -2.5582,7.23828 -7.4082,6.73828 -1.29,-0.14 -2.4817,-0.99812 -3.7617,-1.32812 -8.15,-2.28 -14.8298,0.37916 -18.5898,7.36914 -3.76,6.98998 -2.09,17.25 3.75,22 5.08,4.10998 10.5203,3.23039 16.0703,1.15039 3.15,-1.18 6.2199,-2.5207 8.6699,1.5293 3.34,5.50998 2.5695,8.31992 -3.4805,10.66992 a 22.54,22.54 0 0 1 -4.789,1.37109 c -2.99,0.45 -5.9901,0.59922 -7.0801,0.69922 -20.09,0.12 -30.9505,-10.20996 -31.2305,-27.91992 -0.29,-18.11996 11.5403,-30.39031 29.4903,-30.57031 z m -177.0313,0.082 c 1.5313,-0.008 3.0977,0.0994 4.6914,0.32812 11.94,1.71 20.7509,14.66971 18.3809,26.67969 -0.75,3.8 -3.1109,4.80008 -6.3809,4.83008 -7,0.08 -14,-8e-5 -21,0.16992 -2.53,0.06 -5.9301,-1 -7.1601,2 -1.45,3.5 0.9293,6.32945 3.3593,8.68945 4.33,4.18 9.62,4.14086 15,2.88086 a 61.3,61.3 0 0 0 7.4707,-2.80078 c 3.67,-1.38 5.55,0.67063 7,3.64063 1.63,3.24998 0.9993,5.68953 -2.2207,7.51953 A 34.53,34.53 0 0 1 3697,932.25977 c -20.31,0.09 -29.4301,-10.55059 -28.0801,-31.81055 0.9969,-15.69623 12.5064,-26.53004 27.3086,-26.60742 z m -556.2226,0.0488 a 31.89,31.89 0 0 1 4.4746,0.26954 c 7.24,1.14 14.429,2.23 21.789,1.75 2.38,-0.15 4.8001,0.24031 5.5801,3.07031 0.78,2.83 0.7305,5.72984 -2.2695,6.83984 -3.95,1.47 -4.3006,4.2093 -4.5606,7.7793 -1,13.53998 -7.6692,20.38086 -20.9492,22.13086 -3.41,0.44 -9.4406,-0.94014 -9.1406,3.33984 0.36,5 6.42,2.41055 10,2.81055 4.27,0.49 8.6699,-9.4e-4 12.9199,0.53906 9.22,1.23 13.7608,7.8894 12.0508,17.10938 a 20.66,20.66 0 0 1 -8.1309,13.25976 c -6.15,4.62 -14.2398,7.21094 -24.3398,7.21094 a 29,29 0 0 1 -15.3496,-3.76953 c -7,-4.16 -8.8999,-9.74002 -4.6699,-16.75 2.47,-4.11 3.5892,-7.08977 0.4492,-11.50977 -2.69,-3.79998 -0.4389,-7.78978 2.8711,-10.50976 3.58,-2.94 3.9193,-5.63141 0.8593,-9.19141 a 18.94,18.94 0 0 1 -3.1796,-6.15039 c -4.64,-13.39998 3.1189,-26.04914 17.1289,-27.86914 a 31.89,31.89 0 0 1 4.4668,-0.35938 z m 98.3437,0 a 67,67 0 0 1 7,0.37891 c 8.3,1.29 13.0604,6.24063 13.6504,14.64063 0.37,5.28998 0.07,10.62945 0.1895,15.93945 0.13,5.57998 -0.7092,11.22133 2.8808,16.36133 1.81,2.59998 0.92,5.88844 -1,8.39844 a 6.15,6.15 0 0 1 -8.1699,1.48046 c -6,-3.91998 -11.1604,-1.13984 -16.9004,0.41016 -13,3.51 -22.74,-4.67002 -21,-17 0.91,-6.36998 4.8891,-10.00055 10.5391,-12.06055 4.69,-1.7 9.57,-2.82906 14.25,-4.53906 4.68,-1.71 5.6204,-4.89094 3.4004,-9.46094 -2,-4.14998 -6.2299,-5.53984 -9.8399,-2.33984 -3.61,3.2 -6.7896,6.17992 -11.8496,6.41992 -4.51,0.22 -5.9998,-1.31961 -5.2598,-5.84961 a 13,13 0 0 1 7.5703,-9.88086 30.09,30.09 0 0 1 14.5391,-2.89844 z m -150.4355,0.0566 c 1.0324,-0.0185 2.085,0.0105 3.1562,0.0918 13,1 23.1591,13.82043 21.2891,26.65039 -0.54,3.73 -2.7301,5 -6.1699,5 -7,0 -14.0002,-0.0698 -21,0.16016 -3.09,0.1 -7.3,-0.99945 -8,3.81055 -0.57,4.12998 2.1207,6.93976 5.4707,8.75976 5.85,3.16 11.6507,1.52061 17.3007,-0.85937 3.6,-1.51 6.9282,-2.61078 9.3282,1.94922 2.25,4.28998 1.7613,6.61087 -2.6387,8.88085 a 35.51,35.51 0 0 1 -17.5606,3.87891 c -19.4898,0.07 -29.0002,-10.23965 -28.2402,-29.84961 0.6469,-16.87496 11.5778,-28.1947 27.0645,-28.47265 z m 836.0488,0.0137 c 0.5277,0.003 1.0605,0.0195 1.5976,0.0488 13.07,0.70998 23.17,13.39939 21.25,26.35937 -0.65,4.36 -3.26,5.35133 -7,5.36133 -6.9998,0 -14,-10e-4 -21,0.13867 -2.52,0.06 -5.76,-0.68828 -7,2.51172 -1.24,3.2 0.699,5.8 2.879,8 3.9498,3.94 8.89,4.35836 14,3.31836 a 25.85,25.85 0 0 0 7.4296,-2.81836 c 4.41,-2.48 6.6113,-0.66164 8.5313,3.31836 2.17,4.48998 0.3191,6.68103 -3.6309,8.54101 a 37.2,37.2 0 0 1 -17.1504,3.50977 c -19.1598,1.54 -29.1591,-13.43049 -28.6191,-28.48047 0.6491,-17.65059 12.3537,-29.91394 28.7129,-29.80859 z m -562.6621,0.0195 c 15.65,0.24 27.5283,13.00043 27.3183,29.40039 -0.21,17.11996 -12.1195,29.03891 -28.8593,28.87891 -15.89,-0.16 -27.7497,-12.43067 -27.9297,-28.89063 -0.19,-17.06996 12.4107,-29.63867 29.4707,-29.38867 z M 3512.6797,874 c 16.4,0 28.3799,12.48949 28.1699,29.43945 -0.22,17.25998 -11.87,28.99985 -28.75,28.83985 -16.34,-0.11 -27.2095,-11.61848 -27.2695,-28.89844 C 3484.7601,885.6109 3495.7497,874 3512.6797,874 Z m -511.1699,0.25977 c 7.76,0.23 12.9993,3.78994 14.1093,11.41992 2,13.49996 0.8911,27.16955 0.6211,40.76953 -0.08,4.47998 -3.6494,5.0014 -7.1894,4.9414 -3.81,0 -7.6799,-0.26064 -7.8399,-5.39062 -0.2,-6.63998 -0.1316,-13.28969 -0.1816,-19.92969 a 54.19,54.19 0 0 0 0,-6 c -0.51,-4.30998 1.8007,-9.92 -4.2793,-12 -4.1,-1.39 -12.6491,5.47963 -13.6191,11.09961 -0.73,4.21 -0.4511,8.60016 -0.5411,12.91016 -0.08,3.99998 0.1404,8 -0.1,12 -0.36,6.13998 -2,7.48054 -8,7.31054 -5.59,-0.15998 -7.0793,-1.35 -7.2793,-7 -0.26,-7.29998 -0.07,-14.60992 -0.07,-21.91992 l -0.08,-0.0215 c 0,-6 -0.08,-11.99947 0,-17.93945 0.15,-8.88 5.8902,-12.84 13.4102,-8 4.33,2.78998 6.8402,2.34117 10.4902,0.20117 a 19.36,19.36 0 0 1 10.5489,-2.45117 z m 431.5703,0.0293 c 7.8,0.44 13.0008,4.40135 13.3808,12.11133 0.63,12.99998 0.2491,26.00002 0.2891,39 0,5 -3.2007,6 -7.3105,6 -5.69,0.05 -7.4795,-1.14133 -7.6895,-6.61133 -0.33,-8.31998 -5e-4,-16.66002 -0.2305,-25 -0.11,-4.11998 1.5505,-9.63851 -3.5195,-11.47851 -5.24,-1.9 -8.1703,3.24023 -11.5703,6.24023 -3,2.66 -3.5706,6.22002 -3.5606,10 0,6.66998 0.1514,13.34002 -0.1386,20 -0.24,5.58 -1.8307,6.79986 -7.4707,6.83984 -5.64,0.04 -7.2993,-1.16103 -7.5293,-6.79101 -0.2898,-7.3035 -0.071,-14.63702 -0.07,-21.98047 0,-6.33998 -0.17,-12.67002 0,-19 0.25,-7.90998 8.0005,-12.37959 13.3105,-6.84961 4.26,4.43 6.2892,2.63969 9.6992,0.67969 a 21.88,21.88 0 0 1 12.4102,-3.16016 z m -227.6934,0.10938 c 1.611,0.033 3.2167,0.66633 4.7129,1.75195 2.66,1.93 2,4.60025 1.25,7.24023 -1.24,4.21 -2.3405,7.78963 -8.0605,8.59961 -7,1 -9.1496,7.21065 -9.8496,13.39063 -0.56,4.92998 -0.2386,10 -0.3086,15 -0.12,9.47998 -1.2207,11.11 -7.3907,11 -5.79,-0.12 -6.8599,-1.60096 -6.9199,-10.46094 -0.08,-11.65998 -0.1497,-23.32002 0.07,-35 0.06,-3.65998 -1.4912,-8.42031 4.2188,-9.82031 5.07,-1.26 8.2208,0.90103 9.3808,6.79101 4,-3.29998 6.4197,-5.65015 9.1797,-7.41015 1.2075,-0.77 2.4639,-1.10768 3.7168,-1.08203 z m 549.7168,0.24609 c 5.7507,-0.21241 11.9878,1.99774 17.7871,1.75586 2.48,-0.1 3.4194,2.88891 4.1094,5.12891 1.67,5.39998 3.0899,10.89025 4.9199,16.24023 1.15,3.36 1.1698,7.29039 4.2598,9.90039 3.25,-1.58 3.1406,-5.00064 4.1406,-7.64062 2.22,-5.92 3.9988,-11.99994 6.2188,-17.91992 2.22,-5.92 7.9515,-8.10913 13.6015,-5.86915 2.51,1 2.5089,2.85915 1.8789,4.86915 -1,3.16998 -2.14,6.30015 -3.33,9.41015 -4.39,11.49998 -9,22.92979 -13.17,34.50977 -1.78,4.93998 -4.9296,6.48093 -9.8496,6.46093 -4.92,-0.02 -8.0608,-1.90078 -9.6308,-6.80078 -3.24,-10.13998 -6.7283,-20.19978 -10.2383,-30.25976 -1.06,-3 -1.3099,-6.53961 -4.8399,-9.34961 -2.33,4.10998 -5.8604,6.13922 -10.4804,7.44922 -5.68,1.61 -7.6713,7.00072 -7.7813,12.7207 -0.13,6.31998 0.09,12.66002 -0.2597,19 -0.32,5.86998 -2.3401,7.37039 -8.3301,7.15039 -5.39,-0.19 -6.8299,-1.39086 -6.9199,-7.38086 -0.2,-13.31998 -0.12,-26.63002 0,-40 0,-3.21 -0.5004,-7.11017 4.0996,-7.91015 4,-0.69 8.1418,-1.07891 9.8418,4.12109 0.09,0.51 0.8691,0.76961 1.8691,1.59961 3.4519,-5.39 7.6307,-7.02034 12.1035,-7.18555 z m -439.2519,1.17578 c 0.2494,-0.004 0.5015,-0.004 0.7578,0 3.83,0 6.5301,1.30985 6.5801,5.58985 0.07,7.27998 0,14.56009 0,21.83007 h 0.1 v 21.83985 c 0,4.79998 -2.75,6.25953 -7,6.26953 -4.25,0.01 -7.1682,-1.20008 -7.1582,-6.08008 0,-14.55996 0,-29.11971 0.068,-43.67969 0,-4.62186 2.9104,-5.70203 6.6524,-5.76953 z m 511.3593,0.0176 c 0.309,-0.005 0.6319,-0.004 0.9688,0.002 5.39,0.1 6.5805,1.28063 6.8105,7.39063 0.25,6.60998 0.061,13.23939 0.061,19.85937 h 0.049 c 0,6.94 0.1695,13.89985 -0.061,20.83985 -0.19,5.99998 -1.6586,7.32015 -6.8086,7.41015 -5.33,0.09 -7.2208,-1.33017 -7.3008,-6.91015 -0.2133,-13.88665 -0.2133,-27.78281 0,-41.68946 0.094,-5.35311 1.6463,-6.8221 6.2812,-6.90234 z m -686.6308,8.94141 c -4.34,0.22 -7.7499,4.56056 -7.6699,9.81054 v 0.01 c 0.08,5.25998 3.5892,9.21047 8.1992,9.23047 4.61,0.02 8.1402,-3.99924 8.2402,-9.19922 0.11,-5.47 -3.9995,-10.07156 -8.7695,-9.85156 z m 554.2226,0.44531 a 9.32,9.32 0 0 0 -4.2734,1.27539 c -2.7,1.52 -5.3384,3.69 -4.5684,7 0.77,3.31 4.2596,2.34016 6.7696,2.66016 a 14.83,14.83 0 0 0 1.9492,0.01 h 0.041 a 24.83,24.83 0 0 0 3,0 c 2.48,-0.31 5.9095,0.59928 6.2695,-3.2207 0.31,-3.33 -1.8205,-5.55914 -4.8105,-6.86914 a 9.32,9.32 0 0 0 -4.377,-0.85547 z m 228.1328,0.0137 a 9.84,9.84 0 0 0 -3.8554,0.5918 c -3.7,1.23 -6.8794,3.63914 -6.3594,7.61914 0.52,3.97998 4.6798,2.26 7.3398,2.75 a 5.33,5.33 0 0 0 0.9903,-0.01 v -0.0586 c 1.3,0 2.6201,0.09 3.9101,0 2.57,-0.23 5.5298,-0.0612 5.7598,-3.78125 0.18,-3 -1.47,-4.92016 -4,-6.16016 a 9.84,9.84 0 0 0 -3.7852,-0.95117 z m -834.6601,0.46484 a 11.38,11.38 0 0 0 -4.5449,0.55665 c -3.41,1.13998 -6.1211,3.43109 -5.6211,7.12109 0.46,3.48 3.9997,2.46883 6.5097,2.79883 a 14.36,14.36 0 0 0 1.9317,0 29.21,29.21 0 0 0 3,0 c 2.52,-0.24 5.9985,0.52054 6.4785,-2.93946 0.53,-3.69998 -1.9102,-6.11109 -5.4902,-7.12109 a 11.38,11.38 0 0 0 -2.2637,-0.41602 z m 271.9141,0.33594 c -6.67,0.08 -12.9001,8.85119 -12.5801,17.70117 0.34,9 6.1808,16.41 12.8808,16.25 6.7,-0.16 12.3398,-7.63009 12.5098,-16.58007 0.13,-9.32998 -5.8607,-17.4511 -12.8105,-17.3711 z m 152.4804,0.0508 c -6.85,-0.15 -13.0095,8.24065 -12.7695,17.39063 V 903.5 c 0.22,9.07998 5.8491,16.48953 12.5391,16.51953 7.1998,0 12.9007,-7.69025 12.7207,-17.24023 -0.17,-8.83998 -5.9503,-16.55946 -12.4903,-16.68946 z m -272.2969,22.25782 c -4.2464,-0.0294 -10.0773,3.32266 -10.2929,6.33203 -0.24,3.52998 1.6907,5.45984 4.7207,5.83984 4.7,0.29 9.3797,-3.21861 9.6797,-7.05859 0.19,-2.41 -0.1613,-4.68055 -3.2813,-5.06055 -0.2669,-0.0331 -0.5431,-0.0508 -0.8262,-0.0527 z m -872.2226,15.67187 c 5.5,-0.14 6.6398,0.84985 5.8398,6.33985 -2.37,16.14968 -5.001,32.26117 -7.541,48.38085 -11.0466,69.41849 -22.1063,138.83369 -33.1797,208.24029 -10.4266,65.4651 -20.8588,130.9338 -31.2988,196.4004 -12.24,76.985 -24.4602,153.9867 -36.6602,231 -10.4651,65.7984 -20.9573,131.5969 -31.4707,197.3886 -10.2984,64.8066 -20.5593,129.6277 -30.7793,194.461 -2.81,17.76 -5.5404,35.539 -8.4804,53.289 -1.64,9.93 -2.0895,10.261 -12.1895,10.291 -28.0251,0.033 -56.0394,0.025 -84.0312,-0.021 h -79 c -2.33,0 -4.68,0.1016 -7,-0.068 -6.23,-0.44 -6.8687,-1.0009 -5.8887,-7.3809 4.3067,-28.3318 8.7295,-56.6399 13.2695,-84.9199 10.3934,-65.4651 20.8131,-130.9384 31.2598,-196.4101 10.4467,-65.4733 20.8757,-130.942 31.2891,-196.4004 12.9184,-81.2584 25.8242,-162.524 38.7109,-243.7891 10.4667,-65.7984 20.9605,-131.5957 31.4805,-197.3808 9.48,-59.5467 18.9342,-119.1018 28.3593,-178.66022 1.49,-9.35984 1.4394,-9.47008 10.8594,-11.08008 57.14,-9.73317 114.2912,-19.43 171.4512,-29.08984 a 36.08,36.08 0 0 1 5,-0.58985 z m 776.6523,10.25977 c -0.7575,0.005 -1.7727,0.0215 -3.3027,0.0215 v 0.01 a 42.92,42.92 0 0 0 -5.8906,0.36914 6.65,6.65 0 0 0 -5.7598,6.06054 c -0.51,3.66 2.0701,5.48063 5.0801,6.39063 a 17.39,17.39 0 0 0 14.4394,-1.56055 c 3.09,-1.84 7.1511,-3.89945 5.8711,-8.18945 -1.16,-3.9 -5.4697,-2.82055 -8.6797,-3.06055 -0.5,-0.04 -1.0003,-0.046 -1.7578,-0.041 z m -134.0312,452.79102 c 3.6033,-0.1092 3.8976,1.6705 4.0176,7.7305 0.18,8.67 0,17.33 0,26 l 0.1015,235.9297 v 243 c 0,20.0686 1.6085,39.9297 7.8985,59.1797 10,30.5586 27.7029,41.44 57.8515,43 30.85,1.61 60.2817,-4.7811 88.5703,-16.8711 1.23,-0.53 2.4385,-1.0789 3.6485,-1.6289 3.66,-1.66 5.7199,-0.3411 6.4199,3.4589 1,5.24 2.0006,10.4807 2.8906,15.7207 2.19,12.47 4.4507,24.93 6.4707,37.42 1.44,8.92 0.8195,10.0002 -7.5605,13.7402 -25.22,11.17 -51.8299,17.0598 -79.0899,20.2598 -22.9986,2.7 -45.8805,1.1808 -68.5605,-3.3692 -43.77,-8.79 -72.4892,-34.5503 -86.6192,-76.8203 -6.8186,-20.38 -9.7314,-41.49 -11.5214,-62.75 -1.9,-22.59 -2.0686,-45.2515 -2.0586,-67.9101 0.093,-148.9786 0.093,-297.9591 0,-446.9297 0,-17.48 0.1495,-14.6199 14.7695,-17.5899 19.26,-3.93 38.5992,-7.4399 57.9492,-10.9199 2.0525,-0.3675 3.6212,-0.614 4.8223,-0.6504 z m 686.1035,1.3535 c 3.8358,0.024 4.4078,2.0272 4.4453,8.416 0.14,25 0.07,50.0012 0.07,75 v 141.9395 c 0,12.64 3e-4,12.6403 11.7403,7.3203 31.9988,-14.58 65.3309,-22.5694 100.7597,-20.9394 67.7266,3.12 118.5221,33.9956 152.3887,92.6289 17.56,30.4688 26.7099,63.75 30.9199,98.5 4.67,38.6288 4.1298,77.0923 -4.289,115.2011 -9.55,43.26 -28.4105,81.7101 -60.5293,112.8301 -30.45,29.49 -67.3702,45.9192 -108.9102,52.6992 -31.84,5.19 -63.7225,3.3204 -95.6113,0.6504 -31.3,-2.63 -61.9115,-9.0704 -92.3203,-16.6504 -2.91,-0.72 -5.7697,-1.6598 -8.6797,-2.3398 -4.89,-1.15 -7.5085,-3.9102 -7.2285,-9.1602 0.16,-3 0,-6 0,-9 V 1726.631 1415.7696 c 0,-14.66 0,-14.7389 14.08,-17.1289 19.3667,-3.3333 38.7454,-6.5566 58.1387,-9.6699 2.105,-0.3425 3.7468,-0.5548 5.0254,-0.5469 z m -308.6152,211.4356 c 6.2452,0.01 12.495,0.1397 18.75,0.4004 35.3387,1.47 69.4695,7.9317 100.2695,26.7304 28.34,17.3 46.91,42.0001 56,73.8301 a 262.72,262.72 0 0 1 9.6504,71.0801 c 0.07,43.6687 -0.039,87.32 -0.039,130.9687 v 138 c 0,2.67 0.08,5.34 0,8 -0.36,7 -0.92,7.83 -8,9 -15.11,2.54 -30.2508,4.8318 -45.3808,7.2618 -39.18,6.32 -78.6089,10.5782 -118.2989,10.1582 -32.9987,-0.34 -65.9116,-3.1586 -97.6816,-13.2286 -33.8,-10.7087 -62.0002,-28.9112 -80.1602,-60.5312 -9.8087,-17.14 -14.3593,-35.8398 -15.8593,-55.2598 -0.95,-12.26 -1.159,-24.6499 0.541,-36.9199 6.2,-44.6987 32.1807,-74.9205 70.6894,-95.7305 22.29,-11.9987 46.5604,-17.7488 71.4004,-21.5488 43.32,-6.63 86.331,-4 129.1797,4 2.62,0.49 5.2294,1.0605 7.8594,1.4805 3.8,0.61 5.65,-1.2414 5.75,-4.9414 0.68,-24.46 -0.1391,-48.7901 -10.2891,-71.5801 -10.86,-24.38 -30.0614,-39.279 -55.4414,-46.709 -17.88,-5.24 -36.2103,-4.8305 -54.539,-4.8105 -33.54,0 -66.3399,5.1706 -98.5899,14.1406 -1.29,0.36 -2.6311,0.55 -3.8711,1 -4.69,1.73 -6.7887,-0.2099 -7.4687,-4.8399 -1.73,-11.8587 -3.6302,-23.6907 -5.4102,-35.5507 -0.85,-5.59 -1.6998,-11.1916 -2.3398,-16.8203 -0.88,-7.74 -0.5703,-8.48 6.6797,-11 14.8687,-5.06 30.2597,-7.9999 45.7597,-10.3399 24.75,-3.705 49.6292,-5.9198 74.5957,-6.209 2.0806,-0.024 4.1624,-0.034 6.2442,-0.031 z m 407.58,72.1289 c -30.7825,-0.1132 -58.9229,10.4547 -85.4589,27.8125 -6.88,4.5 -9.23,10.1102 -9.17,18.289 0.36,43.6 0.1797,87.2502 0.1797,130.9102 v 133 c 0,11.66 0.1191,11.45 11.7891,14.25 a 242.21,242.21 0 0 0 79.4394,5.6699 c 50.42,-4.7 87.8013,-29.0003 108.5313,-76.3203 a 156.19,156.19 0 0 0 9.7695,-31.4492 c 7.43,-36.34 7.0001,-72.7614 1.0801,-109.2402 -3.24,-19.88 -8.7194,-38.9997 -18.6094,-56.6797 -17,-30.38 -42.2297,-49.1799 -76.9297,-54.5899 -4.875,-0.7587 -9.6844,-1.2494 -14.4297,-1.4863 -2.0756,-0.1036 -4.1392,-0.1585 -6.1914,-0.166 z m -386.6113,182.3691 c -11.4379,0.059 -22.9043,0.7515 -34.3984,2.1231 -21.07,2.51 -41.2202,7.8586 -58.6602,20.8086 -16.83,12.49 -26.3597,28.8603 -26.6797,50.0703 a 95.71,95.71 0 0 0 3.709,27.6308 c 4.42,15.54 13.87,27.0904 28,34.9004 a 109.38,109.38 0 0 0 33.8106,11.8692 c 43.5087,7.82 86.9503,4.1196 130.3203,-1.4004 7.52,-1 7.6902,-1.6389 7.7402,-10.0489 0.05,-19.3087 -0.07,-38.6311 -0.07,-57.9511 0,-19.33 0.07,-38.65 0,-58 -0.05,-8.74 -0.7,-9.3892 -9,-11.6992 -1.6,-0.44 -3.2391,-0.7499 -4.8691,-1.0899 -21.5625,-4.4625 -43.231,-6.9682 -65.002,-7.1992 -1.6328,-0.017 -3.2664,-0.022 -4.9004,-0.014 z" />
    <path
       class="cls-2"
       d="m 1261.09,0 c -0.32,0.67 -2,0.83 -0.71,2.12 1.89,1.81 4.33,1.43 6.59,1.68 q 208.83,22.92 361.17,167.58 c 54.28,51.43 97,111.36 129.18,178.78 5.08,10.63 6.79,9.12 -5.53,14.73 q -35.89,16.35 -71.83,32.65 c -8.89,4 -8.48,5.25 -13.14,-4.49 a 510.39,510.39 0 0 0 -88,-129.13 q -85.56,-91.5 -203.44,-133.69 c -57.6,-20.79 -117.21,-31.2 -178.35,-29.69 -133.32,3.29 -249.43,49.92 -347,141.34 -36.25,33.95 -66.21,72.9 -91.11,115.82 -4.26,7.33 -4.34,7.34 -11.95,3.12 Q 711.1,341 675.3,321.09 c -8.2,-4.56 -8.23,-4.66 -3.79,-12.39 A 603.1,603.1 0 0 1 754.89,195.5 Q 885.27,56.84 1071.05,15 a 551.77,551.77 0 0 1 69,-11.15 35.75,35.75 0 0 0 6.84,-1.2 c 1.51,-0.45 1.81,-1.64 0.24,-2.69 z"
       id="path1565"
       style="fill:#ffffff;stroke-width:50.85" />
    <path
       class="cls-2"
       d="m 1791.06,590.9 c -0.3,12 -2.9,22.69 -4.59,33.47 q -16.58,105.57 -33.61,211.07 -7.24,45.38 -14.46,90.76 c -1.4,8.62 -1.4,8.8 7.6,8.8 q 83.49,0.07 167,0 c 18.33,0 36.66,-0.07 55,0 7.55,0 7.9,0.5 6.68,8.12 q -11.17,70.05 -22.49,140.09 c -1.56,9.68 -1.72,9.74 -10.9,9.74 -55.66,0 -111.32,0.3 -167,-0.16 -18.32,-0.15 -36.65,-0.16 -55,-0.59 -5.43,-0.13 -7.49,1.73 -8.29,7.15 q -12.87,87 -26.16,173.85 -14.51,95.28 -29.2,190.55 c -8.92,58.25 -17.68,116.52 -26.75,174.74 q -15.32,98.21 -31,196.33 c -0.67,4.25 -2.39,9.06 1.35,12.29 4.33,3.75 8.94,0.59 13,-1.52 12.51,-6.55 23.23,-15.62 33.48,-25.15 25.87,-24 51.66,-48.16 77.12,-72.61 32.45,-31.16 66.21,-60.87 99.43,-91.17 19,-17.31 36.51,-36.06 54.87,-54 1.9,-1.86 3.83,-3.71 5.68,-5.63 2.06,-2.13 3.93,-2 5.78,0.28 1.25,1.56 2.59,3 3.88,4.57 q 39.66,47 79.31,94 c 7.59,9 7.33,7.15 -1,15.63 -50.79,52 -104.55,100.83 -158,150 -81.36,74.85 -168.48,142.24 -263.88,198.54 -19,11.2 -38.26,21.69 -59,29.2 -12.59,4.56 -25.5,7.76 -39,7.72 -22.87,-0.07 -37.92,-10.6 -45.28,-32.18 -5.55,-16.25 -7.23,-33.15 -6.79,-50.24 1.19,-45.94 3.71,-91.84 6.81,-137.68 1.61,-23.89 5.24,-47.65 8.2,-71.44 10.89,-87.58 26.54,-174.44 39.78,-261.66 14.15,-93.16 29.14,-186.18 43.82,-279.25 8.34,-53 17,-105.85 25.07,-158.84 2.39,-15.6 3.75,-13.34 -11.41,-13.31 q -95,0.16 -189.94,0.62 c -2.33,0 -4.67,0 -7,0 -7.7,-0.23 -8.19,-0.65 -6.68,-8 9.72,-47.61 19.67,-95.19 29.13,-142.86 1.23,-6.16 4,-7.23 9.39,-7.2 32,0.17 64,0.08 96,0.08 q 49,0 98,0 c 9.27,0 9.33,-0.1 10.8,-9 q 19.31,-117.29 38.58,-234.58 5,-30.55 10.07,-61.1 c 0.73,-4.44 1.63,-7.66 7.48,-8.62 60.12,-9.94 120.16,-20.28 180.23,-30.49 0.92,-0.22 1.89,-0.22 3.89,-0.32 z"
       id="path1567"
       style="fill:#ffffff;stroke-width:50.85" />
    <path
       class="cls-2"
       d="m 916.16,1012.88 c -1.16,3.52 -4,5.92 -6.35,8.66 Q 863.1,1077 816.29,1132.27 c -1.29,1.53 -2.69,3 -3.83,4.61 -2.4,3.4 -4.51,2.54 -7.31,0.25 -10,-8.24 -20.09,-16.51 -30.5,-24.26 -33.44,-24.92 -69.45,-44.66 -110.69,-53.4 -72.88,-15.44 -141,-3.68 -203.89,36.42 -38.13,24.3 -69.5,55.85 -96.94,91.44 -47.44,61.51 -82.37,129.73 -107.85,202.91 -21.43,61.57 -35,124.92 -42.52,189.64 -6.06,52.36 -8.95,104.88 -7.19,157.55 1.26,37.67 4.89,75.12 17.32,111.12 4.7,13.61 10.68,26.56 19.21,38.23 19.19,26.26 45.3,37 77.35,34.48 30.71,-2.44 59.17,-12.42 86.62,-25.74 38.56,-18.71 73.69,-42.8 107.42,-69 41.07,-32 79.49,-66.92 116.7,-103.26 34.81,-34 68.23,-69.31 101,-105.22 5.75,-6.29 5.81,-6.3 12.34,-0.81 q 48.2,40.55 96.33,81.15 c 2.25,1.91 4.92,3.49 6.19,6.37 -0.28,2.15 -1.87,3.47 -3.1,5 -61.54,74.27 -127.27,144.48 -201.23,206.64 -54,45.38 -111.44,85.6 -175,116.65 -51.24,25 -104.68,43 -161.33,50.38 -36.46,4.73 -73.06,6.11 -109.34,-2 -53.54,-12 -95,-42.08 -127.09,-85.86 C 40.71,1957.03 23.6,1913.63 13.09,1867.36 4.22,1828.12 0.55,1788.4 0.08,1748.33 A 1125.23,1125.23 0 0 1 9.3,1587.86 c 13.18,-99.73 40,-195.51 83.56,-286.4 39.61,-82.63 90.25,-157.79 153,-224.62 55.78,-59.44 119.52,-108 195.51,-139.17 51.36,-21.1 104.8,-32.36 160.22,-34.69 116.76,-4.9 219.4,31.82 309.79,104.81 1.76,1.46 3.78,2.72 4.78,5.09 z"
       id="path1569"
       style="fill:#ffffff;stroke-width:50.85" />
    <path
       class="cls-2"
       d="m 1250.31,921.05 c 1.56,2.05 0.69,4.41 0.33,6.63 q -12.35,77.42 -24.77,154.83 -12.4,77.91 -24.7,155.84 -15.59,98.14 -31.24,196.27 -13.56,85.32 -27,170.65 -13.5,84.82 -27.1,169.63 -14.51,91.23 -28.86,182.49 -8,50.79 -16.17,101.58 c -1.25,7.83 -1.38,8 -9.5,8 q -85,0.06 -170,0 c -1.33,0 -2.66,-0.06 -4,0 -3.8,0.05 -5.42,-1.48 -4.75,-5.52 1.83,-11.17 3.36,-22.39 5.13,-33.57 q 13.77,-86.79 27.6,-173.58 16.53,-103.56 33.12,-207.1 14.51,-91.23 28.84,-182.5 c 9,-56.54 18.15,-113.06 27.15,-169.6 q 12.48,-78.42 24.81,-156.85 12.33,-78.43 25,-156.82 c 0.94,-5.91 1.94,-11.82 2.8,-17.75 1.61,-11.12 1.56,-11.21 12.17,-13 q 36.42,-6.24 72.87,-12.32 52.18,-8.8 104.38,-17.58 c 1.28,-0.24 2.58,-0.7 3.89,0.27 z"
       id="path1571"
       style="fill:#ffffff;stroke-width:50.85" />
    <path
       class="cls-2"
       d="m 948.28,472.58 c -15.22,-8.42 -29.77,-16.45 -44.31,-24.5 Q 886.5,438.39 869,428.67 c -8.18,-4.58 -8.21,-4.65 -3.67,-12.41 a 383.77,383.77 0 0 1 67.85,-86 c 59.87,-56.52 130.64,-91.3 212,-103.68 77.79,-11.84 152.79,-1.11 224,32.38 83.13,39.08 145,100.29 186.11,182.48 0.59,1.19 1.22,2.36 1.77,3.58 3.09,6.83 3.15,7 -3.92,10.2 q -37.2,17.07 -74.49,34 c -9.29,4.23 -9.32,4.21 -13.84,-4.79 -19.88,-39.63 -47,-73.38 -82.14,-100.48 -57.08,-44.05 -121.92,-65.15 -193.81,-61.31 -74,3.94 -138,32.58 -191.12,84.59 A 274.63,274.63 0 0 0 954.16,463 c -1.7,2.8 -3.45,5.6 -5.88,9.58 z"
       id="path1573"
       style="fill:#ffffff;stroke-width:50.85" />
    <path
       class="cls-2"
       d="m 1303.15,626.66 c -1.28,56.86 -24.64,103.26 -67.83,139.76 -18.07,15.27 -39.53,22.91 -63.4,23.64 -14.93,0.46 -27.31,-5 -38,-15 -15.19,-14.2 -24.8,-32.07 -32.41,-51.06 -9.53,-23.76 -13.2,-48.74 -14.12,-74.19 -0.15,-4.33 0.12,-8.67 0,-13 -1.75,-47.35 17.38,-86.73 47.07,-121.8 16.48,-19.47 36.63,-33.91 62,-39.78 a 139.41,139.41 0 0 1 17.72,-2.85 c 22.24,-2.21 38.38,8.52 51.43,25.09 18.14,23 28.25,49.63 33.39,78.22 a 272.74,272.74 0 0 1 4.15,50.97 z"
       id="path1575"
       style="fill:#ffffff;stroke-width:50.85" />
  </g>
</svg>
