<svg xmlns="http://www.w3.org/2000/svg" viewBox="0 0 608.99 131.96"><defs><style>.cls-1{fill:#5f5e5e;}.cls-2{fill:#e52713;}</style></defs><title>insa_couleur</title><g id="Calque_2" data-name="Calque 2"><g id="Calque_1-2" data-name="Calque 1"><path class="cls-1" d="M376.27,2.46H379V24.94h-2.77Z"/><path class="cls-1" d="M382.72,2.46h3.59l7.43,18.76h.06V2.46h2.77V24.94h-3.81l-7.21-18.2h-.06v18.2h-2.77Z"/><path class="cls-1" d="M409.85,8.28c0-2.36-.85-4-3.5-4-2.33,0-3.71,1.26-3.71,3.65,0,6.33,10.61,2.56,10.61,10.78,0,5.19-3.81,6.67-7,6.67-5.26,0-6.8-2.71-6.8-7.49h2.77c0,2.52.16,5.23,4.22,5.23a3.79,3.79,0,0,0,3.9-4c0-6.36-10.61-2.68-10.61-10.93,0-2.08.88-6.21,6.58-6.21,4.29,0,6.24,2.15,6.3,6.27Z"/><path class="cls-1" d="M423,24.94h-2.78v-20H414.6V2.46h14.08V4.91H423Z"/><path class="cls-1" d="M431,2.46h2.77V24.94H431Z"/><path class="cls-1" d="M444.55,24.94h-2.77v-20h-5.64V2.46h14.08V4.91h-5.67Z"/><path class="cls-1" d="M452.45,2.46h2.78v15.8c0,3.31,1.07,4.86,3.81,4.86,3,0,3.84-1.71,3.84-4.86V2.46h2.77v15.8c0,4.32-2.2,7.12-6.61,7.12s-6.59-2.49-6.59-7.12Z"/><path class="cls-1" d="M476.3,24.94h-2.77v-20h-5.64V2.46H482V4.91H476.3Z"/><path class="cls-1" d="M491.61,2.46h3.59l7.43,18.76h.06V2.46h2.78V24.94h-3.82l-7.21-18.2h-.06v18.2h-2.77Z"/><path class="cls-1" d="M514.09,2.46h3.72l6,22.48H521l-1.61-6.17h-7.18l-1.67,6.17h-2.9Zm-1.36,14h6L515.92,5.64h-.07Z"/><path class="cls-1" d="M530.87,24.94H528.1v-20h-5.64V2.46h14.08V4.91h-5.67Z"/><path class="cls-1" d="M538.9,2.46h2.77V24.94H538.9Z"/><path class="cls-1" d="M559.43,13.7c0,5.67-1,11.68-7.24,11.68S545,19.37,545,13.7,546,2,552.19,2,559.43,8,559.43,13.7Zm-11.59,0c0,5.19.51,9.42,4.35,9.42s4.35-4.23,4.35-9.42-.51-9.42-4.35-9.42S547.84,8.5,547.84,13.7Z"/><path class="cls-1" d="M562.72,2.46h3.59l7.43,18.76h.07V2.46h2.77V24.94h-3.81l-7.22-18.2h-.06v18.2h-2.77Z"/><path class="cls-1" d="M585.2,2.46h3.72l6,22.48h-2.89l-1.61-6.17h-7.18l-1.67,6.17h-2.9Zm-1.35,14h6L587,5.64H587Z"/><path class="cls-1" d="M597.08,2.46h2.77v20H609v2.46H597.08Z"/><path class="cls-1" d="M376.56,37.46h6c7,0,7.87,5,7.87,11.24,0,5.67-1.41,11.24-7.59,11.24h-6.29Zm2.77,20.21h2.9c4.78,0,5.32-4.91,5.32-8.94,0-4.35-.29-9-5.32-9h-2.9Z"/><path class="cls-1" d="M393.69,37.46h11.62v2.45h-8.85V47h8.34v2.45h-8.34v8.06h9.22v2.46h-12Z"/><path class="cls-1" d="M417.93,43.28c0-2.36-.85-4-3.49-4-2.33,0-3.72,1.26-3.72,3.65,0,6.33,10.61,2.56,10.61,10.78,0,5.19-3.81,6.67-7,6.67-5.26,0-6.8-2.71-6.8-7.49h2.77c0,2.52.16,5.23,4.22,5.23a3.8,3.8,0,0,0,3.91-4c0-6.36-10.62-2.68-10.62-10.93,0-2.08.88-6.21,6.58-6.21,4.29,0,6.24,2.15,6.3,6.27Z"/><path class="cls-1" d="M441.24,43.28c0-2.36-.85-4-3.49-4-2.33,0-3.72,1.26-3.72,3.65,0,6.33,10.61,2.56,10.61,10.78,0,5.19-3.81,6.67-7,6.67-5.26,0-6.8-2.71-6.8-7.49h2.77c0,2.52.16,5.23,4.22,5.23a3.79,3.79,0,0,0,3.91-4c0-6.36-10.62-2.68-10.62-10.93,0-2.08.88-6.21,6.59-6.21C442,37,444,39.16,444,43.28Z"/><path class="cls-1" d="M461.18,52.23c-.25,4.25-1.92,8.15-6.83,8.15-6.39,0-7.24-6-7.24-11.68s1-11.69,7.24-11.69c4.6,0,6.52,2.59,6.64,7H458.1c-.07-2.56-.88-4.73-3.75-4.73-3.84,0-4.35,4.22-4.35,9.42s.51,9.42,4.35,9.42c3.37,0,3.84-3.16,3.94-5.89Z"/><path class="cls-1" d="M463.83,37.46h2.77V59.94h-2.77Z"/><path class="cls-1" d="M470.28,37.46H481.9v2.45h-8.85V47h8.35v2.45h-8.35v8.06h9.23v2.46h-12Z"/><path class="cls-1" d="M484.88,37.46h3.59l7.43,18.76H496V37.46h2.77V59.94h-3.81l-7.21-18.2h-.07v18.2h-2.77Z"/><path class="cls-1" d="M516.1,52.23c-.25,4.25-1.92,8.15-6.83,8.15-6.4,0-7.25-6-7.25-11.68s1-11.69,7.25-11.69c4.59,0,6.52,2.59,6.64,7H513c-.06-2.56-.88-4.73-3.74-4.73-3.85,0-4.35,4.22-4.35,9.42s.5,9.42,4.35,9.42c3.37,0,3.84-3.16,3.93-5.89Z"/><path class="cls-1" d="M518.77,37.46h11.62v2.45h-8.85V47h8.34v2.45h-8.34v8.06h9.22v2.46h-12Z"/><path class="cls-1" d="M543,43.28c0-2.36-.85-4-3.49-4-2.33,0-3.72,1.26-3.72,3.65,0,6.33,10.61,2.56,10.61,10.78,0,5.19-3.81,6.67-7,6.67-5.26,0-6.8-2.71-6.8-7.49h2.77c0,2.52.16,5.23,4.22,5.23a3.79,3.79,0,0,0,3.91-4c0-6.36-10.62-2.68-10.62-10.93,0-2.08.88-6.21,6.58-6.21,4.29,0,6.24,2.15,6.3,6.27Z"/><path class="cls-1" d="M380.68,72.46h3.72l6,22.48h-2.89l-1.61-6.17h-7.18l-1.67,6.17h-2.9Zm-1.35,14h6l-2.86-10.86h-.07Z"/><path class="cls-1" d="M392.56,72.46h5.74c1.95,0,7,0,7,6.45,0,4.19-2.68,6.52-6.49,6.52h-3.43v9.51h-2.78Zm2.78,10.7h3.3c2,0,3.72-1.38,3.72-4.37,0-2.46-1.17-4.07-3.91-4.07h-3.11Z"/><path class="cls-1" d="M407.8,72.46h5.73c2,0,7,0,7,6.45,0,4.19-2.67,6.52-6.49,6.52h-3.43v9.51H407.8Zm2.77,10.7h3.31c2,0,3.71-1.38,3.71-4.37,0-2.46-1.16-4.07-3.9-4.07h-3.12Z"/><path class="cls-1" d="M423,72.46h2.77v20h9.13v2.46H423Z"/><path class="cls-1" d="M437.3,72.46h2.77V94.94H437.3Z"/><path class="cls-1" d="M454.46,94.25a6.35,6.35,0,0,1-3.87,1.13c-6.2,0-7.24-6-7.24-11.68s1-11.69,7.24-11.69,7.24,6,7.24,11.69c0,3.24-.34,6.61-1.82,8.88l2.26,2.08-1.54,1.64Zm-4-3.62,1.55-1.7,2.08,1.89a20.73,20.73,0,0,0,.85-7.12c0-5.2-.51-9.42-4.35-9.42s-4.35,4.22-4.35,9.42.51,9.42,4.35,9.42a3.72,3.72,0,0,0,2.05-.54Z"/><path class="cls-1" d="M460.91,72.46h2.77v15.8c0,3.31,1.07,4.86,3.81,4.86,3,0,3.84-1.71,3.84-4.86V72.46h2.78v15.8c0,4.32-2.21,7.12-6.62,7.12s-6.58-2.49-6.58-7.12Z"/><path class="cls-1" d="M477.67,72.46h11.62v2.45h-8.85V82h8.35v2.45h-8.35v8.06h9.23v2.46h-12Zm6.49-5.71h3.08l-3.4,4.48H482Z"/><path class="cls-1" d="M492.27,72.46h11.62v2.45H495V82h8.35v2.45H495v8.06h9.23v2.46h-12Z"/><path class="cls-1" d="M516.52,78.28c0-2.36-.85-4-3.5-4-2.33,0-3.71,1.26-3.71,3.65,0,6.33,10.61,2.56,10.61,10.78,0,5.19-3.81,6.67-7,6.67-5.26,0-6.8-2.71-6.8-7.49h2.77c0,2.52.16,5.23,4.22,5.23a3.79,3.79,0,0,0,3.9-4c0-6.36-10.61-2.68-10.61-10.93,0-2.08.88-6.21,6.58-6.21,4.28,0,6.24,2.15,6.3,6.27Z"/><path class="cls-1" d="M376.08,107.46h5.29v18.2H389v4.28H376.08Z"/><path class="cls-1" d="M393.75,121.09l-5.7-13.63h5.85l2.52,8.34h.07l2.58-8.34h5.67L399,121.09v8.85h-5.29Z"/><path class="cls-1" d="M414.05,130.38c-7,0-7.9-4.53-7.9-11.68s.94-11.69,7.9-11.69c7.5,0,7.91,5.45,7.91,11.69S421.55,130.38,414.05,130.38Zm0-3.52c2.14,0,2.46-2,2.46-8.16s-.32-8.16-2.46-8.16-2.39,2-2.39,8.16S411.94,126.86,414,126.86Z"/><path class="cls-1" d="M425.51,107.46h6.08l4.34,14.61H436V107.46h4.91v22.48h-6l-4.63-15.49h-.07v15.49h-4.72Z"/><line class="cls-1" x1="352.27" y1="2.45" x2="352.27" y2="129.96"/><rect class="cls-1" x="351.02" y="2.45" width="2.5" height="127.51"/><rect class="cls-2" y="2.51" width="33.36" height="127.49"/><polygon class="cls-2" points="79.81 2.51 101.34 81.07 101.7 81.07 101.7 2.51 132.9 2.51 132.9 130 96.32 130 74.08 51.26 73.72 51.26 73.72 130 42.51 130 42.51 2.51 79.81 2.51"/><path class="cls-2" d="M193.18,36.25a19.09,19.09,0,0,0-2.34-9.72,7.73,7.73,0,0,0-7.17-4c-3.59,0-6.23,1.16-7.89,3.49a12.85,12.85,0,0,0-2.52,7.77,12.69,12.69,0,0,0,4,9.9A37.24,37.24,0,0,0,187.43,50q6.1,2.67,13.1,5.45a58.73,58.73,0,0,1,13.09,7.23,36.1,36.1,0,0,1,10.13,11.69q4,7.23,4,18.84,0,20.36-11.66,29.55T182.41,132A89.94,89.94,0,0,1,164,130.27a33.17,33.17,0,0,1-13.45-5.9,26.31,26.31,0,0,1-8.33-11q-2.88-6.78-2.87-16.78V92.13h32.28v3.05q0,8.22,3,11.51a10.26,10.26,0,0,0,7.9,3.32,9.56,9.56,0,0,0,8-3.58,13.88,13.88,0,0,0,2.78-8.76c0-4.15-1.3-7.46-3.87-9.89a33.84,33.84,0,0,0-9.68-6.26q-5.84-2.58-12.64-5.27a55.43,55.43,0,0,1-12.66-7A34.41,34.41,0,0,1,144.83,58C142.25,53.4,141,47.32,141,39.83q0-19.47,10.41-29.65T183,0q21.87,0,31.65,9.38t9.78,29.91h-31.2Z"/><path class="cls-2" d="M297.2,2.5,328.41,130h-35.5l-3.42-22.32H262.94L259.53,130h-35L255.24,2.5ZM276,28.58l-9.15,54.09h18.66l-9.16-54.09Z"/><polygon class="cls-1" points="305.82 2.45 328.42 2.45 328.42 98.18 305.82 2.45"/></g></g></svg>