<?xml version="1.0" encoding="UTF-8" standalone="no"?>
<!-- Created with Inkscape (http://www.inkscape.org/) -->

<svg
   width="49.991058mm"
   height="27.380001mm"
   viewBox="0 0 49.991058 27.380001"
   version="1.1"
   id="svg1"
   xml:space="preserve"
   xmlns="http://www.w3.org/2000/svg"
   xmlns:svg="http://www.w3.org/2000/svg"><defs
     id="defs1" /><g
     id="layer1"
     transform="translate(-50.008941,-204.96122)"><path
       style="fill:#e50019;stroke-width:0.364367"
       d="m 51.98983,231.32903 v -1.01238 h 23.040934 23.040935 v 1.01238 1.01219 H 75.030764 51.98983 Z m 5.433746,-7.28466 c -1.182046,-0.115 -2.003996,-0.34599 -3.095868,-0.87199 -2.112639,-1.01698 -3.481525,-2.95414 -4.083397,-5.77869 -0.313073,-1.46927 -0.313977,-4.32352 -0.0018,-5.77609 0.695926,-3.23825 2.364873,-5.2655 5.073343,-6.16229 1.240616,-0.41099 2.230249,-0.52898 3.891588,-0.46499 1.606178,0.06 2.647653,0.259 4.463065,0.84398 l 1.22064,0.393 0.05913,0.93398 c 0.03251,0.51399 0.07702,1.07488 0.09887,1.24708 0.02186,0.172 0.02618,0.31299 0.0096,0.31299 -0.01658,0 -0.270194,-0.106 -0.563585,-0.23599 -2.558558,-1.13148 -5.885598,-1.64137 -7.685027,-1.17778 -3.103141,0.79998 -4.84774,3.40893 -4.84465,7.24636 0.0038,4.74232 2.803453,7.60316 7.188444,7.34567 2.05875,-0.121 3.87009,-0.64199 6.091695,-1.75296 0.795345,-0.398 1.565917,-0.821 1.71238,-0.941 l 0.266295,-0.21799 -0.284485,-1.11957 c -0.90673,-3.56854 -0.436092,-7.39287 1.190294,-9.67203 0.890824,-1.24838 2.229489,-2.20166 3.842769,-2.73635 1.169616,-0.38799 1.898166,-0.49699 3.306034,-0.49799 4.732531,-0.003 7.878792,2.33996 6.662297,4.96111 -0.879704,1.89547 -3.353015,4.03883 -9.561649,8.28564 -1.219491,0.83399 -2.229761,1.55097 -2.245044,1.59298 -0.0153,0.04 0.204997,0.289 0.489511,0.54899 2.371179,2.16716 6.649216,2.06686 11.29976,-0.26499 1.338839,-0.67099 1.693952,-0.933 1.839342,-1.35548 0.325974,-0.94799 1.486338,-2.29967 3.057707,-3.56364 1.761116,-1.41657 5.167683,-3.55713 8.479223,-5.328 0.57,-0.30499 1.036364,-0.58999 1.036364,-0.63398 0,-0.165 -1.050713,-1.03059 -1.616112,-1.33198 -2.097388,-1.11788 -5.28908,-0.94898 -8.829961,0.46799 -0.52257,0.20899 -0.967612,0.37999 -0.989002,0.37999 -0.0214,0 -0.0175,-0.228 0.0086,-0.50599 0.0261,-0.278 0.0729,-0.83499 0.103958,-1.23717 l 0.0565,-0.73099 1.077843,-0.351 c 2.096951,-0.68299 3.526635,-0.93298 5.337493,-0.93398 4.553781,-0.002 7.672228,2.76155 8.374831,7.42226 0.107128,0.711 0.138257,2.11326 0.138697,6.25109 l 7.29e-4,5.3349 -0.409722,-0.06 c -0.225346,-0.04 -0.675448,-0.10699 -1.000222,-0.16099 l -0.590499,-0.10001 -0.0602,-0.43899 c -0.03309,-0.24199 -0.0602,-0.72199 -0.0602,-1.06677 v -0.62699 l -0.51631,0.48799 c -1.759079,1.66356 -4.252009,2.33305 -7.624726,2.04766 -2.489136,-0.211 -4.081339,-0.77999 -5.232355,-1.87027 l -0.628298,-0.59498 -0.976712,0.49799 c -2.864078,1.46136 -6.301317,2.23435 -8.763902,1.97096 -2.355727,-0.25199 -4.179597,-1.06969 -5.404432,-2.42315 l -0.52126,-0.576 -0.759606,0.452 c -2.319008,1.37947 -5.071452,2.29766 -7.609501,2.53825 -1.154715,0.10999 -1.268179,0.10899 -2.418209,-0.002 z m 35.876044,-2.25676 c 2.861751,-0.60999 4.554879,-3.02235 4.739008,-6.75117 0.0427,-0.86399 0.0175,-1.36598 -0.0992,-1.98237 -0.207646,-1.09618 -0.484911,-1.88257 -0.649688,-1.84257 -0.191077,0.05 -3.763956,2.03557 -5.021891,2.79585 -4.077302,2.46436 -6.111567,4.15652 -6.525856,5.4283 -0.210936,0.648 0.257735,1.36478 1.209996,1.85177 0.442931,0.227 1.622782,0.53399 2.44883,0.63698 0.942513,0.118 3.048907,0.04 3.898819,-0.13699 z m -22.125079,-5.3261 c 1.886696,-1.24608 3.97319,-2.80965 5.832537,-4.37062 2.131464,-1.78947 2.747558,-2.50795 2.747558,-3.20464 0,-0.324 -0.0608,-0.445 -0.374023,-0.74298 -0.807955,-0.76899 -2.59276,-1.21138 -4.542659,-1.12699 -1.770123,0.08 -2.980167,0.47699 -3.99445,1.32138 -1.479409,1.23178 -2.242816,3.07634 -2.342033,5.65899 -0.0556,1.44668 0.0211,2.10316 0.371783,3.18325 l 0.195185,0.60098 0.257706,-0.13499 c 0.141737,-0.07 0.973512,-0.607 1.848399,-1.18518 z"
       id="path68" /></g></svg>
