<?xml version="1.0" encoding="UTF-8" standalone="no"?>
<!-- Created with Inkscape (http://www.inkscape.org/) -->

<svg
   width="50mm"
   height="50mm"
   viewBox="0 0 50 50"
   version="1.1"
   id="svg1"
   xml:space="preserve"
   xmlns="http://www.w3.org/2000/svg"
   xmlns:svg="http://www.w3.org/2000/svg"><defs
     id="defs1" /><g
     id="layer1"
     transform="translate(-50.000001)"><path
       style="fill:#e50019;stroke-width:0.22659"
       d="M 50.000001,24.999999 V 1.5e-7 h 25 H 100 V 24.999999 50.000001 h -24.999999 -25 z m 39.32855,7.883697 v -0.629498 h -14.32855 -14.32853 v 0.629498 0.629498 h 14.32853 14.32855 z m -23.77416,-4.528762 c 1.57834,-0.149669 3.29001,-0.720616 4.73214,-1.578448 l 0.47238,-0.28099 0.32415,0.358203 c 0.7617,0.841695 1.89591,1.350245 3.36088,1.506918 1.53141,0.163779 3.66894,-0.316933 5.45003,-1.225675 l 0.6074,-0.309908 0.39072,0.370177 c 0.71578,0.678135 1.70593,1.032059 3.25386,1.163057 2.0974,0.177507 3.64768,-0.238843 4.74161,-1.273435 l 0.32108,-0.303664 v 0.390018 c 0,0.214511 0.0168,0.513 0.0375,0.663319 l 0.0374,0.273301 0.36722,0.06045 c 0.20197,0.03327 0.481869,0.07828 0.622009,0.100053 l 0.25479,0.03957 -4.5e-4,-3.317623 c -2.3e-4,-2.573218 -0.0196,-3.445471 -0.0863,-3.887415 -0.37171,-2.465761 -1.789739,-4.04414 -4.068989,-4.529118 -0.78878,-0.167833 -2.33656,-0.08481 -3.41496,0.183184 -0.2052,0.05099 -0.67472,0.190939 -1.04338,0.310991 l -0.67028,0.218277 -0.0351,0.45462 c -0.0193,0.250042 -0.0484,0.596259 -0.0647,0.769369 -0.0162,0.173113 -0.0186,0.314748 -0.005,0.314748 0.0133,0 0.29006,-0.106364 0.61503,-0.236366 2.20198,-0.880883 4.18681,-0.986001 5.49112,-0.290812 0.3516,0.187406 1.00501,0.725918 1.00501,0.828296 0,0.02711 -0.29001,0.204364 -0.64448,0.393914 -2.05936,1.101234 -4.17781,2.432375 -5.27301,3.31331 -0.97718,0.786027 -1.69878,1.62701 -1.9015,2.2161 -0.0904,0.262744 -0.31125,0.42549 -1.14383,0.842962 -2.89205,1.450099 -5.55245,1.512497 -7.02702,0.16482 -0.17693,-0.161705 -0.31392,-0.315379 -0.30441,-0.341491 0.01,-0.02609 0.63776,-0.471908 1.39613,-0.990652 3.86098,-2.641013 5.39907,-3.973837 5.94613,-5.152591 0.75651,-1.630042 -1.20007,-3.087006 -4.1431,-3.085166 -0.87552,4.53e-4 -1.32858,0.06884 -2.05594,0.3099 -1.00325,0.332501 -1.83573,0.925271 -2.38971,1.701601 -1.01131,1.417357 -1.30398,3.795605 -0.74011,6.014805 l 0.17691,0.696264 -0.1656,0.135264 c -0.29539,0.241288 -1.94704,1.029012 -2.60007,1.240066 -3.16745,1.023706 -5.49412,0.260573 -6.37983,-2.092544 -0.25596,-0.680038 -0.34287,-1.196235 -0.34355,-2.04058 -0.002,-2.386338 1.083,-4.009082 3.01276,-4.506261 1.11902,-0.288303 3.18801,0.02879 4.77911,0.732455 0.18245,0.08069 0.34017,0.146706 0.35048,0.146706 0.0103,0 0.008,-0.08768 -0.006,-0.194843 -0.0136,-0.107164 -0.0413,-0.456144 -0.0615,-0.775514 l -0.0368,-0.580668 -0.75908,-0.244488 c -1.12896,-0.363617 -1.77663,-0.486032 -2.77546,-0.524591 -1.03315,-0.03988 -1.64857,0.03363 -2.42008,0.28907 -1.68432,0.557673 -2.7222,1.818323 -3.15497,3.832183 -0.19412,0.90328 -0.19356,2.678265 10e-4,3.59195 0.26179,1.228584 0.70471,2.090565 1.45634,2.834268 0.74153,0.7337 1.77811,1.182117 3.00825,1.30134 0.71517,0.06932 0.78573,0.06938 1.50382,0.0014 z m 18.38196,-1.319566 c -0.5137,-0.06449 -1.24742,-0.255377 -1.52287,-0.396248 -0.59218,-0.302864 -0.88363,-0.748892 -0.75246,-1.151549 0.25763,-0.790867 1.52269,-1.843157 4.05825,-3.375707 0.78228,-0.472824 3.00416,-1.709815 3.12298,-1.738657 0.10247,-0.02487 0.2749,0.464159 0.40402,1.145849 0.0726,0.383276 0.0882,0.695578 0.0617,1.232747 -0.0937,1.898414 -0.81453,3.264672 -2.04128,3.869283 -0.26737,0.131773 -0.67496,0.27986 -0.90578,0.329086 -0.52854,0.112719 -1.83845,0.158747 -2.42457,0.0852 z M 71.170811,24.08489 c -0.21808,-0.671706 -0.26576,-1.079942 -0.2312,-1.979595 0.0877,-2.283933 1.05202,-3.71741 2.83138,-4.209088 0.55495,-0.153346 1.74709,-0.185254 2.39098,-0.064 0.70004,0.13183 1.25599,0.359894 1.54309,0.633001 0.40309,0.383454 0.30961,0.765037 -0.35761,1.45965 -0.39249,0.408612 -1.79381,1.575868 -2.85704,2.379817 -0.82296,0.622279 -2.65238,1.86904 -3.03796,2.070386 l -0.16026,0.08368 z"
       id="path4" /></g></svg>
